SplineFontDB: 3.2
FontName: Pretension-ExtraLight
FullName: Pretension ExtraLight
FamilyName: Pretension ExtraLight
Weight: Extra-Light
Copyright: Copyright 2016 The Inter Project Authors
Version: 4.000;git-a52131595
ItalicAngle: 0
UnderlinePosition: -379
UnderlineWidth: 77
Ascent: 1638
Descent: 410
InvalidEm: 0
sfntRevision: 0x00040000
LayerCount: 2
Layer: 0 1 "Back" 1
Layer: 1 1 "Fore" 0
XUID: [1021 89 -1234937351 6696753]
StyleMap: 0x0040
FSType: 0
OS2Version: 4
OS2_WeightWidthSlopeOnly: 0
OS2_UseTypoMetrics: 1
CreationTime: 1700438797
ModificationTime: 1707686792
PfmFamily: 17
TTFWeight: 200
TTFWidth: 5
LineGap: 0
VLineGap: 0
Panose: 2 0 5 3 0 0 0 2 0 4
OS2TypoAscent: 1984
OS2TypoAOffset: 0
OS2TypoDescent: -494
OS2TypoDOffset: 0
OS2TypoLinegap: 0
OS2WinAscent: 1984
OS2WinAOffset: 0
OS2WinDescent: 494
OS2WinDOffset: 0
HheadAscent: 1984
HheadAOffset: 0
HheadDescent: -494
HheadDOffset: 0
OS2SubXSize: 1331
OS2SubYSize: 1229
OS2SubXOff: 0
OS2SubYOff: 154
OS2SupXSize: 1331
OS2SupYSize: 1229
OS2SupXOff: 0
OS2SupYOff: 717
OS2StrikeYSize: 77
OS2StrikeYPos: 653
OS2CapHeight: 1490
OS2XHeight: 1087
OS2Vendor: 'RSMS'
OS2CodePages: 0000019f.00000000
OS2UnicodeRanges: e0000aff.5200a1ff.00000021.00000000
Lookup: 1 0 0 "'aalt' Access All Alternates in Latin lookup 0" { "'aalt' Access All Alternates in Latin lookup 0 subtable"  } ['aalt' ('DFLT' <'dflt' > 'latn' <'CAT ' 'MOL ' 'ROM ' 'dflt' > ) ]
Lookup: 3 0 0 "'aalt' Access All Alternates in Latin lookup 1" { "'aalt' Access All Alternates in Latin lookup 1 subtable"  } ['aalt' ('DFLT' <'dflt' > 'latn' <'CAT ' 'MOL ' 'ROM ' 'dflt' > ) ]
Lookup: 1 0 0 "Single Substitution lookup 2" { "Single Substitution lookup 2 subtable"  } []
Lookup: 4 0 0 "'ccmp' Glyph Composition/Decomposition in Latin lookup 3" { "'ccmp' Glyph Composition/Decomposition in Latin lookup 3 subtable"  } ['ccmp' ('DFLT' <'dflt' > 'latn' <'CAT ' 'MOL ' 'ROM ' 'dflt' > ) ]

StartChar: .notdef
Encoding: 1114112 -1 0
Width: 1344
Flags: W
LayerCount: 2
Fore
SplineSet
1016 -416 m 1,0,-1
 328 -416 l 1,1,-1
 328 1856 l 1,2,-1
 1016 1856 l 1,3,-1
 1016 -416 l 1,0,-1
512 -192 m 1,4,-1
 512 -256 l 1,5,-1
 832 -256 l 1,6,-1
 832 -192 l 1,7,-1
 617 -192 l 1,8,-1
 832 -65 l 1,9,-1
 832 0 l 1,10,-1
 512 0 l 1,11,-1
 512 -64 l 1,12,-1
 728 -64 l 1,13,-1
 512 -192 l 1,4,-1
512 320 m 1,14,-1
 512 64 l 1,15,-1
 832 64 l 1,16,-1
 832 320 l 1,17,-1
 512 320 l 1,14,-1
768 128 m 1,18,-1
 576 128 l 1,19,-1
 576 256 l 1,20,-1
 768 256 l 1,21,-1
 768 128 l 1,18,-1
512 704 m 1,22,-1
 512 448 l 1,23,-1
 832 448 l 1,24,-1
 832 704 l 1,25,-1
 640 704 l 1,26,-1
 640 576 l 1,27,-1
 704 576 l 1,28,-1
 704 640 l 1,29,-1
 768 640 l 1,30,-1
 768 512 l 1,31,-1
 576 512 l 1,32,-1
 576 704 l 1,33,-1
 512 704 l 1,22,-1
512 832 m 1,34,-1
 512 768 l 1,35,-1
 832 768 l 1,36,-1
 832 992 l 1,37,-1
 768 992 l 1,38,-1
 768 832 l 1,39,-1
 512 832 l 1,34,-1
512 960 m 1,40,-1
 512 896 l 1,41,-1
 704 896 l 1,42,-1
 704 1056 l 1,43,-1
 832 1056 l 1,44,-1
 832 1120 l 1,45,-1
 512 1120 l 1,46,-1
 512 1056 l 1,47,-1
 640 1056 l 1,48,-1
 640 960 l 1,49,-1
 512 960 l 1,40,-1
640 1248 m 1,50,-1
 576 1248 l 1,51,-1
 576 1344 l 1,52,-1
 640 1344 l 1,53,-1
 640 1248 l 1,50,-1
512 1408 m 1,54,-1
 512 1184 l 1,55,-1
 832 1184 l 1,56,-1
 832 1248 l 1,57,-1
 704 1248 l 1,58,-1
 704 1408 l 1,59,-1
 512 1408 l 1,54,-1
512 1536 m 1,60,-1
 512 1472 l 1,61,-1
 832 1472 l 1,62,-1
 832 1536 l 1,63,-1
 688 1536 l 1,64,-1
 688 1632 l 1,65,-1
 832 1632 l 1,66,-1
 832 1696 l 1,67,-1
 512 1696 l 1,68,-1
 512 1632 l 1,69,-1
 624 1632 l 1,70,-1
 624 1536 l 1,71,-1
 512 1536 l 1,60,-1
EndSplineSet
EndChar

StartChar: A
Encoding: 65 65 2
Width: 1302
GlyphClass: 2
Flags: W
AnchorPoint: "Anchor-4" 1261 0 basechar 0
AnchorPoint: "Anchor-1" 651 1490 basechar 0
AnchorPoint: "Anchor-0" 651 0 basechar 0
LayerCount: 2
Fore
SplineSet
41 0 m 1,0,-1
 595 1490 l 1,1,-1
 707 1490 l 1,2,-1
 1261 0 l 1,3,-1
 1163 0 l 1,4,-1
 770 1066 l 2,5,6
 740 1149 740 1149 707.5 1242 c 128,-1,7
 675 1335 675 1335 636 1451 c 1,8,-1
 663 1451 l 1,9,10
 626 1334 626 1334 593 1241 c 128,-1,11
 560 1148 560 1148 531 1066 c 2,12,-1
 138 0 l 1,13,-1
 41 0 l 1,0,-1
280 468 m 1,14,-1
 280 553 l 1,15,-1
 1022 553 l 1,16,-1
 1022 468 l 1,17,-1
 280 468 l 1,14,-1
EndSplineSet
Substitution2: "'c2sc' Capitals to Small Capitals in Latin lookup 68 subtable" a.sc
Substitution2: "'ss06' Style Set 6 in Latin lookup 52 subtable" A.squared
Substitution2: "'ss05' Style Set 5 in Latin lookup 51 subtable" uni24B6
Substitution2: "Single Substitution lookup 44 subtable" ordfeminine
AlternateSubs2: "'aalt' Access All Alternates in Latin lookup 1 subtable" ordfeminine a.sc
Position2: "'cpsp' Capital Spacing in Latin lookup 0 subtable" dx=0 dy=0 dh=0 dv=0
EndChar

StartChar: uni023A
Encoding: 570 570 46
Width: 1302
GlyphClass: 2
Flags: W
AnchorPoint: "Anchor-4" 1261 0 basechar 0
AnchorPoint: "Anchor-1" 651 1490 basechar 0
AnchorPoint: "Anchor-0" 651 0 basechar 0
LayerCount: 2
Fore
SplineSet
1015 1678 m 1,0,-1
 351 -190 l 1,1,-1
 262 -190 l 1,2,-1
 926 1678 l 1,3,-1
 1015 1678 l 1,0,-1
41 0 m 1,4,-1
 595 1490 l 1,5,-1
 707 1490 l 1,6,-1
 1261 0 l 1,7,-1
 1163 0 l 1,8,-1
 770 1066 l 2,9,10
 740 1149 740 1149 707.5 1242 c 128,-1,11
 675 1335 675 1335 636 1451 c 1,12,-1
 663 1451 l 1,13,14
 626 1334 626 1334 593 1241 c 128,-1,15
 560 1148 560 1148 531 1066 c 2,16,-1
 138 0 l 1,17,-1
 41 0 l 1,4,-1
280 468 m 1,18,-1
 280 553 l 1,19,-1
 1022 553 l 1,20,-1
 1022 468 l 1,21,-1
 280 468 l 1,18,-1
EndSplineSet
Position2: "'cpsp' Capital Spacing in Latin lookup 0 subtable" dx=0 dy=0 dh=0 dv=0
EndChar

StartChar: Lambda
Encoding: 923 923 60
Width: 1302
GlyphClass: 2
Flags: W
AnchorPoint: "Anchor-1" 651 1490 basechar 0
AnchorPoint: "Anchor-0" 651 0 basechar 0
LayerCount: 2
Fore
SplineSet
41 0 m 1,0,-1
 595 1490 l 1,1,-1
 707 1490 l 1,2,-1
 1261 0 l 1,3,-1
 1163 0 l 1,4,-1
 770 1066 l 2,5,6
 740 1149 740 1149 707.5 1242 c 128,-1,7
 675 1335 675 1335 636 1451 c 1,8,-1
 663 1451 l 1,9,10
 626 1334 626 1334 593 1241 c 128,-1,11
 560 1148 560 1148 531 1066 c 2,12,-1
 138 0 l 1,13,-1
 41 0 l 1,0,-1
EndSplineSet
Position2: "'cpsp' Capital Spacing in Latin lookup 0 subtable" dx=0 dy=0 dh=0 dv=0
EndChar

StartChar: AE
Encoding: 198 198 61
Width: 1938
GlyphClass: 2
Flags: W
AnchorPoint: "Anchor-1" 1260 1490 basechar 0
LayerCount: 2
Fore
SplineSet
41 0 m 1,0,-1
 780 1490 l 1,1,-1
 1814 1490 l 1,2,-1
 1814 1405 l 1,3,-1
 1065 1405 l 1,4,-1
 1065 789 l 1,5,-1
 1768 789 l 1,6,-1
 1768 704 l 1,7,-1
 1065 704 l 1,8,-1
 1065 85 l 1,9,-1
 1829 85 l 1,10,-1
 1829 0 l 1,11,-1
 974 0 l 1,12,-1
 974 1413 l 1,13,-1
 838 1413 l 1,14,-1
 142 0 l 1,15,-1
 41 0 l 1,0,-1
347 480 m 1,16,-1
 347 564 l 1,17,-1
 1021 564 l 1,18,-1
 1021 480 l 1,19,-1
 347 480 l 1,16,-1
EndSplineSet
Position2: "'cpsp' Capital Spacing in Latin lookup 0 subtable" dx=0 dy=0 dh=0 dv=0
EndChar

StartChar: B
Encoding: 66 66 65
Width: 1291
GlyphClass: 2
Flags: W
AnchorPoint: "Anchor-1" 612 1487 basechar 0
AnchorPoint: "Anchor-0" 627 0 basechar 0
LayerCount: 2
Fore
SplineSet
188 0 m 1,0,-1
 188 1490 l 1,1,-1
 675 1490 l 2,2,3
 812 1490 812 1490 910 1442.5 c 128,-1,4
 1008 1395 1008 1395 1060.5 1309 c 128,-1,5
 1113 1223 1113 1223 1113 1107 c 0,6,7
 1113 1017 1113 1017 1081.5 948 c 128,-1,8
 1050 879 1050 879 995 832.5 c 128,-1,9
 940 786 940 786 868 766 c 1,10,-1
 868 760 l 1,11,12
 946 751 946 751 1015.5 705 c 128,-1,13
 1085 659 1085 659 1128.5 580.5 c 128,-1,14
 1172 502 1172 502 1172 396 c 0,15,16
 1172 278 1172 278 1119 189 c 128,-1,17
 1066 100 1066 100 963.5 50 c 128,-1,18
 861 0 861 0 713 0 c 2,19,-1
 188 0 l 1,0,-1
280 85 m 1,20,-1
 712 85 l 2,21,22
 888 85 888 85 984 170.5 c 128,-1,23
 1080 256 1080 256 1080 394 c 0,24,25
 1080 491 1080 491 1032 563.5 c 128,-1,26
 984 636 984 636 902 675.5 c 128,-1,27
 820 715 820 715 715 715 c 2,28,-1
 280 715 l 1,29,-1
 280 85 l 1,20,-1
280 799 m 1,30,-1
 709 799 l 2,31,32
 805 799 805 799 875.5 840 c 128,-1,33
 946 881 946 881 984 950.5 c 128,-1,34
 1022 1020 1022 1020 1022 1104 c 0,35,36
 1022 1245 1022 1245 929.5 1325 c 128,-1,37
 837 1405 837 1405 676 1405 c 2,38,-1
 280 1405 l 1,39,-1
 280 799 l 1,30,-1
EndSplineSet
Substitution2: "'ss06' Style Set 6 in Latin lookup 52 subtable" B.squared
Substitution2: "'ss05' Style Set 5 in Latin lookup 51 subtable" uni24B7
Position2: "'cpsp' Capital Spacing in Latin lookup 0 subtable" dx=0 dy=0 dh=0 dv=0
EndChar

StartChar: uni0181
Encoding: 385 385 70
Width: 1491
GlyphClass: 2
Flags: W
AnchorPoint: "Anchor-1" 812 1487 basechar 0
AnchorPoint: "Anchor-0" 827 0 basechar 0
LayerCount: 2
Fore
SplineSet
53 1106 m 1,0,-1
 53 1257 l 2,1,2
 53 1373 53 1373 111.5 1431.5 c 128,-1,3
 170 1490 170 1490 282 1490 c 2,4,-1
 387 1490 l 1,5,-1
 387 1406 l 1,6,-1
 286 1406 l 2,7,8
 210 1406 210 1406 175.5 1369.5 c 128,-1,9
 141 1333 141 1333 141 1256 c 2,10,-1
 141 1106 l 1,11,-1
 53 1106 l 1,0,-1
388 0 m 1,12,-1
 388 1490 l 1,13,-1
 875 1490 l 2,14,15
 1012 1490 1012 1490 1110 1442.5 c 128,-1,16
 1208 1395 1208 1395 1260.5 1309 c 128,-1,17
 1313 1223 1313 1223 1313 1107 c 0,18,19
 1313 1017 1313 1017 1281.5 948 c 128,-1,20
 1250 879 1250 879 1195 832.5 c 128,-1,21
 1140 786 1140 786 1068 766 c 1,22,-1
 1068 760 l 1,23,24
 1146 751 1146 751 1215.5 705 c 128,-1,25
 1285 659 1285 659 1328.5 580.5 c 128,-1,26
 1372 502 1372 502 1372 396 c 0,27,28
 1372 278 1372 278 1319 189 c 128,-1,29
 1266 100 1266 100 1163.5 50 c 128,-1,30
 1061 0 1061 0 913 0 c 2,31,-1
 388 0 l 1,12,-1
480 85 m 1,32,-1
 912 85 l 2,33,34
 1088 85 1088 85 1184 170.5 c 128,-1,35
 1280 256 1280 256 1280 394 c 0,36,37
 1280 491 1280 491 1232 563.5 c 128,-1,38
 1184 636 1184 636 1102 675.5 c 128,-1,39
 1020 715 1020 715 915 715 c 2,40,-1
 480 715 l 1,41,-1
 480 85 l 1,32,-1
480 799 m 1,42,-1
 909 799 l 2,43,44
 1005 799 1005 799 1075.5 840 c 128,-1,45
 1146 881 1146 881 1184 950.5 c 128,-1,46
 1222 1020 1222 1020 1222 1104 c 0,47,48
 1222 1245 1222 1245 1129.5 1325 c 128,-1,49
 1037 1405 1037 1405 876 1405 c 2,50,-1
 480 1405 l 1,51,-1
 480 799 l 1,42,-1
EndSplineSet
Position2: "'cpsp' Capital Spacing in Latin lookup 0 subtable" dx=0 dy=0 dh=0 dv=0
EndChar

StartChar: C
Encoding: 67 67 73
Width: 1441
GlyphClass: 2
Flags: W
AnchorPoint: "Anchor-3" 746 -1 basechar 0
AnchorPoint: "Anchor-1" 747 1490 basechar 0
LayerCount: 2
Fore
SplineSet
750 -19 m 0,0,1
 562 -19 562 -19 418 76.5 c 128,-1,2
 274 172 274 172 193.5 343.5 c 128,-1,3
 113 515 113 515 113 744 c 0,4,5
 113 975 113 975 194 1146.5 c 128,-1,6
 275 1318 275 1318 418.5 1413.5 c 128,-1,7
 562 1509 562 1509 750 1509 c 0,8,9
 875 1509 875 1509 976 1468 c 128,-1,10
 1077 1427 1077 1427 1151.5 1357 c 128,-1,11
 1226 1287 1226 1287 1271 1200.5 c 128,-1,12
 1316 1114 1316 1114 1333 1022 c 1,13,-1
 1239 1022 l 1,14,15
 1224 1099 1224 1099 1184 1170.5 c 128,-1,16
 1144 1242 1144 1242 1082 1298.5 c 128,-1,17
 1020 1355 1020 1355 936.5 1388 c 128,-1,18
 853 1421 853 1421 750 1421 c 0,19,20
 600 1421 600 1421 476.5 1342 c 128,-1,21
 353 1263 353 1263 279 1112 c 128,-1,22
 205 961 205 961 205 744 c 0,23,24
 205 528 205 528 278.5 376.5 c 128,-1,25
 352 225 352 225 475.5 147 c 128,-1,26
 599 69 599 69 750 69 c 0,27,28
 853 69 853 69 936 102.5 c 128,-1,29
 1019 136 1019 136 1081.5 192.5 c 128,-1,30
 1144 249 1144 249 1184 320.5 c 128,-1,31
 1224 392 1224 392 1239 470 c 1,32,-1
 1333 470 l 1,33,34
 1316 379 1316 379 1270.5 292 c 128,-1,35
 1225 205 1225 205 1151.5 134.5 c 128,-1,36
 1078 64 1078 64 977 22.5 c 128,-1,37
 876 -19 876 -19 750 -19 c 0,0,1
EndSplineSet
Substitution2: "'ss06' Style Set 6 in Latin lookup 52 subtable" C.squared
Substitution2: "'ss05' Style Set 5 in Latin lookup 51 subtable" uni24B8
Position2: "'cpsp' Capital Spacing in Latin lookup 0 subtable" dx=0 dy=0 dh=0 dv=0
EndChar

StartChar: uni0187
Encoding: 391 391 74
Width: 1441
GlyphClass: 2
Flags: W
AnchorPoint: "Anchor-3" 746 -1 basechar 0
AnchorPoint: "Anchor-1" 747 1490 basechar 0
LayerCount: 2
Fore
SplineSet
1246 1022 m 1,0,-1
 1246 1462 l 2,1,2
 1246 1571 1246 1571 1300.5 1624.5 c 128,-1,3
 1355 1678 1355 1678 1464 1678 c 0,4,5
 1484 1678 1484 1678 1506 1677.5 c 128,-1,6
 1528 1677 1528 1677 1545 1676 c 1,7,-1
 1545 1597 l 1,8,9
 1527 1597 1527 1597 1506 1597 c 128,-1,10
 1485 1597 1485 1597 1472 1597 c 0,11,12
 1399 1597 1399 1597 1366 1566 c 128,-1,13
 1333 1535 1333 1535 1333 1462 c 2,14,-1
 1333 1022 l 1,15,-1
 1246 1022 l 1,0,-1
750 -19 m 0,16,17
 562 -19 562 -19 418 76.5 c 128,-1,18
 274 172 274 172 193.5 343.5 c 128,-1,19
 113 515 113 515 113 744 c 0,20,21
 113 975 113 975 194 1146.5 c 128,-1,22
 275 1318 275 1318 418.5 1413.5 c 128,-1,23
 562 1509 562 1509 750 1509 c 0,24,25
 875 1509 875 1509 976 1468 c 128,-1,26
 1077 1427 1077 1427 1151.5 1357 c 128,-1,27
 1226 1287 1226 1287 1271 1200.5 c 128,-1,28
 1316 1114 1316 1114 1333 1022 c 1,29,-1
 1239 1022 l 1,30,31
 1224 1099 1224 1099 1184 1170.5 c 128,-1,32
 1144 1242 1144 1242 1082 1298.5 c 128,-1,33
 1020 1355 1020 1355 936.5 1388 c 128,-1,34
 853 1421 853 1421 750 1421 c 0,35,36
 600 1421 600 1421 476.5 1342 c 128,-1,37
 353 1263 353 1263 279 1112 c 128,-1,38
 205 961 205 961 205 744 c 0,39,40
 205 528 205 528 278.5 376.5 c 128,-1,41
 352 225 352 225 475.5 147 c 128,-1,42
 599 69 599 69 750 69 c 0,43,44
 853 69 853 69 936 102.5 c 128,-1,45
 1019 136 1019 136 1081.5 192.5 c 128,-1,46
 1144 249 1144 249 1184 320.5 c 128,-1,47
 1224 392 1224 392 1239 470 c 1,48,-1
 1333 470 l 1,49,50
 1316 379 1316 379 1270.5 292 c 128,-1,51
 1225 205 1225 205 1151.5 134.5 c 128,-1,52
 1078 64 1078 64 977 22.5 c 128,-1,53
 876 -19 876 -19 750 -19 c 0,16,17
EndSplineSet
Position2: "'cpsp' Capital Spacing in Latin lookup 0 subtable" dx=0 dy=0 dh=0 dv=0
EndChar

StartChar: uni023B
Encoding: 571 571 81
Width: 1441
GlyphClass: 2
Flags: W
AnchorPoint: "Anchor-3" 746 -1 basechar 0
AnchorPoint: "Anchor-1" 747 1490 basechar 0
LayerCount: 2
Fore
SplineSet
330 -190 m 1,0,-1
 1033 1678 l 1,1,-1
 1122 1678 l 1,2,-1
 419 -190 l 1,3,-1
 330 -190 l 1,0,-1
750 -19 m 0,4,5
 562 -19 562 -19 418 76.5 c 128,-1,6
 274 172 274 172 193.5 343.5 c 128,-1,7
 113 515 113 515 113 744 c 0,8,9
 113 975 113 975 194 1146.5 c 128,-1,10
 275 1318 275 1318 418.5 1413.5 c 128,-1,11
 562 1509 562 1509 750 1509 c 0,12,13
 875 1509 875 1509 976 1468 c 128,-1,14
 1077 1427 1077 1427 1151.5 1357 c 128,-1,15
 1226 1287 1226 1287 1271 1200.5 c 128,-1,16
 1316 1114 1316 1114 1333 1022 c 1,17,-1
 1239 1022 l 1,18,19
 1224 1099 1224 1099 1184 1170.5 c 128,-1,20
 1144 1242 1144 1242 1082 1298.5 c 128,-1,21
 1020 1355 1020 1355 936.5 1388 c 128,-1,22
 853 1421 853 1421 750 1421 c 0,23,24
 600 1421 600 1421 476.5 1342 c 128,-1,25
 353 1263 353 1263 279 1112 c 128,-1,26
 205 961 205 961 205 744 c 0,27,28
 205 528 205 528 278.5 376.5 c 128,-1,29
 352 225 352 225 475.5 147 c 128,-1,30
 599 69 599 69 750 69 c 0,31,32
 853 69 853 69 936 102.5 c 128,-1,33
 1019 136 1019 136 1081.5 192.5 c 128,-1,34
 1144 249 1144 249 1184 320.5 c 128,-1,35
 1224 392 1224 392 1239 470 c 1,36,-1
 1333 470 l 1,37,38
 1316 379 1316 379 1270.5 292 c 128,-1,39
 1225 205 1225 205 1151.5 134.5 c 128,-1,40
 1078 64 1078 64 977 22.5 c 128,-1,41
 876 -19 876 -19 750 -19 c 0,4,5
EndSplineSet
Ligature2: "'ccmp' Glyph Composition/Decomposition in Latin lookup 6 subtable" C uni0338
Position2: "'cpsp' Capital Spacing in Latin lookup 0 subtable" dx=0 dy=0 dh=0 dv=0
EndChar

StartChar: uni0186
Encoding: 390 390 82
Width: 1441
GlyphClass: 2
Flags: W
AnchorPoint: "Anchor-3" 695 1493 basechar 0
AnchorPoint: "Anchor-1" 694 0 basechar 0
LayerCount: 2
Fore
SplineSet
691 1509 m 0,0,1
 879 1509 879 1509 1023 1413.5 c 128,-1,2
 1167 1318 1167 1318 1247.5 1146.5 c 128,-1,3
 1328 975 1328 975 1328 746 c 0,4,5
 1328 518 1328 518 1247 345.5 c 128,-1,6
 1166 173 1166 173 1023 77 c 128,-1,7
 880 -19 880 -19 691 -19 c 0,8,9
 565 -19 565 -19 464.5 22 c 128,-1,10
 364 63 364 63 289.5 133.5 c 128,-1,11
 215 204 215 204 170 291.5 c 128,-1,12
 125 379 125 379 108 470 c 1,13,-1
 201 470 l 1,14,15
 217 392 217 392 257 320.5 c 128,-1,16
 297 249 297 249 359 192 c 128,-1,17
 421 135 421 135 504.5 102 c 128,-1,18
 588 69 588 69 691 69 c 0,19,20
 841 69 841 69 965 148.5 c 128,-1,21
 1089 228 1089 228 1162.5 379.5 c 128,-1,22
 1236 531 1236 531 1236 746 c 0,23,24
 1236 963 1236 963 1162.5 1114.5 c 128,-1,25
 1089 1266 1089 1266 965 1343.5 c 128,-1,26
 841 1421 841 1421 691 1421 c 0,27,28
 589 1421 589 1421 505.5 1388 c 128,-1,29
 422 1355 422 1355 359.5 1298.5 c 128,-1,30
 297 1242 297 1242 257 1170 c 128,-1,31
 217 1098 217 1098 202 1022 c 1,32,-1
 108 1022 l 1,33,34
 124 1113 124 1113 170 1200 c 128,-1,35
 216 1287 216 1287 289.5 1357 c 128,-1,36
 363 1427 363 1427 463.5 1468 c 128,-1,37
 564 1509 564 1509 691 1509 c 0,0,1
EndSplineSet
Position2: "'cpsp' Capital Spacing in Latin lookup 0 subtable" dx=0 dy=0 dh=0 dv=0
EndChar

StartChar: D
Encoding: 68 68 84
Width: 1414
GlyphClass: 2
Flags: W
AnchorPoint: "Anchor-1" 601 1490 basechar 0
AnchorPoint: "Anchor-0" 575 0 basechar 0
LayerCount: 2
Fore
SplineSet
603 0 m 2,0,-1
 239 0 l 1,1,-1
 239 85 l 1,2,-1
 599 85 l 2,3,4
 797 85 797 85 934 165 c 128,-1,5
 1071 245 1071 245 1140.5 394 c 128,-1,6
 1210 543 1210 543 1210 749 c 256,7,8
 1210 955 1210 955 1142.5 1101.5 c 128,-1,9
 1075 1248 1075 1248 946 1326.5 c 128,-1,10
 817 1405 817 1405 631 1405 c 2,11,-1
 237 1405 l 1,12,-1
 237 1490 l 1,13,-1
 634 1490 l 2,14,15
 845 1490 845 1490 993.5 1401.5 c 128,-1,16
 1142 1313 1142 1313 1221.5 1147 c 128,-1,17
 1301 981 1301 981 1301 749 c 0,18,19
 1301 514 1301 514 1219 346 c 128,-1,20
 1137 178 1137 178 980.5 89 c 128,-1,21
 824 0 824 0 603 0 c 2,0,-1
280 1490 m 1,22,-1
 280 0 l 1,23,-1
 188 0 l 1,24,-1
 188 1490 l 1,25,-1
 280 1490 l 1,22,-1
EndSplineSet
Substitution2: "'ss06' Style Set 6 in Latin lookup 52 subtable" D.squared
Substitution2: "'ss05' Style Set 5 in Latin lookup 51 subtable" uni24B9
Position2: "'cpsp' Capital Spacing in Latin lookup 0 subtable" dx=0 dy=0 dh=0 dv=0
EndChar

StartChar: uni018A
Encoding: 394 394 85
Width: 1614
GlyphClass: 2
Flags: W
AnchorPoint: "Anchor-1" 801 1490 basechar 0
AnchorPoint: "Anchor-0" 775 0 basechar 0
LayerCount: 2
Fore
SplineSet
53 1106 m 1,0,-1
 53 1257 l 2,1,2
 53 1373 53 1373 112 1431.5 c 128,-1,3
 171 1490 171 1490 283 1490 c 2,4,-1
 388 1490 l 1,5,-1
 388 1406 l 1,6,-1
 286 1406 l 2,7,8
 211 1406 211 1406 176 1369.5 c 128,-1,9
 141 1333 141 1333 141 1256 c 2,10,-1
 141 1106 l 1,11,-1
 53 1106 l 1,0,-1
803 0 m 2,12,-1
 439 0 l 1,13,-1
 439 85 l 1,14,-1
 799 85 l 2,15,16
 997 85 997 85 1134 165 c 128,-1,17
 1271 245 1271 245 1340.5 394 c 128,-1,18
 1410 543 1410 543 1410 749 c 256,19,20
 1410 955 1410 955 1342.5 1101.5 c 128,-1,21
 1275 1248 1275 1248 1146.5 1326.5 c 128,-1,22
 1018 1405 1018 1405 831 1405 c 2,23,-1
 437 1405 l 1,24,-1
 437 1490 l 1,25,-1
 834 1490 l 2,26,27
 1045 1490 1045 1490 1194 1401.5 c 128,-1,28
 1343 1313 1343 1313 1422 1147 c 128,-1,29
 1501 981 1501 981 1501 749 c 0,30,31
 1501 514 1501 514 1419 346 c 128,-1,32
 1337 178 1337 178 1181 89 c 128,-1,33
 1025 0 1025 0 803 0 c 2,12,-1
480 1490 m 1,34,-1
 480 0 l 1,35,-1
 388 0 l 1,36,-1
 388 1490 l 1,37,-1
 480 1490 l 1,34,-1
EndSplineSet
Position2: "'cpsp' Capital Spacing in Latin lookup 0 subtable" dx=0 dy=0 dh=0 dv=0
EndChar

StartChar: E
Encoding: 69 69 95
Width: 1184
GlyphClass: 2
Flags: W
AnchorPoint: "Anchor-4" 1075 0 basechar 0
AnchorPoint: "Anchor-3" 632 0 basechar 0
AnchorPoint: "Anchor-1" 632 1490 basechar 0
AnchorPoint: "Anchor-0" 632 0 basechar 0
LayerCount: 2
Fore
SplineSet
188 0 m 1,0,-1
 188 1490 l 1,1,-1
 1067 1490 l 1,2,-1
 1067 1405 l 1,3,-1
 280 1405 l 1,4,-1
 280 798 l 1,5,-1
 1009 798 l 1,6,-1
 1009 713 l 1,7,-1
 280 713 l 1,8,-1
 280 85 l 1,9,-1
 1075 85 l 1,10,-1
 1075 0 l 1,11,-1
 188 0 l 1,0,-1
EndSplineSet
Substitution2: "'ss06' Style Set 6 in Latin lookup 52 subtable" E.squared
Substitution2: "'ss05' Style Set 5 in Latin lookup 51 subtable" uni24BA
Position2: "'cpsp' Capital Spacing in Latin lookup 0 subtable" dx=0 dy=0 dh=0 dv=0
EndChar

StartChar: uni0246
Encoding: 582 582 121
Width: 1184
GlyphClass: 2
Flags: W
AnchorPoint: "Anchor-4" 1075 0 basechar 0
AnchorPoint: "Anchor-3" 632 0 basechar 0
AnchorPoint: "Anchor-1" 632 1490 basechar 0
AnchorPoint: "Anchor-0" 632 0 basechar 0
LayerCount: 2
Fore
SplineSet
325 -190 m 1,0,-1
 863 1678 l 1,1,-1
 947 1678 l 1,2,-1
 408 -190 l 1,3,-1
 325 -190 l 1,0,-1
188 0 m 1,4,-1
 188 1490 l 1,5,-1
 1067 1490 l 1,6,-1
 1067 1405 l 1,7,-1
 280 1405 l 1,8,-1
 280 798 l 1,9,-1
 1009 798 l 1,10,-1
 1009 713 l 1,11,-1
 280 713 l 1,12,-1
 280 85 l 1,13,-1
 1075 85 l 1,14,-1
 1075 0 l 1,15,-1
 188 0 l 1,4,-1
EndSplineSet
Position2: "'cpsp' Capital Spacing in Latin lookup 0 subtable" dx=0 dy=0 dh=0 dv=0
EndChar

StartChar: Eturn
Encoding: 398 398 122
Width: 1184
GlyphClass: 2
Flags: W
AnchorPoint: "Anchor-4" 109 1490 basechar 0
AnchorPoint: "Anchor-3" 600 0 basechar 0
AnchorPoint: "Anchor-1" 623 1490 basechar 0
AnchorPoint: "Anchor-0" 598 0 basechar 0
LayerCount: 2
Fore
SplineSet
996 1490 m 1,0,-1
 996 0 l 1,1,-1
 118 0 l 1,2,-1
 118 85 l 1,3,-1
 903 85 l 1,4,-1
 903 694 l 1,5,-1
 175 694 l 1,6,-1
 175 779 l 1,7,-1
 903 779 l 1,8,-1
 903 1405 l 1,9,-1
 109 1405 l 1,10,-1
 109 1490 l 1,11,-1
 996 1490 l 1,0,-1
EndSplineSet
Position2: "'cpsp' Capital Spacing in Latin lookup 0 subtable" dx=0 dy=0 dh=0 dv=0
EndChar

StartChar: F
Encoding: 70 70 137
Width: 1153
GlyphClass: 2
Flags: W
AnchorPoint: "Anchor-1" 619 1490 basechar 0
AnchorPoint: "Anchor-0" 235 0 basechar 0
LayerCount: 2
Fore
SplineSet
188 0 m 1,0,-1
 188 1490 l 1,1,-1
 1048 1490 l 1,2,-1
 1048 1405 l 1,3,-1
 280 1405 l 1,4,-1
 280 794 l 1,5,-1
 972 794 l 1,6,-1
 972 709 l 1,7,-1
 280 709 l 1,8,-1
 280 0 l 1,9,-1
 188 0 l 1,0,-1
EndSplineSet
Substitution2: "'ss06' Style Set 6 in Latin lookup 52 subtable" F.squared
Substitution2: "'ss05' Style Set 5 in Latin lookup 51 subtable" uni24BB
Position2: "'cpsp' Capital Spacing in Latin lookup 0 subtable" dx=0 dy=0 dh=0 dv=0
EndChar

StartChar: uni0191
Encoding: 401 401 138
Width: 1153
GlyphClass: 2
Flags: W
AnchorPoint: "Anchor-1" 619 1490 basechar 0
AnchorPoint: "Anchor-0" 235 0 basechar 0
LayerCount: 2
Fore
SplineSet
-21 -418 m 1,0,-1
 -21 -334 l 1,1,2
 -4 -335 -4 -335 18 -335.5 c 128,-1,3
 40 -336 40 -336 53 -336 c 0,4,5
 126 -336 126 -336 157 -304.5 c 128,-1,6
 188 -273 188 -273 188 -200 c 2,7,-1
 188 128 l 1,8,-1
 280 128 l 1,9,-1
 280 -203 l 2,10,11
 280 -312 280 -312 225.5 -365.5 c 128,-1,12
 171 -419 171 -419 63 -419 c 0,13,14
 43 -419 43 -419 19.5 -419 c 128,-1,15
 -4 -419 -4 -419 -21 -418 c 1,0,-1
188 0 m 1,16,-1
 188 1490 l 1,17,-1
 1048 1490 l 1,18,-1
 1048 1405 l 1,19,-1
 280 1405 l 1,20,-1
 280 794 l 1,21,-1
 972 794 l 1,22,-1
 972 709 l 1,23,-1
 280 709 l 1,24,-1
 280 0 l 1,25,-1
 188 0 l 1,16,-1
EndSplineSet
Position2: "'cpsp' Capital Spacing in Latin lookup 0 subtable" dx=0 dy=0 dh=0 dv=0
EndChar

StartChar: Fturn
Encoding: 8498 8498 140
Width: 1153
GlyphClass: 2
Flags: W
AnchorPoint: "Anchor-1" 927 1490 basechar 0
AnchorPoint: "Anchor-0" 559 0 basechar 0
LayerCount: 2
Fore
SplineSet
965 1490 m 1,0,-1
 965 0 l 1,1,-1
 105 0 l 1,2,-1
 105 85 l 1,3,-1
 872 85 l 1,4,-1
 872 698 l 1,5,-1
 181 698 l 1,6,-1
 181 783 l 1,7,-1
 872 783 l 1,8,-1
 872 1490 l 1,9,-1
 965 1490 l 1,0,-1
EndSplineSet
Position2: "'cpsp' Capital Spacing in Latin lookup 0 subtable" dx=0 dy=0 dh=0 dv=0
EndChar

StartChar: G
Encoding: 1114113 -1 141
Width: 1469
GlyphClass: 2
Flags: W
AnchorPoint: "Anchor-1" 739 1490 basechar 0
AnchorPoint: "Anchor-0" 739 0 basechar 0
LayerCount: 2
Fore
SplineSet
752 -19 m 0,0,1
 561 -19 561 -19 417 77 c 128,-1,2
 273 173 273 173 193 345 c 128,-1,3
 113 517 113 517 113 744 c 0,4,5
 113 975 113 975 193.5 1147 c 128,-1,6
 274 1319 274 1319 417 1414 c 128,-1,7
 560 1509 560 1509 747 1509 c 0,8,9
 874 1509 874 1509 975 1467.5 c 128,-1,10
 1076 1426 1076 1426 1150.5 1355.5 c 128,-1,11
 1225 1285 1225 1285 1271.5 1198.5 c 128,-1,12
 1318 1112 1318 1112 1333 1022 c 1,13,-1
 1238 1022 l 1,14,15
 1223 1096 1223 1096 1183.5 1167.5 c 128,-1,16
 1144 1239 1144 1239 1081 1296.5 c 128,-1,17
 1018 1354 1018 1354 934 1387.5 c 128,-1,18
 850 1421 850 1421 748 1421 c 0,19,20
 588 1421 588 1421 465 1337.5 c 128,-1,21
 342 1254 342 1254 273.5 1102 c 128,-1,22
 205 950 205 950 205 744 c 0,23,24
 205 542 205 542 273 390 c 128,-1,25
 341 238 341 238 464.5 153.5 c 128,-1,26
 588 69 588 69 752 69 c 0,27,28
 903 69 903 69 1015 137 c 128,-1,29
 1127 205 1127 205 1189 328.5 c 128,-1,30
 1251 452 1251 452 1251 621 c 1,31,-1
 1285 612 l 1,32,-1
 778 612 l 1,33,-1
 778 697 l 1,34,-1
 1343 697 l 1,35,-1
 1343 614 l 2,36,37
 1343 424 1343 424 1268.5 281.5 c 128,-1,38
 1194 139 1194 139 1060.5 60 c 128,-1,39
 927 -19 927 -19 752 -19 c 0,0,1
EndSplineSet
Substitution2: "'c2sc' Capitals to Small Capitals in Latin lookup 68 subtable" g.sc
Substitution2: "'cv10' Character Variants 10 in Latin lookup 64 subtable" G.1
Substitution2: "'ss06' Style Set 6 in Latin lookup 52 subtable" G.squared
Substitution2: "'ss05' Style Set 5 in Latin lookup 51 subtable" uni24BC
Substitution2: "'salt' Stylistic Alternatives in Latin lookup 46 subtable" G.1
Substitution2: "'aalt' Access All Alternates in Latin lookup 0 subtable" g.sc
Position2: "'cpsp' Capital Spacing in Latin lookup 0 subtable" dx=0 dy=0 dh=0 dv=0
EndChar

StartChar: uni0193
Encoding: 1114115 -1 143
Width: 1469
GlyphClass: 2
Flags: W
AnchorPoint: "Anchor-1" 739 1490 basechar 0
AnchorPoint: "Anchor-0" 739 0 basechar 0
LayerCount: 2
Fore
SplineSet
1245 1022 m 1,0,-1
 1245 1462 l 2,1,2
 1245 1571 1245 1571 1300.5 1624 c 128,-1,3
 1356 1677 1356 1677 1464 1677 c 0,4,5
 1485 1677 1485 1677 1507 1677 c 128,-1,6
 1529 1677 1529 1677 1547 1677 c 1,7,-1
 1547 1596 l 1,8,9
 1529 1596 1529 1596 1507 1596 c 128,-1,10
 1485 1596 1485 1596 1471 1596 c 0,11,12
 1399 1596 1399 1596 1366 1565 c 128,-1,13
 1333 1534 1333 1534 1333 1462 c 2,14,-1
 1333 1022 l 1,15,-1
 1245 1022 l 1,0,-1
752 -19 m 0,16,17
 561 -19 561 -19 417 77 c 128,-1,18
 273 173 273 173 193 345 c 128,-1,19
 113 517 113 517 113 744 c 0,20,21
 113 975 113 975 193.5 1147 c 128,-1,22
 274 1319 274 1319 417 1414 c 128,-1,23
 560 1509 560 1509 747 1509 c 0,24,25
 874 1509 874 1509 975 1467.5 c 128,-1,26
 1076 1426 1076 1426 1150.5 1355.5 c 128,-1,27
 1225 1285 1225 1285 1271.5 1198.5 c 128,-1,28
 1318 1112 1318 1112 1333 1022 c 1,29,-1
 1238 1022 l 1,30,31
 1223 1096 1223 1096 1183.5 1167.5 c 128,-1,32
 1144 1239 1144 1239 1081 1296.5 c 128,-1,33
 1018 1354 1018 1354 934 1387.5 c 128,-1,34
 850 1421 850 1421 748 1421 c 0,35,36
 588 1421 588 1421 465 1337.5 c 128,-1,37
 342 1254 342 1254 273.5 1102 c 128,-1,38
 205 950 205 950 205 744 c 0,39,40
 205 542 205 542 273 390 c 128,-1,41
 341 238 341 238 464.5 153.5 c 128,-1,42
 588 69 588 69 752 69 c 0,43,44
 903 69 903 69 1015 137 c 128,-1,45
 1127 205 1127 205 1189 328.5 c 128,-1,46
 1251 452 1251 452 1251 621 c 1,47,-1
 1285 612 l 1,48,-1
 778 612 l 1,49,-1
 778 697 l 1,50,-1
 1343 697 l 1,51,-1
 1343 614 l 2,52,53
 1343 424 1343 424 1268.5 281.5 c 128,-1,54
 1194 139 1194 139 1060.5 60 c 128,-1,55
 927 -19 927 -19 752 -19 c 0,16,17
EndSplineSet
Substitution2: "'c2sc' Capitals to Small Capitals in Latin lookup 68 subtable" uni0260.sc
Substitution2: "'cv10' Character Variants 10 in Latin lookup 64 subtable" uni0193.1
Substitution2: "'salt' Stylistic Alternatives in Latin lookup 46 subtable" uni0193.1
Substitution2: "'aalt' Access All Alternates in Latin lookup 0 subtable" uni0260.sc
Position2: "'cpsp' Capital Spacing in Latin lookup 0 subtable" dx=0 dy=0 dh=0 dv=0
EndChar

StartChar: G.1
Encoding: 57346 57346 151
AltUni2: 000047.ffffffff.0
Width: 1499
GlyphClass: 2
Flags: W
AnchorPoint: "Anchor-1" 740 1490 basechar 0
AnchorPoint: "Anchor-0" 739 0 basechar 0
LayerCount: 2
Fore
SplineSet
750 -19 m 0,0,1
 559 -19 559 -19 416 77 c 128,-1,2
 273 173 273 173 193 345 c 128,-1,3
 113 517 113 517 113 744 c 0,4,5
 113 975 113 975 193.5 1147 c 128,-1,6
 274 1319 274 1319 417 1414 c 128,-1,7
 560 1509 560 1509 747 1509 c 0,8,9
 874 1509 874 1509 975 1467.5 c 128,-1,10
 1076 1426 1076 1426 1150.5 1355.5 c 128,-1,11
 1225 1285 1225 1285 1271.5 1198.5 c 128,-1,12
 1318 1112 1318 1112 1333 1022 c 1,13,-1
 1238 1022 l 1,14,15
 1223 1096 1223 1096 1183.5 1167.5 c 128,-1,16
 1144 1239 1144 1239 1081 1296.5 c 128,-1,17
 1018 1354 1018 1354 934 1387.5 c 128,-1,18
 850 1421 850 1421 748 1421 c 0,19,20
 588 1421 588 1421 465 1337.5 c 128,-1,21
 342 1254 342 1254 273.5 1102 c 128,-1,22
 205 950 205 950 205 744 c 0,23,24
 205 542 205 542 273 390 c 128,-1,25
 341 238 341 238 464.5 153.5 c 128,-1,26
 588 69 588 69 752 69 c 0,27,28
 904 69 904 69 1016.5 137.5 c 128,-1,29
 1129 206 1129 206 1192 331 c 128,-1,30
 1255 456 1255 456 1255 630 c 1,31,-1
 1299 630 l 1,32,-1
 1299 582 l 2,33,34
 1299 453 1299 453 1263 343.5 c 128,-1,35
 1227 234 1227 234 1156.5 152.5 c 128,-1,36
 1086 71 1086 71 984 26 c 128,-1,37
 882 -19 882 -19 750 -19 c 0,0,1
1269 0 m 1,38,-1
 1255 411 l 1,39,-1
 1262 612 l 1,40,-1
 779 612 l 1,41,-1
 779 697 l 1,42,-1
 1344 697 l 1,43,-1
 1344 0 l 1,44,-1
 1269 0 l 1,38,-1
EndSplineSet
Substitution2: "'ss06' Style Set 6 in Latin lookup 52 subtable" G.1.squared
EndChar

StartChar: uni0193.1
Encoding: 57348 57348 153
AltUni2: 000193.ffffffff.0
Width: 1499
GlyphClass: 2
Flags: W
AnchorPoint: "Anchor-1" 740 1490 basechar 0
AnchorPoint: "Anchor-0" 739 0 basechar 0
LayerCount: 2
Fore
SplineSet
1245 1022 m 1,0,-1
 1245 1462 l 2,1,2
 1245 1571 1245 1571 1300.5 1624 c 128,-1,3
 1356 1677 1356 1677 1464 1677 c 0,4,5
 1485 1677 1485 1677 1507 1677 c 128,-1,6
 1529 1677 1529 1677 1547 1677 c 1,7,-1
 1547 1596 l 1,8,9
 1529 1596 1529 1596 1507 1596 c 128,-1,10
 1485 1596 1485 1596 1471 1596 c 0,11,12
 1399 1596 1399 1596 1366 1565 c 128,-1,13
 1333 1534 1333 1534 1333 1462 c 2,14,-1
 1333 1022 l 1,15,-1
 1245 1022 l 1,0,-1
750 -19 m 0,16,17
 559 -19 559 -19 416 77 c 128,-1,18
 273 173 273 173 193 345 c 128,-1,19
 113 517 113 517 113 744 c 0,20,21
 113 975 113 975 193.5 1147 c 128,-1,22
 274 1319 274 1319 417 1414 c 128,-1,23
 560 1509 560 1509 747 1509 c 0,24,25
 874 1509 874 1509 975 1467.5 c 128,-1,26
 1076 1426 1076 1426 1150.5 1355.5 c 128,-1,27
 1225 1285 1225 1285 1271.5 1198.5 c 128,-1,28
 1318 1112 1318 1112 1333 1022 c 1,29,-1
 1238 1022 l 1,30,31
 1223 1096 1223 1096 1183.5 1167.5 c 128,-1,32
 1144 1239 1144 1239 1081 1296.5 c 128,-1,33
 1018 1354 1018 1354 934 1387.5 c 128,-1,34
 850 1421 850 1421 748 1421 c 0,35,36
 588 1421 588 1421 465 1337.5 c 128,-1,37
 342 1254 342 1254 273.5 1102 c 128,-1,38
 205 950 205 950 205 744 c 0,39,40
 205 542 205 542 273 390 c 128,-1,41
 341 238 341 238 464.5 153.5 c 128,-1,42
 588 69 588 69 752 69 c 0,43,44
 904 69 904 69 1016.5 137.5 c 128,-1,45
 1129 206 1129 206 1192 331 c 128,-1,46
 1255 456 1255 456 1255 630 c 1,47,-1
 1299 630 l 1,48,-1
 1299 582 l 2,49,50
 1299 453 1299 453 1263 343.5 c 128,-1,51
 1227 234 1227 234 1156.5 152.5 c 128,-1,52
 1086 71 1086 71 984 26 c 128,-1,53
 882 -19 882 -19 750 -19 c 0,16,17
1269 0 m 1,54,-1
 1255 411 l 1,55,-1
 1262 612 l 1,56,-1
 779 612 l 1,57,-1
 779 697 l 1,58,-1
 1344 697 l 1,59,-1
 1344 0 l 1,60,-1
 1269 0 l 1,54,-1
EndSplineSet
EndChar

StartChar: H
Encoding: 72 72 161
Width: 1455
GlyphClass: 2
Flags: W
AnchorPoint: "Anchor-3" 234 1 basechar 0
AnchorPoint: "Anchor-1" 728 1490 basechar 0
AnchorPoint: "Anchor-0" 728 0 basechar 0
LayerCount: 2
Fore
SplineSet
188 0 m 1,0,-1
 188 1490 l 1,1,-1
 280 1490 l 1,2,-1
 280 805 l 1,3,-1
 1175 805 l 1,4,-1
 1175 1490 l 1,5,-1
 1267 1490 l 1,6,-1
 1267 0 l 1,7,-1
 1175 0 l 1,8,-1
 1175 720 l 1,9,-1
 280 720 l 1,10,-1
 280 0 l 1,11,-1
 188 0 l 1,0,-1
EndSplineSet
Substitution2: "'c2sc' Capitals to Small Capitals in Latin lookup 68 subtable" h.sc
Substitution2: "'ss06' Style Set 6 in Latin lookup 52 subtable" H.squared
Substitution2: "'ss05' Style Set 5 in Latin lookup 51 subtable" uni24BD
Substitution2: "'aalt' Access All Alternates in Latin lookup 0 subtable" h.sc
Position2: "'cpsp' Capital Spacing in Latin lookup 0 subtable" dx=0 dy=0 dh=0 dv=0
EndChar

StartChar: Hbar
Encoding: 294 294 169
Width: 1489
GlyphClass: 2
Flags: W
AnchorPoint: "Anchor-3" 252 1 basechar 0
AnchorPoint: "Anchor-1" 746 1490 basechar 0
AnchorPoint: "Anchor-0" 746 0 basechar 0
LayerCount: 2
Fore
SplineSet
1401 1112 m 1,0,-1
 1401 1029 l 1,1,-1
 87 1029 l 1,2,-1
 87 1112 l 1,3,-1
 1401 1112 l 1,0,-1
206 0 m 1,4,-1
 206 1490 l 1,5,-1
 298 1490 l 1,6,-1
 298 805 l 1,7,-1
 1193 805 l 1,8,-1
 1193 1490 l 1,9,-1
 1285 1490 l 1,10,-1
 1285 0 l 1,11,-1
 1193 0 l 1,12,-1
 1193 720 l 1,13,-1
 298 720 l 1,14,-1
 298 0 l 1,15,-1
 206 0 l 1,4,-1
EndSplineSet
Position2: "'cpsp' Capital Spacing in Latin lookup 0 subtable" dx=0 dy=0 dh=0 dv=0
EndChar

StartChar: uni04C7
Encoding: 1223 1223 170
Width: 1455
GlyphClass: 2
Flags: W
AnchorPoint: "Anchor-3" 234 1 basechar 0
AnchorPoint: "Anchor-1" 728 1490 basechar 0
AnchorPoint: "Anchor-0" 728 0 basechar 0
LayerCount: 2
Fore
SplineSet
966 -418 m 1,0,-1
 966 -334 l 1,1,2
 983 -335 983 -335 1005 -335.5 c 128,-1,3
 1027 -336 1027 -336 1040 -336 c 0,4,5
 1113 -336 1113 -336 1144 -304.5 c 128,-1,6
 1175 -273 1175 -273 1175 -200 c 2,7,-1
 1175 128 l 1,8,-1
 1267 128 l 1,9,-1
 1267 -203 l 2,10,11
 1267 -312 1267 -312 1212.5 -365.5 c 128,-1,12
 1158 -419 1158 -419 1050 -419 c 0,13,14
 1030 -419 1030 -419 1006.5 -419 c 128,-1,15
 983 -419 983 -419 966 -418 c 1,0,-1
188 0 m 1,16,-1
 188 1490 l 1,17,-1
 280 1490 l 1,18,-1
 280 805 l 1,19,-1
 1175 805 l 1,20,-1
 1175 1490 l 1,21,-1
 1267 1490 l 1,22,-1
 1267 0 l 1,23,-1
 1175 0 l 1,24,-1
 1175 720 l 1,25,-1
 280 720 l 1,26,-1
 280 0 l 1,27,-1
 188 0 l 1,16,-1
EndSplineSet
Position2: "'cpsp' Capital Spacing in Latin lookup 0 subtable" dx=0 dy=0 dh=0 dv=0
EndChar

StartChar: uni04A4
Encoding: 1188 1188 173
Width: 1937
GlyphClass: 2
Flags: W
AnchorPoint: "Anchor-3" 234 1 basechar 0
AnchorPoint: "Anchor-1" 728 1490 basechar 0
AnchorPoint: "Anchor-0" 728 0 basechar 0
LayerCount: 2
Fore
SplineSet
1849 1490 m 1,0,-1
 1849 1405 l 1,1,-1
 1222 1405 l 1,2,-1
 1179 1490 l 1,3,-1
 1849 1490 l 1,0,-1
188 0 m 1,4,-1
 188 1490 l 1,5,-1
 280 1490 l 1,6,-1
 280 805 l 1,7,-1
 1175 805 l 1,8,-1
 1175 1490 l 1,9,-1
 1267 1490 l 1,10,-1
 1267 0 l 1,11,-1
 1175 0 l 1,12,-1
 1175 720 l 1,13,-1
 280 720 l 1,14,-1
 280 0 l 1,15,-1
 188 0 l 1,4,-1
EndSplineSet
Position2: "'cpsp' Capital Spacing in Latin lookup 0 subtable" dx=0 dy=0 dh=0 dv=0
EndChar

StartChar: uni01F6
Encoding: 502 502 174
Width: 2191
Flags: W
LayerCount: 2
Fore
SplineSet
1607 -20 m 0,0,1
 1480 -19 1480 -19 1383 31 c 128,-1,2
 1286 81 1286 81 1231 178.5 c 128,-1,3
 1176 276 1176 276 1176 416 c 2,4,-1
 1176 712 l 1,5,-1
 281 712 l 1,6,-1
 281 0 l 1,7,-1
 188 0 l 1,8,-1
 188 1490 l 1,9,-1
 281 1490 l 1,10,-1
 281 797 l 1,11,-1
 1176 797 l 1,12,-1
 1176 1490 l 1,13,-1
 1268 1490 l 1,14,-1
 1268 417 l 2,15,16
 1268 304 1268 304 1309.5 225.5 c 128,-1,17
 1351 147 1351 147 1427 107 c 128,-1,18
 1503 67 1503 67 1607 67 c 0,19,20
 1713 67 1713 67 1787.5 107 c 128,-1,21
 1862 147 1862 147 1901.5 225.5 c 128,-1,22
 1941 304 1941 304 1941 417 c 2,23,-1
 1941 1096 l 1,24,-1
 2033 1096 l 1,25,-1
 2033 416 l 2,26,27
 2033 273 2033 273 1978.5 176 c 128,-1,28
 1924 79 1924 79 1828.5 30 c 128,-1,29
 1733 -19 1733 -19 1607 -20 c 0,0,1
EndSplineSet
Position2: "'cpsp' Capital Spacing in Latin lookup 0 subtable" dx=0 dy=0 dh=0 dv=0
EndChar

StartChar: I
Encoding: 73 73 197
Width: 468
GlyphClass: 2
Flags: W
AnchorPoint: "Anchor-4" 280 0 basechar 0
AnchorPoint: "Anchor-1" 235 1490 basechar 0
AnchorPoint: "Anchor-0" 235 0 basechar 0
LayerCount: 2
Fore
SplineSet
280 1490 m 1,0,-1
 280 0 l 1,1,-1
 188 0 l 1,2,-1
 188 1490 l 1,3,-1
 280 1490 l 1,0,-1
EndSplineSet
Substitution2: "'c2sc' Capitals to Small Capitals in Latin lookup 68 subtable" i.sc
Substitution2: "'cv08' Character Variants 08 in Latin lookup 62 subtable" I.1
Substitution2: "'ss06' Style Set 6 in Latin lookup 52 subtable" I.squared
Substitution2: "'ss05' Style Set 5 in Latin lookup 51 subtable" uni24BE
Substitution2: "'ss04' Style Set 4 in Latin lookup 50 subtable" I.1
Substitution2: "'ss02' Style Set 2 in Latin lookup 48 subtable" I.1
Substitution2: "'salt' Stylistic Alternatives in Latin lookup 46 subtable" I.1
Substitution2: "'aalt' Access All Alternates in Latin lookup 0 subtable" i.sc
Position2: "'cpsp' Capital Spacing in Latin lookup 0 subtable" dx=0 dy=0 dh=0 dv=0
EndChar

StartChar: I.1
Encoding: 57356 57356 235
Width: 692
GlyphClass: 2
Flags: W
AnchorPoint: "Anchor-4" 600 0 basechar 0
AnchorPoint: "Anchor-1" 347 1490 basechar 0
AnchorPoint: "Anchor-0" 347 0 basechar 0
LayerCount: 2
Fore
SplineSet
92 0 m 1,0,-1
 92 85 l 1,1,-1
 299 85 l 1,2,-1
 299 1405 l 1,3,-1
 92 1405 l 1,4,-1
 92 1490 l 1,5,-1
 600 1490 l 1,6,-1
 600 1405 l 1,7,-1
 391 1405 l 1,8,-1
 391 85 l 1,9,-1
 600 85 l 1,10,-1
 600 0 l 1,11,-1
 92 0 l 1,0,-1
EndSplineSet
EndChar

StartChar: J
Encoding: 74 74 267
Width: 1103
GlyphClass: 2
Flags: W
AnchorPoint: "Anchor-1" 891 1490 basechar 0
LayerCount: 2
Fore
SplineSet
528 -20 m 0,0,1
 343 -20 343 -20 231.5 93 c 128,-1,2
 120 206 120 206 120 406 c 2,3,-1
 120 478 l 1,4,-1
 212 478 l 1,5,-1
 212 406 l 2,6,7
 212 246 212 246 296.5 156 c 128,-1,8
 381 66 381 66 528 66 c 0,9,10
 674 66 674 66 759 156 c 128,-1,11
 844 246 844 246 844 406 c 2,12,-1
 844 1490 l 1,13,-1
 937 1490 l 1,14,-1
 937 406 l 2,15,16
 937 206 937 206 826 93 c 128,-1,17
 715 -20 715 -20 528 -20 c 0,0,1
EndSplineSet
Substitution2: "'ss06' Style Set 6 in Latin lookup 52 subtable" J.squared
Substitution2: "'ss05' Style Set 5 in Latin lookup 51 subtable" uni24BF
Position2: "'cpsp' Capital Spacing in Latin lookup 0 subtable" dx=0 dy=0 dh=0 dv=0
EndChar

StartChar: K
Encoding: 75 75 272
Width: 1227
GlyphClass: 2
Flags: W
AnchorPoint: "Anchor-1" 648 1490 basechar 0
AnchorPoint: "Anchor-0" 648 0 basechar 0
LayerCount: 2
Fore
SplineSet
257 499 m 1,0,-1
 247 605 l 1,1,2
 305 670 305 670 358.5 729.5 c 128,-1,3
 412 789 412 789 466.5 848.5 c 128,-1,4
 521 908 521 908 579 971 c 2,5,-1
 1062 1490 l 1,6,-1
 1183 1490 l 1,7,-1
 562 822 l 1,8,-1
 552 816 l 1,9,-1
 257 499 l 1,0,-1
188 0 m 1,10,-1
 188 1490 l 1,11,-1
 280 1490 l 1,12,-1
 280 966 l 1,13,-1
 281 614 l 1,14,-1
 280 563 l 1,15,-1
 280 0 l 1,16,-1
 188 0 l 1,10,-1
1073 0 m 1,17,-1
 500 805 l 1,18,-1
 562 871 l 1,19,-1
 1182 0 l 1,20,-1
 1073 0 l 1,17,-1
EndSplineSet
Substitution2: "'ss06' Style Set 6 in Latin lookup 52 subtable" K.squared
Substitution2: "'ss05' Style Set 5 in Latin lookup 51 subtable" uni24C0
Position2: "'cpsp' Capital Spacing in Latin lookup 0 subtable" dx=0 dy=0 dh=0 dv=0
EndChar

StartChar: uni04A0
Encoding: 1184 1184 278
Width: 1615
GlyphClass: 2
Flags: W
AnchorPoint: "Anchor-1" 984 1490 basechar 0
LayerCount: 2
Fore
SplineSet
583 1490 m 1,0,-1
 583 1406 l 1,1,-1
 87 1406 l 1,2,-1
 87 1490 l 1,3,-1
 583 1490 l 1,0,-1
534 0 m 1,4,-1
 534 1490 l 1,5,-1
 626 1490 l 1,6,-1
 626 804 l 1,7,-1
 891 804 l 1,8,-1
 1435 1490 l 1,9,-1
 1548 1490 l 1,10,-1
 971 764 l 1,11,-1
 1572 0 l 1,12,-1
 1459 0 l 1,13,-1
 894 719 l 1,14,-1
 626 719 l 1,15,-1
 626 0 l 1,16,-1
 534 0 l 1,4,-1
EndSplineSet
Position2: "'cpsp' Capital Spacing in Latin lookup 0 subtable" dx=0 dy=0 dh=0 dv=0
EndChar

StartChar: uni0198
Encoding: 408 408 280
Width: 1303
Flags: W
LayerCount: 2
Fore
SplineSet
188 0 m 1,0,-1
 188 1490 l 1,1,-1
 282 1490 l 1,2,-1
 282 627 l 1,3,-1
 292 627 l 1,4,-1
 1007 1414 l 2,5,6
 1050 1464 1050 1464 1105 1484.5 c 128,-1,7
 1160 1505 1160 1505 1214.5 1497 c 128,-1,8
 1269 1489 1269 1489 1312 1451 c 1,9,-1
 1266 1386 l 1,10,11
 1215 1420 1215 1420 1166.5 1411 c 128,-1,12
 1118 1402 1118 1402 1070 1349 c 2,13,-1
 553 785 l 1,14,-1
 1241 0 l 1,15,-1
 1123 0 l 1,16,-1
 493 719 l 1,17,-1
 282 484 l 1,18,-1
 282 0 l 1,19,-1
 188 0 l 1,0,-1
EndSplineSet
Position2: "'cpsp' Capital Spacing in Latin lookup 0 subtable" dx=0 dy=0 dh=0 dv=0
EndChar

StartChar: L
Encoding: 76 76 282
Width: 1108
GlyphClass: 2
Flags: W
AnchorPoint: "Anchor-1" 236 1490 basechar 0
AnchorPoint: "Anchor-0" 599 0 basechar 0
LayerCount: 2
Fore
SplineSet
188 0 m 1,0,-1
 188 1490 l 1,1,-1
 282 1490 l 1,2,-1
 282 85 l 1,3,-1
 1020 85 l 1,4,-1
 1020 0 l 1,5,-1
 188 0 l 1,0,-1
EndSplineSet
Substitution2: "'c2sc' Capitals to Small Capitals in Latin lookup 68 subtable" l.sc
Substitution2: "'ss06' Style Set 6 in Latin lookup 52 subtable" L.squared
Substitution2: "'ss05' Style Set 5 in Latin lookup 51 subtable" uni24C1
Substitution2: "'aalt' Access All Alternates in Latin lookup 0 subtable" l.sc
Position2: "'cpsp' Capital Spacing in Latin lookup 0 subtable" dx=0 dy=0 dh=0 dv=0
EndChar

StartChar: M
Encoding: 77 77 293
Width: 1780
GlyphClass: 2
Flags: W
AnchorPoint: "Anchor-1" 890 1490 basechar 0
AnchorPoint: "Anchor-0" 890 0 basechar 0
LayerCount: 2
Fore
SplineSet
188 0 m 1,0,-1
 188 1490 l 1,1,-1
 317 1490 l 1,2,-1
 784 382 l 2,3,4
 798 350 798 350 814 310.5 c 128,-1,5
 830 271 830 271 845.5 229.5 c 128,-1,6
 861 188 861 188 876.5 148 c 128,-1,7
 892 108 892 108 906 72 c 1,8,-1
 876 72 l 1,9,10
 890 108 890 108 905.5 148 c 128,-1,11
 921 188 921 188 937 229.5 c 128,-1,12
 953 271 953 271 968.5 310 c 128,-1,13
 984 349 984 349 999 382 c 2,14,-1
 1464 1490 l 1,15,-1
 1592 1490 l 1,16,-1
 1592 0 l 1,17,-1
 1500 0 l 1,18,-1
 1500 1044 l 2,19,20
 1500 1086 1500 1086 1500.5 1132 c 128,-1,21
 1501 1178 1501 1178 1501.5 1226 c 128,-1,22
 1502 1274 1502 1274 1502.5 1322 c 128,-1,23
 1503 1370 1503 1370 1504 1416 c 1,24,-1
 1521 1416 l 1,25,26
 1502 1366 1502 1366 1482 1315.5 c 128,-1,27
 1462 1265 1462 1265 1443.5 1217.5 c 128,-1,28
 1425 1170 1425 1170 1407 1126 c 128,-1,29
 1389 1082 1389 1082 1373 1044 c 2,30,-1
 932 0 l 1,31,-1
 848 0 l 1,32,-1
 405 1044 l 2,33,34
 389 1082 389 1082 371.5 1125.5 c 128,-1,35
 354 1169 354 1169 335 1216.5 c 128,-1,36
 316 1264 316 1264 296.5 1314.5 c 128,-1,37
 277 1365 277 1365 257 1416 c 1,38,-1
 275 1416 l 1,39,40
 276 1370 276 1370 276.5 1322.5 c 128,-1,41
 277 1275 277 1275 277.5 1227.5 c 128,-1,42
 278 1180 278 1180 278.5 1133 c 128,-1,43
 279 1086 279 1086 279 1044 c 2,44,-1
 279 0 l 1,45,-1
 188 0 l 1,0,-1
EndSplineSet
Substitution2: "'c2sc' Capitals to Small Capitals in Latin lookup 68 subtable" m.sc
Substitution2: "'ss06' Style Set 6 in Latin lookup 52 subtable" M.squared
Substitution2: "'ss05' Style Set 5 in Latin lookup 51 subtable" uni24C2
Substitution2: "'aalt' Access All Alternates in Latin lookup 0 subtable" m.sc
Position2: "'cpsp' Capital Spacing in Latin lookup 0 subtable" dx=0 dy=0 dh=0 dv=0
EndChar

StartChar: N
Encoding: 78 78 301
Width: 1511
GlyphClass: 2
Flags: W
AnchorPoint: "Anchor-1" 756 1490 basechar 0
AnchorPoint: "Anchor-0" 756 0 basechar 0
LayerCount: 2
Fore
SplineSet
188 0 m 1,0,-1
 188 1490 l 1,1,-1
 290 1490 l 1,2,-1
 1042 416 l 2,3,4
 1075 370 1075 370 1110 317.5 c 128,-1,5
 1145 265 1145 265 1182 208 c 128,-1,6
 1219 151 1219 151 1255 94 c 1,7,-1
 1237 88 l 1,8,9
 1235 145 1235 145 1233.5 204.5 c 128,-1,10
 1232 264 1232 264 1231.5 320.5 c 128,-1,11
 1231 377 1231 377 1231 423 c 2,12,-1
 1231 1490 l 1,13,-1
 1323 1490 l 1,14,-1
 1323 0 l 1,15,-1
 1220 0 l 1,16,-1
 492 1038 l 2,17,18
 458 1088 458 1088 420.5 1143.5 c 128,-1,19
 383 1199 383 1199 342 1261.5 c 128,-1,20
 301 1324 301 1324 254 1397 c 1,21,-1
 274 1405 l 1,22,23
 276 1332 276 1332 277.5 1266.5 c 128,-1,24
 279 1201 279 1201 280 1143.5 c 128,-1,25
 281 1086 281 1086 281 1038 c 2,26,-1
 281 0 l 1,27,-1
 188 0 l 1,0,-1
EndSplineSet
Substitution2: "'c2sc' Capitals to Small Capitals in Latin lookup 68 subtable" n.sc
Substitution2: "'ss06' Style Set 6 in Latin lookup 52 subtable" N.squared
Substitution2: "'ss05' Style Set 5 in Latin lookup 51 subtable" uni24C3
Substitution2: "'aalt' Access All Alternates in Latin lookup 0 subtable" n.sc
Position2: "'cpsp' Capital Spacing in Latin lookup 0 subtable" dx=0 dy=0 dh=0 dv=0
EndChar

StartChar: Nhook
Encoding: 413 413 311
Width: 1511
GlyphClass: 2
Flags: W
AnchorPoint: "Anchor-1" 756 1490 basechar 0
AnchorPoint: "Anchor-0" 756 0 basechar 0
LayerCount: 2
Fore
SplineSet
-21 -418 m 1,0,-1
 -21 -334 l 1,1,2
 -4 -335 -4 -335 18 -335.5 c 128,-1,3
 40 -336 40 -336 53 -336 c 0,4,5
 126 -336 126 -336 157 -304.5 c 128,-1,6
 188 -273 188 -273 188 -200 c 2,7,-1
 188 128 l 1,8,-1
 280 128 l 1,9,-1
 280 -203 l 2,10,11
 280 -312 280 -312 225.5 -365.5 c 128,-1,12
 171 -419 171 -419 63 -419 c 0,13,14
 43 -419 43 -419 19.5 -419 c 128,-1,15
 -4 -419 -4 -419 -21 -418 c 1,0,-1
188 0 m 1,16,-1
 188 1490 l 1,17,-1
 290 1490 l 1,18,-1
 1042 416 l 2,19,20
 1075 370 1075 370 1110 317.5 c 128,-1,21
 1145 265 1145 265 1182 208 c 128,-1,22
 1219 151 1219 151 1255 94 c 1,23,-1
 1237 88 l 1,24,25
 1235 145 1235 145 1233.5 204.5 c 128,-1,26
 1232 264 1232 264 1231.5 320.5 c 128,-1,27
 1231 377 1231 377 1231 423 c 2,28,-1
 1231 1490 l 1,29,-1
 1323 1490 l 1,30,-1
 1323 0 l 1,31,-1
 1220 0 l 1,32,-1
 492 1038 l 2,33,34
 458 1088 458 1088 420.5 1143.5 c 128,-1,35
 383 1199 383 1199 342 1261.5 c 128,-1,36
 301 1324 301 1324 254 1397 c 1,37,-1
 274 1405 l 1,38,39
 276 1332 276 1332 277.5 1266.5 c 128,-1,40
 279 1201 279 1201 280 1143.5 c 128,-1,41
 281 1086 281 1086 281 1038 c 2,42,-1
 281 0 l 1,43,-1
 188 0 l 1,16,-1
EndSplineSet
Position2: "'cpsp' Capital Spacing in Latin lookup 0 subtable" dx=0 dy=0 dh=0 dv=0
EndChar

StartChar: Eng
Encoding: 330 330 312
Width: 1511
GlyphClass: 2
Flags: W
AnchorPoint: "Anchor-1" 756 1490 basechar 0
AnchorPoint: "Anchor-0" 756 0 basechar 0
LayerCount: 2
Fore
SplineSet
1023 -418 m 1,0,-1
 1023 -334 l 1,1,2
 1040 -335 1040 -335 1061.5 -335.5 c 128,-1,3
 1083 -336 1083 -336 1096 -336 c 0,4,5
 1170 -336 1170 -336 1201 -304.5 c 128,-1,6
 1232 -273 1232 -273 1232 -200 c 2,7,-1
 1232 128 l 1,8,-1
 1324 128 l 1,9,-1
 1324 -203 l 2,10,11
 1324 -312 1324 -312 1269.5 -365.5 c 128,-1,12
 1215 -419 1215 -419 1106 -419 c 0,13,14
 1087 -419 1087 -419 1063.5 -419 c 128,-1,15
 1040 -419 1040 -419 1023 -418 c 1,0,-1
188 0 m 1,16,-1
 188 1490 l 1,17,-1
 290 1490 l 1,18,-1
 1042 416 l 2,19,20
 1075 370 1075 370 1110 317.5 c 128,-1,21
 1145 265 1145 265 1182 208 c 128,-1,22
 1219 151 1219 151 1255 94 c 1,23,-1
 1237 88 l 1,24,25
 1235 145 1235 145 1233.5 204.5 c 128,-1,26
 1232 264 1232 264 1231.5 320.5 c 128,-1,27
 1231 377 1231 377 1231 423 c 2,28,-1
 1231 1490 l 1,29,-1
 1323 1490 l 1,30,-1
 1323 0 l 1,31,-1
 1220 0 l 1,32,-1
 492 1038 l 2,33,34
 458 1088 458 1088 420.5 1143.5 c 128,-1,35
 383 1199 383 1199 342 1261.5 c 128,-1,36
 301 1324 301 1324 254 1397 c 1,37,-1
 274 1405 l 1,38,39
 276 1332 276 1332 277.5 1266.5 c 128,-1,40
 279 1201 279 1201 280 1143.5 c 128,-1,41
 281 1086 281 1086 281 1038 c 2,42,-1
 281 0 l 1,43,-1
 188 0 l 1,16,-1
EndSplineSet
Position2: "'cpsp' Capital Spacing in Latin lookup 0 subtable" dx=0 dy=0 dh=0 dv=0
EndChar

StartChar: uni0418
Encoding: 1048 1048 313
Width: 1511
GlyphClass: 2
Flags: W
AnchorPoint: "Anchor-1" 757 1490 basechar 0
AnchorPoint: "Anchor-0" 755 0 basechar 0
LayerCount: 2
Fore
SplineSet
1323 0 m 1,0,-1
 1230 0 l 1,1,-1
 1230 1038 l 2,2,3
 1230 1086 1230 1086 1231 1143.5 c 128,-1,4
 1232 1201 1232 1201 1233.5 1266.5 c 128,-1,5
 1235 1332 1235 1332 1237 1405 c 1,6,-1
 1257 1397 l 1,7,8
 1210 1324 1210 1324 1169 1261.5 c 128,-1,9
 1128 1199 1128 1199 1091 1143.5 c 128,-1,10
 1054 1088 1054 1088 1019 1038 c 2,11,-1
 291 0 l 1,12,-1
 188 0 l 1,13,-1
 188 1490 l 1,14,-1
 280 1490 l 1,15,-1
 280 423 l 2,16,17
 280 377 280 377 279.5 320.5 c 128,-1,18
 279 264 279 264 277.5 204.5 c 128,-1,19
 276 145 276 145 274 88 c 1,20,-1
 256 94 l 1,21,22
 293 151 293 151 330 208 c 128,-1,23
 367 265 367 265 402 317.5 c 128,-1,24
 437 370 437 370 469 416 c 2,25,-1
 1221 1490 l 1,26,-1
 1323 1490 l 1,27,-1
 1323 0 l 1,0,-1
EndSplineSet
Position2: "'cpsp' Capital Spacing in Latin lookup 0 subtable" dx=0 dy=0 dh=0 dv=0
EndChar

StartChar: O
Encoding: 79 79 322
Width: 1494
GlyphClass: 2
Flags: W
AnchorPoint: "Anchor-4" 1381 744 basechar 0
AnchorPoint: "Anchor-1" 749 1490 basechar 0
AnchorPoint: "Anchor-0" 749 0 basechar 0
LayerCount: 2
Fore
SplineSet
749 -19 m 0,0,1
 561 -19 561 -19 417.5 77 c 128,-1,2
 274 173 274 173 193.5 345.5 c 128,-1,3
 113 518 113 518 113 744 c 0,4,5
 113 973 113 973 193.5 1145 c 128,-1,6
 274 1317 274 1317 417.5 1413 c 128,-1,7
 561 1509 561 1509 749 1509 c 0,8,9
 935 1509 935 1509 1078 1413 c 128,-1,10
 1221 1317 1221 1317 1301 1145 c 128,-1,11
 1381 973 1381 973 1381 744 c 0,12,13
 1381 517 1381 517 1301 345 c 128,-1,14
 1221 173 1221 173 1078 77 c 128,-1,15
 935 -19 935 -19 749 -19 c 0,0,1
749 69 m 0,16,17
 906 69 906 69 1028 151.5 c 128,-1,18
 1150 234 1150 234 1220.5 386.5 c 128,-1,19
 1291 539 1291 539 1291 744 c 0,20,21
 1291 951 1291 951 1220.5 1103 c 128,-1,22
 1150 1255 1150 1255 1028 1338 c 128,-1,23
 906 1421 906 1421 749 1421 c 0,24,25
 590 1421 590 1421 467.5 1339 c 128,-1,26
 345 1257 345 1257 275 1105 c 128,-1,27
 205 953 205 953 205 744 c 0,28,29
 205 540 205 540 274 388 c 128,-1,30
 343 236 343 236 466 152.5 c 128,-1,31
 589 69 589 69 749 69 c 0,16,17
EndSplineSet
Substitution2: "'ss06' Style Set 6 in Latin lookup 52 subtable" O.squared
Substitution2: "'ss05' Style Set 5 in Latin lookup 51 subtable" uni24C4
Substitution2: "Single Substitution lookup 44 subtable" ordmasculine
Substitution2: "'aalt' Access All Alternates in Latin lookup 0 subtable" ordmasculine
Position2: "'cpsp' Capital Spacing in Latin lookup 0 subtable" dx=0 dy=0 dh=0 dv=0
EndChar

StartChar: Ohorn
Encoding: 416 416 326
Width: 1493
GlyphClass: 2
Flags: W
AnchorPoint: "Anchor-4" 1381 744 basechar 0
AnchorPoint: "Anchor-1" 749 1490 basechar 0
AnchorPoint: "Anchor-0" 749 0 basechar 0
LayerCount: 2
Fore
SplineSet
747 1439 m 1,0,-1
 747 1511 l 1,1,2
 808 1511 808 1511 848.5 1508 c 128,-1,3
 889 1505 889 1505 933.5 1501 c 128,-1,4
 978 1497 978 1497 1048 1493.5 c 128,-1,5
 1118 1490 1118 1490 1236 1490 c 0,6,7
 1293 1490 1293 1490 1293 1547 c 2,8,-1
 1293 1714 l 1,9,-1
 1380 1714 l 1,10,-1
 1380 1551 l 2,11,12
 1380 1483 1380 1483 1345 1447.5 c 128,-1,13
 1310 1412 1310 1412 1242 1412 c 256,14,15
 1174 1412 1174 1412 1119.5 1416.5 c 128,-1,16
 1065 1421 1065 1421 1011.5 1426 c 128,-1,17
 958 1431 958 1431 895 1435 c 128,-1,18
 832 1439 832 1439 747 1439 c 1,0,-1
749 -19 m 0,19,20
 561 -19 561 -19 417.5 77 c 128,-1,21
 274 173 274 173 193.5 345.5 c 128,-1,22
 113 518 113 518 113 744 c 0,23,24
 113 973 113 973 193.5 1145 c 128,-1,25
 274 1317 274 1317 417.5 1413 c 128,-1,26
 561 1509 561 1509 749 1509 c 0,27,28
 935 1509 935 1509 1078 1413 c 128,-1,29
 1221 1317 1221 1317 1301 1145 c 128,-1,30
 1381 973 1381 973 1381 744 c 0,31,32
 1381 517 1381 517 1301 345 c 128,-1,33
 1221 173 1221 173 1078 77 c 128,-1,34
 935 -19 935 -19 749 -19 c 0,19,20
749 69 m 0,35,36
 906 69 906 69 1028 151.5 c 128,-1,37
 1150 234 1150 234 1220.5 386.5 c 128,-1,38
 1291 539 1291 539 1291 744 c 0,39,40
 1291 951 1291 951 1220.5 1103 c 128,-1,41
 1150 1255 1150 1255 1028 1338 c 128,-1,42
 906 1421 906 1421 749 1421 c 0,43,44
 590 1421 590 1421 467.5 1339 c 128,-1,45
 345 1257 345 1257 275 1105 c 128,-1,46
 205 953 205 953 205 744 c 0,47,48
 205 540 205 540 274 388 c 128,-1,49
 343 236 343 236 466 152.5 c 128,-1,50
 589 69 589 69 749 69 c 0,35,36
EndSplineSet
Position2: "'cpsp' Capital Spacing in Latin lookup 0 subtable" dx=0 dy=0 dh=0 dv=0
EndChar

StartChar: uni03F4
Encoding: 1012 1012 368
Width: 1494
GlyphClass: 2
Flags: W
AnchorPoint: "Anchor-4" 1381 744 basechar 0
AnchorPoint: "Anchor-1" 749 1490 basechar 0
AnchorPoint: "Anchor-0" 749 0 basechar 0
LayerCount: 2
Fore
SplineSet
1305 787 m 1,0,-1
 1305 703 l 1,1,-1
 181 703 l 1,2,-1
 181 787 l 1,3,-1
 1305 787 l 1,0,-1
749 -19 m 0,4,5
 561 -19 561 -19 417.5 77 c 128,-1,6
 274 173 274 173 193.5 345.5 c 128,-1,7
 113 518 113 518 113 744 c 0,8,9
 113 973 113 973 193.5 1145 c 128,-1,10
 274 1317 274 1317 417.5 1413 c 128,-1,11
 561 1509 561 1509 749 1509 c 0,12,13
 935 1509 935 1509 1078 1413 c 128,-1,14
 1221 1317 1221 1317 1301 1145 c 128,-1,15
 1381 973 1381 973 1381 744 c 0,16,17
 1381 517 1381 517 1301 345 c 128,-1,18
 1221 173 1221 173 1078 77 c 128,-1,19
 935 -19 935 -19 749 -19 c 0,4,5
749 69 m 0,20,21
 906 69 906 69 1028 151.5 c 128,-1,22
 1150 234 1150 234 1220.5 386.5 c 128,-1,23
 1291 539 1291 539 1291 744 c 0,24,25
 1291 951 1291 951 1220.5 1103 c 128,-1,26
 1150 1255 1150 1255 1028 1338 c 128,-1,27
 906 1421 906 1421 749 1421 c 0,28,29
 590 1421 590 1421 467.5 1339 c 128,-1,30
 345 1257 345 1257 275 1105 c 128,-1,31
 205 953 205 953 205 744 c 0,32,33
 205 540 205 540 274 388 c 128,-1,34
 343 236 343 236 466 152.5 c 128,-1,35
 589 69 589 69 749 69 c 0,20,21
EndSplineSet
Position2: "'cpsp' Capital Spacing in Latin lookup 0 subtable" dx=0 dy=0 dh=0 dv=0
EndChar

StartChar: OE
Encoding: 338 338 375
Width: 1922
GlyphClass: 2
Flags: W
AnchorPoint: "Anchor-4" 1814 0 basechar 0
AnchorPoint: "Anchor-3" 1372 0 basechar 0
AnchorPoint: "Anchor-1" 1370 1490 basechar 0
AnchorPoint: "Anchor-0" 1370 0 basechar 0
LayerCount: 2
Fore
SplineSet
755 0 m 2,0,1
 561 0 561 0 417 93.5 c 128,-1,2
 273 187 273 187 193 355 c 128,-1,3
 113 523 113 523 113 745 c 0,4,5
 113 969 113 969 193 1136.5 c 128,-1,6
 273 1304 273 1304 416.5 1397 c 128,-1,7
 560 1490 560 1490 752 1490 c 2,8,-1
 970 1490 l 1,9,-1
 970 1403 l 1,10,-1
 754 1403 l 2,11,12
 587 1404 587 1404 464 1323 c 128,-1,13
 341 1242 341 1242 272.5 1093.5 c 128,-1,14
 204 945 204 945 204 745 c 0,15,16
 204 548 204 548 272 400 c 128,-1,17
 340 252 340 252 464 168.5 c 128,-1,18
 588 85 588 85 757 85 c 2,19,-1
 968 85 l 1,20,-1
 968 0 l 1,21,-1
 755 0 l 2,0,1
927 0 m 1,22,-1
 927 1490 l 1,23,-1
 1805 1490 l 1,24,-1
 1805 1405 l 1,25,-1
 1020 1405 l 1,26,-1
 1020 798 l 1,27,-1
 1748 798 l 1,28,-1
 1748 713 l 1,29,-1
 1020 713 l 1,30,-1
 1020 85 l 1,31,-1
 1814 85 l 1,32,-1
 1814 0 l 1,33,-1
 927 0 l 1,22,-1
EndSplineSet
Substitution2: "'c2sc' Capitals to Small Capitals in Latin lookup 68 subtable" oe.sc
Substitution2: "'aalt' Access All Alternates in Latin lookup 0 subtable" oe.sc
Position2: "'cpsp' Capital Spacing in Latin lookup 0 subtable" dx=0 dy=0 dh=0 dv=0
EndChar

StartChar: P
Encoding: 80 80 376
Width: 1216
GlyphClass: 2
Flags: W
AnchorPoint: "Anchor-1" 615 1490 basechar 0
LayerCount: 2
Fore
SplineSet
188 0 m 1,0,-1
 188 1490 l 1,1,-1
 670 1490 l 2,2,3
 808 1490 808 1490 910 1434.5 c 128,-1,4
 1012 1379 1012 1379 1067.5 1279 c 128,-1,5
 1123 1179 1123 1179 1123 1048 c 0,6,7
 1123 919 1123 919 1067 820 c 128,-1,8
 1011 721 1011 721 909.5 664.5 c 128,-1,9
 808 608 808 608 670 608 c 2,10,-1
 244 608 l 1,11,-1
 244 694 l 1,12,-1
 668 694 l 2,13,14
 779 694 779 694 860.5 738.5 c 128,-1,15
 942 783 942 783 987 863 c 128,-1,16
 1032 943 1032 943 1032 1048 c 0,17,18
 1032 1155 1032 1155 987 1235 c 128,-1,19
 942 1315 942 1315 860.5 1360.5 c 128,-1,20
 779 1406 779 1406 667 1406 c 2,21,-1
 280 1406 l 1,22,-1
 280 0 l 1,23,-1
 188 0 l 1,0,-1
EndSplineSet
Substitution2: "'ss06' Style Set 6 in Latin lookup 52 subtable" P.squared
Substitution2: "'ss05' Style Set 5 in Latin lookup 51 subtable" uni24C5
Position2: "'cpsp' Capital Spacing in Latin lookup 0 subtable" dx=0 dy=0 dh=0 dv=0
EndChar

StartChar: uni048E
Encoding: 1166 1166 379
Width: 1211
GlyphClass: 2
Flags: W
AnchorPoint: "Anchor-1" 610 1490 basechar 0
LayerCount: 2
Fore
SplineSet
802 933 m 1,0,-1
 1059 539 l 1,1,-1
 989 493 l 1,2,-1
 731 888 l 1,3,-1
 802 933 l 1,0,-1
183 0 m 1,4,-1
 183 1490 l 1,5,-1
 665 1490 l 2,6,7
 803 1490 803 1490 904.5 1434.5 c 128,-1,8
 1006 1379 1006 1379 1062 1279 c 128,-1,9
 1118 1179 1118 1179 1118 1048 c 0,10,11
 1118 919 1118 919 1062 820 c 128,-1,12
 1006 721 1006 721 904.5 664.5 c 128,-1,13
 803 608 803 608 664 608 c 2,14,-1
 239 608 l 1,15,-1
 239 694 l 1,16,-1
 662 694 l 2,17,18
 774 694 774 694 855.5 738.5 c 128,-1,19
 937 783 937 783 982 863 c 128,-1,20
 1027 943 1027 943 1027 1048 c 0,21,22
 1027 1155 1027 1155 982 1235 c 128,-1,23
 937 1315 937 1315 855.5 1360.5 c 128,-1,24
 774 1406 774 1406 662 1406 c 2,25,-1
 275 1406 l 1,26,-1
 275 0 l 1,27,-1
 183 0 l 1,4,-1
EndSplineSet
Position2: "'cpsp' Capital Spacing in Latin lookup 0 subtable" dx=0 dy=0 dh=0 dv=0
EndChar

StartChar: uni01A4
Encoding: 420 420 380
Width: 1416
GlyphClass: 2
Flags: W
AnchorPoint: "Anchor-1" 815 1490 basechar 0
LayerCount: 2
Fore
SplineSet
53 1106 m 1,0,-1
 53 1257 l 2,1,2
 53 1373 53 1373 112 1431.5 c 128,-1,3
 171 1490 171 1490 283 1490 c 2,4,-1
 388 1490 l 1,5,-1
 388 1406 l 1,6,-1
 286 1406 l 2,7,8
 211 1406 211 1406 176 1369.5 c 128,-1,9
 141 1333 141 1333 141 1256 c 2,10,-1
 141 1106 l 1,11,-1
 53 1106 l 1,0,-1
388 0 m 1,12,-1
 388 1490 l 1,13,-1
 870 1490 l 2,14,15
 1008 1490 1008 1490 1110 1434.5 c 128,-1,16
 1212 1379 1212 1379 1267.5 1279 c 128,-1,17
 1323 1179 1323 1179 1323 1048 c 0,18,19
 1323 919 1323 919 1267 820 c 128,-1,20
 1211 721 1211 721 1109.5 664.5 c 128,-1,21
 1008 608 1008 608 870 608 c 2,22,-1
 444 608 l 1,23,-1
 444 694 l 1,24,-1
 868 694 l 2,25,26
 979 694 979 694 1061 738.5 c 128,-1,27
 1143 783 1143 783 1187.5 863 c 128,-1,28
 1232 943 1232 943 1232 1048 c 0,29,30
 1232 1155 1232 1155 1187.5 1235 c 128,-1,31
 1143 1315 1143 1315 1061 1360.5 c 128,-1,32
 979 1406 979 1406 867 1406 c 2,33,-1
 480 1406 l 1,34,-1
 480 0 l 1,35,-1
 388 0 l 1,12,-1
EndSplineSet
Position2: "'cpsp' Capital Spacing in Latin lookup 0 subtable" dx=0 dy=0 dh=0 dv=0
EndChar

StartChar: Q
Encoding: 81 81 383
Width: 1494
GlyphClass: 2
Flags: W
AnchorPoint: "Anchor-4" 1381 744 basechar 0
AnchorPoint: "Anchor-1" 749 1490 basechar 0
AnchorPoint: "Anchor-0" 749 0 basechar 0
LayerCount: 2
Fore
SplineSet
763 466 m 1,0,-1
 868 466 l 1,1,-1
 1083 180 l 1,2,-1
 1104 153 l 1,3,-1
 1324 -140 l 1,4,-1
 1219 -140 l 1,5,-1
 1040 99 l 1,6,-1
 1019 126 l 1,7,-1
 763 466 l 1,0,-1
749 -19 m 0,8,9
 561 -19 561 -19 417.5 77 c 128,-1,10
 274 173 274 173 193.5 345.5 c 128,-1,11
 113 518 113 518 113 744 c 0,12,13
 113 973 113 973 193.5 1145 c 128,-1,14
 274 1317 274 1317 417.5 1413 c 128,-1,15
 561 1509 561 1509 749 1509 c 0,16,17
 935 1509 935 1509 1078 1413 c 128,-1,18
 1221 1317 1221 1317 1301 1145 c 128,-1,19
 1381 973 1381 973 1381 744 c 0,20,21
 1381 517 1381 517 1301 345 c 128,-1,22
 1221 173 1221 173 1078 77 c 128,-1,23
 935 -19 935 -19 749 -19 c 0,8,9
749 69 m 0,24,25
 906 69 906 69 1028 151.5 c 128,-1,26
 1150 234 1150 234 1220.5 386.5 c 128,-1,27
 1291 539 1291 539 1291 744 c 0,28,29
 1291 951 1291 951 1220.5 1103 c 128,-1,30
 1150 1255 1150 1255 1028 1338 c 128,-1,31
 906 1421 906 1421 749 1421 c 0,32,33
 590 1421 590 1421 467.5 1339 c 128,-1,34
 345 1257 345 1257 275 1105 c 128,-1,35
 205 953 205 953 205 744 c 0,36,37
 205 540 205 540 274 388 c 128,-1,38
 343 236 343 236 466 152.5 c 128,-1,39
 589 69 589 69 749 69 c 0,24,25
EndSplineSet
Substitution2: "'ss06' Style Set 6 in Latin lookup 52 subtable" Q.squared
Substitution2: "'ss05' Style Set 5 in Latin lookup 51 subtable" uni24C6
Position2: "'cpsp' Capital Spacing in Latin lookup 0 subtable" dx=0 dy=0 dh=0 dv=0
EndChar

StartChar: Q_rthook
Encoding: 586 586 384
Width: 1490
GlyphClass: 2
Flags: W
LayerCount: 2
Fore
SplineSet
1302 1490 m 1,0,-1
 1302 0 l 1,1,-1
 1213 0 l 1,2,-1
 1213 334 l 1,3,-1
 1207 334 l 1,4,5
 1146 162 1146 162 1024 70.5 c 128,-1,6
 902 -21 902 -21 735 -21 c 0,7,8
 597 -21 597 -21 483 35 c 128,-1,9
 369 91 369 91 286 193 c 128,-1,10
 203 295 203 295 158 436 c 128,-1,11
 113 577 113 577 113 746 c 256,12,13
 113 915 113 915 158.5 1055 c 128,-1,14
 204 1195 204 1195 288 1297.5 c 128,-1,15
 372 1400 372 1400 486.5 1455.5 c 128,-1,16
 601 1511 601 1511 740 1511 c 0,17,18
 906 1511 906 1511 1026.5 1420.5 c 128,-1,19
 1147 1330 1147 1330 1207 1158 c 1,20,-1
 1213 1158 l 1,21,-1
 1213 1490 l 1,22,-1
 1302 1490 l 1,0,-1
740 67 m 0,23,24
 892 67 892 67 998 150.5 c 128,-1,25
 1104 234 1104 234 1160 386.5 c 128,-1,26
 1216 539 1216 539 1216 746 c 0,27,28
 1216 951 1216 951 1159 1104 c 128,-1,29
 1102 1257 1102 1257 996 1340 c 128,-1,30
 890 1423 890 1423 741 1423 c 0,31,32
 582 1423 582 1423 461 1337 c 128,-1,33
 340 1251 340 1251 272.5 1098.5 c 128,-1,34
 205 946 205 946 205 746 c 0,35,36
 205 543 205 543 273 390 c 128,-1,37
 341 237 341 237 461.5 152 c 128,-1,38
 582 67 582 67 740 67 c 0,23,24
1431 -419 m 0,39,40
 1324 -419 1324 -419 1268.5 -365.5 c 128,-1,41
 1213 -312 1213 -312 1213 -203 c 2,42,-1
 1213 0 l 1,43,-1
 1302 0 l 1,44,-1
 1302 -203 l 2,45,46
 1302 -276 1302 -276 1334.5 -307 c 128,-1,47
 1367 -338 1367 -338 1439 -338 c 0,48,49
 1452 -338 1452 -338 1474 -338 c 128,-1,50
 1496 -338 1496 -338 1514 -338 c 1,51,-1
 1514 -418 l 1,52,53
 1497 -419 1497 -419 1475 -419 c 128,-1,54
 1453 -419 1453 -419 1431 -419 c 0,39,40
EndSplineSet
Position2: "'cpsp' Capital Spacing in Latin lookup 0 subtable" dx=0 dy=0 dh=0 dv=0
EndChar

StartChar: R
Encoding: 82 82 385
Width: 1251
GlyphClass: 2
Flags: W
AnchorPoint: "Anchor-1" 624 1490 basechar 0
AnchorPoint: "Anchor-0" 635 0 basechar 0
LayerCount: 2
Fore
SplineSet
188 0 m 1,0,-1
 188 1490 l 1,1,-1
 674 1490 l 2,2,3
 812 1490 812 1490 913.5 1436 c 128,-1,4
 1015 1382 1015 1382 1071 1283.5 c 128,-1,5
 1127 1185 1127 1185 1127 1054 c 0,6,7
 1127 925 1127 925 1070.5 827.5 c 128,-1,8
 1014 730 1014 730 912 676.5 c 128,-1,9
 810 623 810 623 671 623 c 2,10,-1
 238 623 l 1,11,-1
 238 707 l 1,12,-1
 672 707 l 2,13,14
 783 707 783 707 864 750 c 128,-1,15
 945 793 945 793 989.5 871.5 c 128,-1,16
 1034 950 1034 950 1034 1054 c 0,17,18
 1034 1161 1034 1161 989.5 1239.5 c 128,-1,19
 945 1318 945 1318 863.5 1362 c 128,-1,20
 782 1406 782 1406 671 1406 c 2,21,-1
 280 1406 l 1,22,-1
 280 0 l 1,23,-1
 188 0 l 1,0,-1
1061 0 m 1,24,-1
 700 676 l 1,25,-1
 804 676 l 1,26,-1
 1168 0 l 1,27,-1
 1061 0 l 1,24,-1
EndSplineSet
Substitution2: "'c2sc' Capitals to Small Capitals in Latin lookup 68 subtable" r.sc
Substitution2: "'ss06' Style Set 6 in Latin lookup 52 subtable" R.squared
Substitution2: "'ss05' Style Set 5 in Latin lookup 51 subtable" uni24C7
Substitution2: "'aalt' Access All Alternates in Latin lookup 0 subtable" r.sc
Position2: "'cpsp' Capital Spacing in Latin lookup 0 subtable" dx=0 dy=0 dh=0 dv=0
EndChar

StartChar: uni211F
Encoding: 8479 8479 395
Width: 1225
GlyphClass: 2
Flags: W
AnchorPoint: "Anchor-1" 620 1490 basechar 0
AnchorPoint: "Anchor-0" 631 0 basechar 0
LayerCount: 2
Fore
SplineSet
958 1664 m 1,0,-1
 301 -336 l 1,1,-1
 232 -321 l 1,2,-1
 872 1622 l 1,3,-1
 541 1739 l 1,4,-1
 567 1803 l 1,5,-1
 958 1664 l 1,0,-1
184 0 m 1,6,-1
 184 1490 l 1,7,-1
 670 1490 l 2,8,9
 808 1490 808 1490 909.5 1436 c 128,-1,10
 1011 1382 1011 1382 1067 1283.5 c 128,-1,11
 1123 1185 1123 1185 1123 1054 c 0,12,13
 1123 925 1123 925 1066.5 827.5 c 128,-1,14
 1010 730 1010 730 908 676.5 c 128,-1,15
 806 623 806 623 667 623 c 2,16,-1
 234 623 l 1,17,-1
 234 707 l 1,18,-1
 668 707 l 2,19,20
 779 707 779 707 860 750 c 128,-1,21
 941 793 941 793 985.5 871.5 c 128,-1,22
 1030 950 1030 950 1030 1054 c 0,23,24
 1030 1161 1030 1161 985.5 1239.5 c 128,-1,25
 941 1318 941 1318 859.5 1362 c 128,-1,26
 778 1406 778 1406 667 1406 c 2,27,-1
 276 1406 l 1,28,-1
 276 0 l 1,29,-1
 184 0 l 1,6,-1
1057 0 m 1,30,-1
 696 676 l 1,31,-1
 800 676 l 1,32,-1
 1164 0 l 1,33,-1
 1057 0 l 1,30,-1
EndSplineSet
EndChar

StartChar: Rx
Encoding: 8478 8478 396
Width: 1214
Flags: W
LayerCount: 2
Fore
SplineSet
188 1490 m 1,0,-1
 647 1490 l 2,1,2
 790 1490 790 1490 890.5 1434 c 128,-1,3
 991 1378 991 1378 1045 1280 c 128,-1,4
 1099 1182 1099 1182 1099 1053 c 0,5,6
 1099 932 1099 932 1049 839 c 128,-1,7
 999 746 999 746 909 691 c 128,-1,8
 819 636 819 636 699 627 c 1,9,-1
 672 620 l 1,10,-1
 252 620 l 1,11,-1
 252 710 l 1,12,-1
 641 710 l 2,13,14
 759 709 759 709 840.5 752 c 128,-1,15
 922 795 922 795 964.5 873 c 128,-1,16
 1007 951 1007 951 1007 1054 c 0,17,18
 1007 1154 1007 1154 966 1232.5 c 128,-1,19
 925 1311 925 1311 845 1357.5 c 128,-1,20
 765 1404 765 1404 647 1404 c 2,21,-1
 282 1404 l 1,22,-1
 282 0 l 1,23,-1
 188 0 l 1,24,-1
 188 1490 l 1,0,-1
1092 0 m 1,25,-1
 604 671 l 1,26,-1
 709 671 l 1,27,-1
 1202 0 l 1,28,-1
 1092 0 l 1,25,-1
713 0 m 1,29,-1
 604 0 l 1,30,-1
 1095 672 l 1,31,-1
 1201 672 l 1,32,-1
 713 0 l 1,29,-1
EndSplineSet
EndChar

StartChar: uni024C
Encoding: 588 588 397
Width: 1235
GlyphClass: 2
Flags: W
AnchorPoint: "Anchor-1" 631 1490 basechar 0
AnchorPoint: "Anchor-0" 643 0 basechar 0
LayerCount: 2
Fore
SplineSet
240 622 m 1,0,-1
 3 622 l 1,1,-1
 3 708 l 1,2,-1
 240 708 l 1,3,-1
 240 622 l 1,0,-1
195 0 m 1,4,-1
 195 1490 l 1,5,-1
 681 1490 l 2,6,7
 819 1490 819 1490 920.5 1436 c 128,-1,8
 1022 1382 1022 1382 1078 1283.5 c 128,-1,9
 1134 1185 1134 1185 1134 1054 c 0,10,11
 1134 925 1134 925 1078 827.5 c 128,-1,12
 1022 730 1022 730 919.5 676.5 c 128,-1,13
 817 623 817 623 678 623 c 2,14,-1
 246 623 l 1,15,-1
 246 707 l 1,16,-1
 679 707 l 2,17,18
 790 707 790 707 871.5 750 c 128,-1,19
 953 793 953 793 997.5 871.5 c 128,-1,20
 1042 950 1042 950 1042 1054 c 0,21,22
 1042 1161 1042 1161 997.5 1239.5 c 128,-1,23
 953 1318 953 1318 871.5 1362 c 128,-1,24
 790 1406 790 1406 679 1406 c 2,25,-1
 288 1406 l 1,26,-1
 288 0 l 1,27,-1
 195 0 l 1,4,-1
1069 0 m 1,28,-1
 707 676 l 1,29,-1
 812 676 l 1,30,-1
 1175 0 l 1,31,-1
 1069 0 l 1,28,-1
EndSplineSet
Position2: "'cpsp' Capital Spacing in Latin lookup 0 subtable" dx=0 dy=0 dh=0 dv=0
EndChar

StartChar: S
Encoding: 83 83 398
Width: 1222
GlyphClass: 2
Flags: W
AnchorPoint: "Anchor-3" 613 0 basechar 0
AnchorPoint: "Anchor-1" 611 1490 basechar 0
AnchorPoint: "Anchor-0" 613 0 basechar 0
LayerCount: 2
Fore
SplineSet
610 -24 m 0,0,1
 464 -24 464 -24 355.5 27 c 128,-1,2
 247 78 247 78 185 168 c 128,-1,3
 123 258 123 258 116 378 c 1,4,-1
 211 378 l 1,5,6
 217 282 217 282 267.5 211 c 128,-1,7
 318 140 318 140 406.5 101.5 c 128,-1,8
 495 63 495 63 610 63 c 0,9,10
 731 63 731 63 822 103.5 c 128,-1,11
 913 144 913 144 964 217.5 c 128,-1,12
 1015 291 1015 291 1015 388 c 0,13,14
 1015 464 1015 464 979.5 519.5 c 128,-1,15
 944 575 944 575 873 616.5 c 128,-1,16
 802 658 802 658 690 691 c 2,17,-1
 519 741 l 2,18,19
 334 796 334 796 242.5 888 c 128,-1,20
 151 980 151 980 151 1116 c 0,21,22
 151 1231 151 1231 211.5 1320.5 c 128,-1,23
 272 1410 272 1410 377.5 1461 c 128,-1,24
 483 1512 483 1512 617 1512 c 0,25,26
 752 1512 752 1512 855 1460.5 c 128,-1,27
 958 1409 958 1409 1017 1317 c 128,-1,28
 1076 1225 1076 1225 1082 1106 c 1,29,-1
 991 1106 l 1,30,31
 981 1250 981 1250 879.5 1338.5 c 128,-1,32
 778 1427 778 1427 615 1427 c 0,33,34
 507 1427 507 1427 422.5 1387 c 128,-1,35
 338 1347 338 1347 290.5 1277.5 c 128,-1,36
 243 1208 243 1208 243 1119 c 0,37,38
 243 1046 243 1046 278.5 990.5 c 128,-1,39
 314 935 314 935 382.5 895 c 128,-1,40
 451 855 451 855 549 826 c 2,41,-1
 715 777 l 2,42,43
 808 750 808 750 880 714.5 c 128,-1,44
 952 679 952 679 1003 632 c 128,-1,45
 1054 585 1054 585 1080 524.5 c 128,-1,46
 1106 464 1106 464 1106 388 c 0,47,48
 1106 270 1106 270 1044.5 176.5 c 128,-1,49
 983 83 983 83 872 29.5 c 128,-1,50
 761 -24 761 -24 610 -24 c 0,0,1
EndSplineSet
Substitution2: "'ss06' Style Set 6 in Latin lookup 52 subtable" S.squared
Substitution2: "'ss05' Style Set 5 in Latin lookup 51 subtable" uni24C8
Position2: "'cpsp' Capital Spacing in Latin lookup 0 subtable" dx=0 dy=0 dh=0 dv=0
EndChar

StartChar: uni01A7
Encoding: 423 423 410
Width: 1222
GlyphClass: 2
Flags: W
AnchorPoint: "Anchor-3" 610 0 basechar 0
AnchorPoint: "Anchor-1" 611 1490 basechar 0
AnchorPoint: "Anchor-0" 610 0 basechar 0
LayerCount: 2
Fore
SplineSet
613 -24 m 0,0,1
 463 -24 463 -24 351 29.5 c 128,-1,2
 239 83 239 83 177.5 176.5 c 128,-1,3
 116 270 116 270 116 388 c 0,4,5
 116 464 116 464 143 524.5 c 128,-1,6
 170 585 170 585 220 632 c 128,-1,7
 270 679 270 679 343 714.5 c 128,-1,8
 416 750 416 750 507 777 c 2,9,-1
 673 826 l 2,10,11
 773 855 773 855 841 895 c 128,-1,12
 909 935 909 935 945 990.5 c 128,-1,13
 981 1046 981 1046 981 1119 c 0,14,15
 981 1208 981 1208 932.5 1277.5 c 128,-1,16
 884 1347 884 1347 800 1387 c 128,-1,17
 716 1427 716 1427 607 1427 c 0,18,19
 445 1427 445 1427 344 1338.5 c 128,-1,20
 243 1250 243 1250 231 1106 c 1,21,-1
 140 1106 l 1,22,23
 147 1225 147 1225 206.5 1317 c 128,-1,24
 266 1409 266 1409 368 1460.5 c 128,-1,25
 470 1512 470 1512 605 1512 c 256,26,27
 740 1512 740 1512 845.5 1461 c 128,-1,28
 951 1410 951 1410 1011 1320.5 c 128,-1,29
 1071 1231 1071 1231 1071 1116 c 0,30,31
 1071 980 1071 980 979.5 888 c 128,-1,32
 888 796 888 796 703 741 c 2,33,-1
 534 691 l 2,34,35
 423 658 423 658 350.5 616.5 c 128,-1,36
 278 575 278 575 243.5 519.5 c 128,-1,37
 209 464 209 464 209 388 c 0,38,39
 209 291 209 291 260 217.5 c 128,-1,40
 311 144 311 144 402 103.5 c 128,-1,41
 493 63 493 63 613 63 c 0,42,43
 730 63 730 63 817 101.5 c 128,-1,44
 904 140 904 140 955 211 c 128,-1,45
 1006 282 1006 282 1013 378 c 1,46,-1
 1106 378 l 1,47,48
 1100 258 1100 258 1038 168 c 128,-1,49
 976 78 976 78 868 27 c 128,-1,50
 760 -24 760 -24 613 -24 c 0,0,1
EndSplineSet
Position2: "'cpsp' Capital Spacing in Latin lookup 0 subtable" dx=0 dy=0 dh=0 dv=0
EndChar

StartChar: uni1E9E
Encoding: 7838 7838 411
Width: 1246
Flags: W
LayerCount: 2
Fore
SplineSet
188 0 m 1,0,-1
 188 1077 l 2,1,2
 189 1213 189 1213 237 1310.5 c 128,-1,3
 285 1408 285 1408 375.5 1459 c 128,-1,4
 466 1510 466 1510 594 1510 c 0,5,6
 678 1510 678 1510 754 1486.5 c 128,-1,7
 830 1463 830 1463 897 1420 c 128,-1,8
 964 1377 964 1377 1018 1319 c 1,9,-1
 659 819 l 1,10,11
 812 816 812 816 916.5 767.5 c 128,-1,12
 1021 719 1021 719 1075.5 630.5 c 128,-1,13
 1130 542 1130 542 1130 416 c 0,14,15
 1130 283 1130 283 1074 189 c 128,-1,16
 1018 95 1018 95 915.5 44 c 128,-1,17
 813 -7 813 -7 676 -7 c 0,18,19
 619 -7 619 -7 563.5 3 c 128,-1,20
 508 13 508 13 454 32 c 1,21,-1
 485 115 l 1,22,23
 523 100 523 100 572.5 89.5 c 128,-1,24
 622 79 622 79 683 79 c 0,25,26
 845 79 845 79 939 169.5 c 128,-1,27
 1033 260 1033 260 1033 414 c 0,28,29
 1033 507 1033 507 1000.5 569.5 c 128,-1,30
 968 632 968 632 911.5 669.5 c 128,-1,31
 855 707 855 707 779.5 722.5 c 128,-1,32
 704 738 704 738 618 738 c 2,33,-1
 556 738 l 1,34,-1
 556 822 l 1,35,-1
 900 1307 l 1,36,37
 836 1359 836 1359 757.5 1392.5 c 128,-1,38
 679 1426 679 1426 592 1426 c 0,39,40
 488 1426 488 1426 418.5 1380 c 128,-1,41
 349 1334 349 1334 315.5 1253.5 c 128,-1,42
 282 1173 282 1173 282 1069 c 2,43,-1
 282 0 l 1,44,-1
 188 0 l 1,0,-1
EndSplineSet
Position2: "'cpsp' Capital Spacing in Latin lookup 0 subtable" dx=0 dy=0 dh=0 dv=0
EndChar

StartChar: T
Encoding: 84 84 412
Width: 1251
GlyphClass: 2
Flags: W
AnchorPoint: "Anchor-3" 626 0 basechar 0
AnchorPoint: "Anchor-1" 625 1490 basechar 0
AnchorPoint: "Anchor-0" 626 0 basechar 0
LayerCount: 2
Fore
SplineSet
87 1405 m 1,0,-1
 87 1490 l 1,1,-1
 1164 1490 l 1,2,-1
 1164 1405 l 1,3,-1
 673 1405 l 1,4,-1
 673 0 l 1,5,-1
 581 0 l 1,6,-1
 581 1405 l 1,7,-1
 87 1405 l 1,0,-1
EndSplineSet
Substitution2: "'c2sc' Capitals to Small Capitals in Latin lookup 68 subtable" t.sc
Substitution2: "'ss06' Style Set 6 in Latin lookup 52 subtable" T.squared
Substitution2: "'ss05' Style Set 5 in Latin lookup 51 subtable" uni24C9
Substitution2: "'aalt' Access All Alternates in Latin lookup 0 subtable" t.sc
Position2: "'cpsp' Capital Spacing in Latin lookup 0 subtable" dx=0 dy=0 dh=0 dv=0
EndChar

StartChar: uni01AC
Encoding: 428 428 420
Width: 1232
GlyphClass: 2
Flags: W
AnchorPoint: "Anchor-1" 623 1490 basechar 0
LayerCount: 2
Fore
SplineSet
87 1106 m 1,0,-1
 87 1257 l 2,1,2
 87 1373 87 1373 146 1431.5 c 128,-1,3
 205 1490 205 1490 317 1490 c 2,4,-1
 422 1490 l 1,5,-1
 422 1406 l 1,6,-1
 320 1406 l 2,7,8
 245 1406 245 1406 210 1369.5 c 128,-1,9
 175 1333 175 1333 175 1256 c 2,10,-1
 175 1106 l 1,11,-1
 87 1106 l 1,0,-1
422 1406 m 1,12,-1
 422 1490 l 1,13,-1
 1145 1490 l 1,14,-1
 1145 1406 l 1,15,-1
 668 1406 l 1,16,-1
 668 0 l 1,17,-1
 576 0 l 1,18,-1
 576 1406 l 1,19,-1
 422 1406 l 1,12,-1
EndSplineSet
Position2: "'cpsp' Capital Spacing in Latin lookup 0 subtable" dx=0 dy=0 dh=0 dv=0
EndChar

StartChar: uni01AC.base
Encoding: 60940 60940 421
Width: 1222
GlyphClass: 2
Flags: W
AnchorPoint: "Anchor-1" 613 1490 basechar 0
LayerCount: 2
Fore
SplineSet
412 1406 m 1,0,-1
 412 1490 l 1,1,-1
 1135 1490 l 1,2,-1
 1135 1406 l 1,3,-1
 658 1406 l 1,4,-1
 658 0 l 1,5,-1
 566 0 l 1,6,-1
 566 1406 l 1,7,-1
 412 1406 l 1,0,-1
EndSplineSet
EndChar

StartChar: Trthook
Encoding: 430 430 422
Width: 1251
GlyphClass: 2
Flags: W
AnchorPoint: "Anchor-3" 626 0 basechar 0
AnchorPoint: "Anchor-1" 625 1490 basechar 0
AnchorPoint: "Anchor-0" 626 0 basechar 0
LayerCount: 2
Fore
SplineSet
799 -419 m 0,0,1
 690 -419 690 -419 635.5 -365.5 c 128,-1,2
 581 -312 581 -312 581 -203 c 2,3,-1
 581 157 l 1,4,-1
 673 157 l 1,5,-1
 673 -203 l 2,6,7
 673 -276 673 -276 705 -307 c 128,-1,8
 737 -338 737 -338 810 -338 c 0,9,10
 823 -338 823 -338 844.5 -337.5 c 128,-1,11
 866 -337 866 -337 884 -337 c 1,12,-1
 884 -418 l 1,13,14
 867 -419 867 -419 843.5 -419 c 128,-1,15
 820 -419 820 -419 799 -419 c 0,0,1
87 1405 m 1,16,-1
 87 1490 l 1,17,-1
 1164 1490 l 1,18,-1
 1164 1405 l 1,19,-1
 673 1405 l 1,20,-1
 673 0 l 1,21,-1
 581 0 l 1,22,-1
 581 1405 l 1,23,-1
 87 1405 l 1,16,-1
EndSplineSet
Position2: "'cpsp' Capital Spacing in Latin lookup 0 subtable" dx=0 dy=0 dh=0 dv=0
EndChar

StartChar: uni023E
Encoding: 574 574 423
Width: 1251
GlyphClass: 2
Flags: W
AnchorPoint: "Anchor-3" 626 0 basechar 0
AnchorPoint: "Anchor-1" 625 1490 basechar 0
AnchorPoint: "Anchor-0" 626 0 basechar 0
LayerCount: 2
Fore
SplineSet
220 -196 m 1,0,-1
 954 1685 l 1,1,-1
 1033 1685 l 1,2,-1
 299 -196 l 1,3,-1
 220 -196 l 1,0,-1
87 1405 m 1,4,-1
 87 1490 l 1,5,-1
 1164 1490 l 1,6,-1
 1164 1405 l 1,7,-1
 673 1405 l 1,8,-1
 673 0 l 1,9,-1
 581 0 l 1,10,-1
 581 1405 l 1,11,-1
 87 1405 l 1,4,-1
EndSplineSet
Position2: "'cpsp' Capital Spacing in Latin lookup 0 subtable" dx=0 dy=0 dh=0 dv=0
EndChar

StartChar: U
Encoding: 85 85 425
Width: 1435
GlyphClass: 2
Flags: W
AnchorPoint: "Anchor-4" 1269 508 basechar 0
AnchorPoint: "Anchor-1" 719 1490 basechar 0
AnchorPoint: "Anchor-0" 719 0 basechar 0
LayerCount: 2
Fore
SplineSet
719 -21 m 0,0,1
 558 -21 558 -21 433.5 48 c 128,-1,2
 309 117 309 117 238 236 c 128,-1,3
 167 355 167 355 167 508 c 2,4,-1
 167 1490 l 1,5,-1
 259 1490 l 1,6,-1
 259 512 l 2,7,8
 259 384 259 384 318 284 c 128,-1,9
 377 184 377 184 480 125.5 c 128,-1,10
 583 67 583 67 718 67 c 256,11,12
 853 67 853 67 956 125 c 128,-1,13
 1059 183 1059 183 1117.5 283.5 c 128,-1,14
 1176 384 1176 384 1176 512 c 2,15,-1
 1176 1490 l 1,16,-1
 1269 1490 l 1,17,-1
 1269 508 l 2,18,19
 1269 355 1269 355 1198 236 c 128,-1,20
 1127 117 1127 117 1002.5 48 c 128,-1,21
 878 -21 878 -21 719 -21 c 0,0,1
EndSplineSet
Substitution2: "'ss06' Style Set 6 in Latin lookup 52 subtable" U.squared
Substitution2: "'ss05' Style Set 5 in Latin lookup 51 subtable" uni24CA
Position2: "'cpsp' Capital Spacing in Latin lookup 0 subtable" dx=0 dy=0 dh=0 dv=0
EndChar

StartChar: Uhorn
Encoding: 431 431 426
Width: 1456
GlyphClass: 2
Flags: W
AnchorPoint: "Anchor-4" 1269 508 basechar 0
AnchorPoint: "Anchor-1" 719 1490 basechar 0
AnchorPoint: "Anchor-0" 719 0 basechar 0
LayerCount: 2
Fore
SplineSet
1188 1412 m 1,0,-1
 1188 1490 l 1,1,-1
 1322 1490 l 2,2,3
 1379 1490 1379 1490 1379 1547 c 2,4,-1
 1379 1714 l 1,5,-1
 1467 1714 l 1,6,-1
 1467 1551 l 2,7,8
 1467 1483 1467 1483 1431.5 1447.5 c 128,-1,9
 1396 1412 1396 1412 1328 1412 c 2,10,-1
 1188 1412 l 1,0,-1
719 -21 m 0,11,12
 558 -21 558 -21 433.5 48 c 128,-1,13
 309 117 309 117 238 236 c 128,-1,14
 167 355 167 355 167 508 c 2,15,-1
 167 1490 l 1,16,-1
 259 1490 l 1,17,-1
 259 512 l 2,18,19
 259 384 259 384 318 284 c 128,-1,20
 377 184 377 184 480 125.5 c 128,-1,21
 583 67 583 67 718 67 c 256,22,23
 853 67 853 67 956 125 c 128,-1,24
 1059 183 1059 183 1117.5 283.5 c 128,-1,25
 1176 384 1176 384 1176 512 c 2,26,-1
 1176 1490 l 1,27,-1
 1269 1490 l 1,28,-1
 1269 508 l 2,29,30
 1269 355 1269 355 1198 236 c 128,-1,31
 1127 117 1127 117 1002.5 48 c 128,-1,32
 878 -21 878 -21 719 -21 c 0,11,12
EndSplineSet
Position2: "'cpsp' Capital Spacing in Latin lookup 0 subtable" dx=0 dy=0 dh=0 dv=0
EndChar

StartChar: uni0244
Encoding: 580 580 456
Width: 1439
GlyphClass: 2
Flags: W
AnchorPoint: "Anchor-4" 1243 508 basechar 0
AnchorPoint: "Anchor-1" 693 1490 basechar 0
AnchorPoint: "Anchor-0" 693 0 basechar 0
LayerCount: 2
Fore
SplineSet
1471 872 m 1,0,-1
 1471 801 l 1,1,-1
 -30 801 l 1,2,-1
 -30 872 l 1,3,-1
 1471 872 l 1,0,-1
693 -21 m 256,4,5
 533 -21 533 -21 408 48 c 128,-1,6
 283 117 283 117 212 236 c 128,-1,7
 141 355 141 355 141 508 c 2,8,-1
 141 1490 l 1,9,-1
 234 1490 l 1,10,-1
 234 512 l 2,11,12
 234 384 234 384 293 284 c 128,-1,13
 352 184 352 184 455 125.5 c 128,-1,14
 558 67 558 67 693 67 c 256,15,16
 828 67 828 67 931 125 c 128,-1,17
 1034 183 1034 183 1092.5 283.5 c 128,-1,18
 1151 384 1151 384 1151 512 c 2,19,-1
 1151 1490 l 1,20,-1
 1243 1490 l 1,21,-1
 1243 508 l 2,22,23
 1243 355 1243 355 1172.5 236 c 128,-1,24
 1102 117 1102 117 977.5 48 c 128,-1,25
 853 -21 853 -21 693 -21 c 256,4,5
EndSplineSet
Position2: "'cpsp' Capital Spacing in Latin lookup 0 subtable" dx=0 dy=0 dh=0 dv=0
EndChar

StartChar: V
Encoding: 86 86 457
Width: 1302
GlyphClass: 2
Flags: W
AnchorPoint: "Anchor-1" 651 1490 basechar 0
AnchorPoint: "Anchor-0" 651 0 basechar 0
LayerCount: 2
Fore
SplineSet
596 0 m 1,0,-1
 41 1490 l 1,1,-1
 138 1490 l 1,2,-1
 533 424 l 2,3,4
 561 346 561 346 594.5 251 c 128,-1,5
 628 156 628 156 667 40 c 1,6,-1
 640 40 l 1,7,8
 679 157 679 157 712 251.5 c 128,-1,9
 745 346 745 346 773 424 c 2,10,-1
 1164 1490 l 1,11,-1
 1261 1490 l 1,12,-1
 709 0 l 1,13,-1
 596 0 l 1,0,-1
EndSplineSet
Substitution2: "'ss06' Style Set 6 in Latin lookup 52 subtable" V.squared
Substitution2: "'ss05' Style Set 5 in Latin lookup 51 subtable" uni24CB
Position2: "'cpsp' Capital Spacing in Latin lookup 0 subtable" dx=0 dy=0 dh=0 dv=0
EndChar

StartChar: W
Encoding: 87 87 460
Width: 1898
GlyphClass: 2
Flags: W
AnchorPoint: "Anchor-1" 950 1490 basechar 0
AnchorPoint: "Anchor-0" 950 0 basechar 0
LayerCount: 2
Fore
SplineSet
457 0 m 1,0,-1
 41 1490 l 1,1,-1
 135 1490 l 1,2,-1
 430 424 l 2,3,4
 447 363 447 363 463 301 c 128,-1,5
 479 239 479 239 494.5 177 c 128,-1,6
 510 115 510 115 525 52 c 1,7,-1
 510 52 l 1,8,9
 524 115 524 115 539.5 177 c 128,-1,10
 555 239 555 239 570.5 301 c 128,-1,11
 586 363 586 363 602 424 c 2,12,-1
 891 1490 l 1,13,-1
 1008 1490 l 1,14,-1
 1295 424 l 2,15,16
 1312 363 1312 363 1327.5 301 c 128,-1,17
 1343 239 1343 239 1358.5 177 c 128,-1,18
 1374 115 1374 115 1389 52 c 1,19,-1
 1373 52 l 1,20,21
 1388 115 1388 115 1403.5 177 c 128,-1,22
 1419 239 1419 239 1435.5 301 c 128,-1,23
 1452 363 1452 363 1469 424 c 2,24,-1
 1762 1490 l 1,25,-1
 1857 1490 l 1,26,-1
 1440 0 l 1,27,-1
 1322 0 l 1,28,-1
 1034 1053 l 2,29,30
 1009 1147 1009 1147 985.5 1243.5 c 128,-1,31
 962 1340 962 1340 938 1441 c 1,32,-1
 959 1441 l 1,33,34
 937 1341 937 1341 913.5 1245 c 128,-1,35
 890 1149 890 1149 864 1053 c 2,36,-1
 576 0 l 1,37,-1
 457 0 l 1,0,-1
EndSplineSet
Substitution2: "'ss06' Style Set 6 in Latin lookup 52 subtable" W.squared
Substitution2: "'ss05' Style Set 5 in Latin lookup 51 subtable" uni24CC
Position2: "'cpsp' Capital Spacing in Latin lookup 0 subtable" dx=0 dy=0 dh=0 dv=0
EndChar

StartChar: X
Encoding: 88 88 467
Width: 1273
GlyphClass: 2
Flags: W
AnchorPoint: "Anchor-1" 637 1490 basechar 0
AnchorPoint: "Anchor-0" 637 0 basechar 0
LayerCount: 2
Fore
SplineSet
44 0 m 1,0,-1
 607 793 l 1,1,-1
 607 725 l 1,2,-1
 66 1490 l 1,3,-1
 175 1490 l 1,4,-1
 470 1073 l 2,5,6
 503 1026 503 1026 532.5 983 c 128,-1,7
 562 940 562 940 591.5 897 c 128,-1,8
 621 854 621 854 649 807 c 1,9,-1
 625 807 l 1,10,11
 655 854 655 854 684 897.5 c 128,-1,12
 713 941 713 941 743 983.5 c 128,-1,13
 773 1026 773 1026 806 1073 c 2,14,-1
 1102 1490 l 1,15,-1
 1209 1490 l 1,16,-1
 668 727 l 1,17,-1
 668 795 l 1,18,-1
 1229 0 l 1,19,-1
 1121 0 l 1,20,-1
 797 458 l 2,21,22
 765 502 765 502 736.5 544 c 128,-1,23
 708 586 708 586 680 627.5 c 128,-1,24
 652 669 652 669 624 713 c 1,25,-1
 650 713 l 1,26,27
 621 669 621 669 593.5 627 c 128,-1,28
 566 585 566 585 537.5 544 c 128,-1,29
 509 503 509 503 477 458 c 2,30,-1
 152 0 l 1,31,-1
 44 0 l 1,0,-1
EndSplineSet
Substitution2: "'ss06' Style Set 6 in Latin lookup 52 subtable" X.squared
Substitution2: "'ss05' Style Set 5 in Latin lookup 51 subtable" uni24CD
Position2: "'cpsp' Capital Spacing in Latin lookup 0 subtable" dx=0 dy=0 dh=0 dv=0
EndChar

StartChar: Y
Encoding: 89 89 473
Width: 1295
GlyphClass: 2
Flags: W
AnchorPoint: "Anchor-4" 694 0 basechar 0
AnchorPoint: "Anchor-1" 648 1490 basechar 0
AnchorPoint: "Anchor-0" 648 0 basechar 0
LayerCount: 2
Fore
SplineSet
602 0 m 1,0,-1
 602 675 l 1,1,-1
 41 1490 l 1,2,-1
 149 1490 l 1,3,-1
 489 998 l 2,4,5
 537 929 537 929 580 862.5 c 128,-1,6
 623 796 623 796 668 723 c 1,7,-1
 630 723 l 1,8,9
 674 797 674 797 718.5 863.5 c 128,-1,10
 763 930 763 930 808 998 c 2,11,-1
 1146 1490 l 1,12,-1
 1254 1490 l 1,13,-1
 694 675 l 1,14,-1
 694 0 l 1,15,-1
 602 0 l 1,0,-1
EndSplineSet
Substitution2: "'c2sc' Capitals to Small Capitals in Latin lookup 68 subtable" y.sc
Substitution2: "'ss06' Style Set 6 in Latin lookup 52 subtable" Y.squared
Substitution2: "'ss05' Style Set 5 in Latin lookup 51 subtable" uni24CE
Substitution2: "'aalt' Access All Alternates in Latin lookup 0 subtable" y.sc
Position2: "'cpsp' Capital Spacing in Latin lookup 0 subtable" dx=0 dy=0 dh=0 dv=0
EndChar

StartChar: uni01B3
Encoding: 435 435 474
Width: 1280
Flags: W
LayerCount: 2
Fore
SplineSet
575 737 m 1,0,-1
 575 772 l 1,1,-1
 610 772 l 1,2,-1
 610 737 l 1,3,-1
 575 737 l 1,0,-1
9 1490 m 1,4,-1
 118 1490 l 1,5,-1
 592 765 l 1,6,-1
 1012 1404 l 2,7,8
 1050 1460 1050 1460 1103 1486 c 128,-1,9
 1156 1512 1156 1512 1211 1509 c 128,-1,10
 1266 1506 1266 1506 1306 1477 c 1,11,-1
 1268 1408 l 1,12,13
 1226 1430 1226 1430 1175.5 1419.5 c 128,-1,14
 1125 1409 1125 1409 1087 1350 c 2,15,-1
 640 676 l 1,16,-1
 640 0 l 1,17,-1
 547 0 l 1,18,-1
 547 676 l 1,19,-1
 9 1490 l 1,4,-1
EndSplineSet
Position2: "'cpsp' Capital Spacing in Latin lookup 0 subtable" dx=0 dy=0 dh=0 dv=0
EndChar

StartChar: uni024E
Encoding: 590 590 484
Width: 1235
GlyphClass: 2
Flags: W
AnchorPoint: "Anchor-4" 694 0 basechar 0
AnchorPoint: "Anchor-1" 648 1490 basechar 0
AnchorPoint: "Anchor-0" 648 0 basechar 0
LayerCount: 2
Fore
SplineSet
1265 1177 m 1,0,-1
 1265 1107 l 1,1,-1
 -29 1107 l 1,2,-1
 -29 1177 l 1,3,-1
 1265 1177 l 1,0,-1
602 0 m 1,4,-1
 602 675 l 1,5,-1
 41 1490 l 1,6,-1
 149 1490 l 1,7,-1
 489 998 l 2,8,9
 537 929 537 929 580 862.5 c 128,-1,10
 623 796 623 796 668 723 c 1,11,-1
 630 723 l 1,12,13
 674 797 674 797 718.5 863.5 c 128,-1,14
 763 930 763 930 808 998 c 2,15,-1
 1146 1490 l 1,16,-1
 1254 1490 l 1,17,-1
 694 675 l 1,18,-1
 694 0 l 1,19,-1
 602 0 l 1,4,-1
EndSplineSet
Position2: "'cpsp' Capital Spacing in Latin lookup 0 subtable" dx=0 dy=0 dh=0 dv=0
EndChar

StartChar: Z
Encoding: 90 90 497
Width: 1245
GlyphClass: 2
Flags: W
AnchorPoint: "Anchor-1" 622 1490 basechar 0
AnchorPoint: "Anchor-0" 621 0 basechar 0
LayerCount: 2
Fore
SplineSet
108 0 m 1,0,-1
 108 81 l 1,1,-1
 874 1190 l 2,2,3
 918 1252 918 1252 962.5 1315 c 128,-1,4
 1007 1378 1007 1378 1052 1441 c 1,5,-1
 1062 1406 l 1,6,7
 979 1405 979 1405 897 1404.5 c 128,-1,8
 815 1404 815 1404 732 1404 c 2,9,-1
 127 1404 l 1,10,-1
 127 1490 l 1,11,-1
 1132 1490 l 1,12,-1
 1132 1408 l 1,13,-1
 368 302 l 2,14,15
 324 239 324 239 279.5 176 c 128,-1,16
 235 113 235 113 188 50 c 1,17,-1
 178 85 l 1,18,19
 259 86 259 86 340.5 85.5 c 128,-1,20
 422 85 422 85 503 85 c 2,21,-1
 1139 85 l 1,22,-1
 1139 0 l 1,23,-1
 108 0 l 1,0,-1
EndSplineSet
Substitution2: "'ss06' Style Set 6 in Latin lookup 52 subtable" Z.squared
Substitution2: "'ss05' Style Set 5 in Latin lookup 51 subtable" uni24CF
Position2: "'cpsp' Capital Spacing in Latin lookup 0 subtable" dx=0 dy=0 dh=0 dv=0
EndChar

StartChar: uni0224
Encoding: 548 548 504
Width: 1245
GlyphClass: 2
Flags: W
AnchorPoint: "Anchor-1" 622 1490 basechar 0
AnchorPoint: "Anchor-0" 621 0 basechar 0
LayerCount: 2
Fore
SplineSet
837 -418 m 1,0,-1
 837 -334 l 1,1,2
 855 -335 855 -335 876.5 -335.5 c 128,-1,3
 898 -336 898 -336 911 -336 c 0,4,5
 984 -336 984 -336 1015 -304.5 c 128,-1,6
 1046 -273 1046 -273 1046 -200 c 2,7,-1
 1046 0 l 1,8,-1
 1139 0 l 1,9,-1
 1139 -203 l 2,10,11
 1139 -312 1139 -312 1084 -365.5 c 128,-1,12
 1029 -419 1029 -419 920 -419 c 0,13,14
 901 -419 901 -419 877.5 -419 c 128,-1,15
 854 -419 854 -419 837 -418 c 1,0,-1
108 0 m 1,16,-1
 108 81 l 1,17,-1
 874 1190 l 2,18,19
 918 1252 918 1252 962.5 1315 c 128,-1,20
 1007 1378 1007 1378 1052 1441 c 1,21,-1
 1062 1406 l 1,22,23
 979 1405 979 1405 897 1404.5 c 128,-1,24
 815 1404 815 1404 732 1404 c 2,25,-1
 127 1404 l 1,26,-1
 127 1490 l 1,27,-1
 1132 1490 l 1,28,-1
 1132 1408 l 1,29,-1
 368 302 l 2,30,31
 324 239 324 239 279.5 176 c 128,-1,32
 235 113 235 113 188 50 c 1,33,-1
 178 85 l 1,34,35
 259 86 259 86 340.5 85.5 c 128,-1,36
 422 85 422 85 503 85 c 2,37,-1
 1139 85 l 1,38,-1
 1139 0 l 1,39,-1
 108 0 l 1,16,-1
EndSplineSet
Position2: "'cpsp' Capital Spacing in Latin lookup 0 subtable" dx=0 dy=0 dh=0 dv=0
EndChar

StartChar: uni2C7F
Encoding: 11391 11391 507
Width: 1206
Flags: W
LayerCount: 2
Fore
SplineSet
980 -427 m 0,0,1
 910 -427 910 -427 850 -396 c 128,-1,2
 790 -365 790 -365 733.5 -316.5 c 128,-1,3
 677 -268 677 -268 619.5 -213.5 c 128,-1,4
 562 -159 562 -159 499 -110 c 128,-1,5
 436 -61 436 -61 362 -30.5 c 128,-1,6
 288 0 288 0 198 0 c 2,7,-1
 109 0 l 1,8,-1
 109 75 l 1,9,-1
 960 1404 l 1,10,-1
 111 1404 l 1,11,-1
 111 1490 l 1,12,-1
 1071 1490 l 1,13,-1
 1071 1414 l 1,14,-1
 218 83 l 1,15,16
 316 79 316 79 394 47.5 c 128,-1,17
 472 16 472 16 536.5 -32.5 c 128,-1,18
 601 -81 601 -81 658 -134 c 128,-1,19
 715 -187 715 -187 767.5 -234.5 c 128,-1,20
 820 -282 820 -282 872.5 -311.5 c 128,-1,21
 925 -341 925 -341 985 -341 c 0,22,23
 1005 -341 1005 -341 1024 -340 c 128,-1,24
 1043 -339 1043 -339 1062 -337 c 128,-1,25
 1081 -335 1081 -335 1099 -333 c 1,26,-1
 1099 -416 l 1,27,28
 1075 -420 1075 -420 1044.5 -423.5 c 128,-1,29
 1014 -427 1014 -427 980 -427 c 0,0,1
EndSplineSet
Position2: "'cpsp' Capital Spacing in Latin lookup 0 subtable" dx=0 dy=0 dh=0 dv=0
EndChar

StartChar: a
Encoding: 97 97 508
Width: 1062
GlyphClass: 2
Flags: W
AnchorPoint: "Anchor-4" 904 0 basechar 0
AnchorPoint: "Anchor-1" 518 1087 basechar 0
AnchorPoint: "Anchor-0" 521 0 basechar 0
LayerCount: 2
Fore
SplineSet
447 -20 m 0,0,1
 350 -20 350 -20 269 16 c 128,-1,2
 188 52 188 52 138 123 c 128,-1,3
 88 194 88 194 88 297 c 0,4,5
 88 370 88 370 115 422 c 128,-1,6
 142 474 142 474 194.5 510.5 c 128,-1,7
 247 547 247 547 328 570.5 c 128,-1,8
 409 594 409 594 518 608 c 0,9,10
 609 619 609 619 675.5 630 c 128,-1,11
 742 641 742 641 778.5 663 c 128,-1,12
 815 685 815 685 815 728 c 2,13,-1
 815 762 l 2,14,15
 815 839 815 839 778.5 897.5 c 128,-1,16
 742 956 742 956 675 988.5 c 128,-1,17
 608 1021 608 1021 519 1021 c 0,18,19
 436 1021 436 1021 369 993 c 128,-1,20
 302 965 302 965 259.5 915 c 128,-1,21
 217 865 217 865 205 802 c 1,22,-1
 117 818 l 1,23,24
 135 905 135 905 191.5 969 c 128,-1,25
 248 1033 248 1033 333 1068 c 128,-1,26
 418 1103 418 1103 519 1103 c 0,27,28
 599 1103 599 1103 668.5 1080.5 c 128,-1,29
 738 1058 738 1058 791.5 1013.5 c 128,-1,30
 845 969 845 969 874.5 904.5 c 128,-1,31
 904 840 904 840 904 759 c 2,32,-1
 904 0 l 1,33,-1
 816 0 l 1,34,-1
 816 198 l 1,35,-1
 811 198 l 1,36,37
 783 138 783 138 732 88 c 128,-1,38
 681 38 681 38 609 9 c 128,-1,39
 537 -20 537 -20 447 -20 c 0,0,1
456 63 m 0,40,41
 561 63 561 63 642 109.5 c 128,-1,42
 723 156 723 156 769 241.5 c 128,-1,43
 815 327 815 327 815 439 c 2,44,-1
 815 604 l 1,45,46
 798 589 798 589 768 577 c 128,-1,47
 738 565 738 565 700 556.5 c 128,-1,48
 662 548 662 548 616.5 541 c 128,-1,49
 571 534 571 534 522 528 c 0,50,51
 403 513 403 513 327 484 c 128,-1,52
 251 455 251 455 215 409 c 128,-1,53
 179 363 179 363 179 295 c 0,54,55
 179 221 179 221 215.5 169.5 c 128,-1,56
 252 118 252 118 314.5 90.5 c 128,-1,57
 377 63 377 63 456 63 c 0,40,41
EndSplineSet
Substitution2: "'smcp' Lowercase to Small Capitals in Latin lookup 69 subtable" a.sc
Substitution2: "'c2sc' Capitals to Small Capitals in Latin lookup 68 subtable" a.sc
Substitution2: "'cv11' Character Variants 11 in Latin lookup 65 subtable" a.1
Substitution2: "'salt' Stylistic Alternatives in Latin lookup 46 subtable" a.1
Substitution2: "Single Substitution lookup 44 subtable" ordfeminine
Substitution2: "'sups' Superscript in Latin lookup 39 subtable" a.sups
Substitution2: "'subs' Subscript in Latin lookup 38 subtable" a.subs
Substitution2: "'sinf' Scientific Inferiors in Latin lookup 18 subtable" a.subs
AlternateSubs2: "'aalt' Access All Alternates in Latin lookup 1 subtable" ordfeminine a.sups a.subs a.sc
EndChar

StartChar: aturn
Encoding: 592 592 540
Width: 1062
GlyphClass: 2
Flags: W
AnchorPoint: "Anchor-4" 158 1087 basechar 0
AnchorPoint: "Anchor-1" 567 1087 basechar 0
AnchorPoint: "Anchor-0" 567 0 basechar 0
LayerCount: 2
Fore
SplineSet
616 1107 m 0,0,1
 712 1107 712 1107 794 1071.5 c 128,-1,2
 876 1036 876 1036 924.5 965.5 c 128,-1,3
 973 895 973 895 973 790 c 0,4,5
 973 719 973 719 947.5 666.5 c 128,-1,6
 922 614 922 614 868.5 578 c 128,-1,7
 815 542 815 542 734.5 518 c 128,-1,8
 654 494 654 494 545 481 c 0,9,10
 454 469 454 469 387 458 c 128,-1,11
 320 447 320 447 283.5 425 c 128,-1,12
 247 403 247 403 247 361 c 2,13,-1
 247 327 l 2,14,15
 247 250 247 250 284 191 c 128,-1,16
 321 132 321 132 388 99 c 128,-1,17
 455 66 455 66 543 66 c 0,18,19
 627 66 627 66 693.5 94.5 c 128,-1,20
 760 123 760 123 803 173 c 128,-1,21
 846 223 846 223 857 285 c 1,22,-1
 944 271 l 1,23,24
 929 183 929 183 871.5 118.5 c 128,-1,25
 814 54 814 54 729.5 19 c 128,-1,26
 645 -16 645 -16 544 -16 c 0,27,28
 464 -16 464 -16 394 7.5 c 128,-1,29
 324 31 324 31 271.5 75 c 128,-1,30
 219 119 219 119 188.5 183 c 128,-1,31
 158 247 158 247 158 330 c 2,32,-1
 158 1087 l 1,33,-1
 247 1087 l 1,34,-1
 247 889 l 1,35,-1
 252 889 l 1,36,37
 280 950 280 950 331 1000 c 128,-1,38
 382 1050 382 1050 454 1078.5 c 128,-1,39
 526 1107 526 1107 616 1107 c 0,0,1
606 1026 m 0,40,41
 502 1026 502 1026 420.5 978.5 c 128,-1,42
 339 931 339 931 293 846 c 128,-1,43
 247 761 247 761 247 648 c 2,44,-1
 247 485 l 1,45,46
 265 500 265 500 294 511 c 128,-1,47
 323 522 323 522 362 531 c 128,-1,48
 401 540 401 540 446.5 547 c 128,-1,49
 492 554 492 554 542 561 c 0,50,51
 660 576 660 576 736 604.5 c 128,-1,52
 812 633 812 633 848 679.5 c 128,-1,53
 884 726 884 726 884 794 c 0,54,55
 884 867 884 867 847.5 919 c 128,-1,56
 811 971 811 971 748 998.5 c 128,-1,57
 685 1026 685 1026 606 1026 c 0,40,41
EndSplineSet
EndChar

StartChar: ae
Encoding: 230 230 544
Width: 1827
GlyphClass: 2
Flags: W
AnchorPoint: "Anchor-1" 889 1087 basechar 0
LayerCount: 2
Fore
SplineSet
445 -20 m 0,0,1
 346 -20 346 -20 265 16.5 c 128,-1,2
 184 53 184 53 136 124 c 128,-1,3
 88 195 88 195 88 297 c 0,4,5
 88 380 88 380 124 438.5 c 128,-1,6
 160 497 160 497 224 533.5 c 128,-1,7
 288 570 288 570 373.5 588 c 128,-1,8
 459 606 459 606 561 606 c 2,9,-1
 1686 606 l 1,10,-1
 1648 578 l 1,11,12
 1650 704 1650 704 1602 805 c 128,-1,13
 1554 906 1554 906 1469 963.5 c 128,-1,14
 1384 1021 1384 1021 1273 1021 c 256,15,16
 1162 1021 1162 1021 1074.5 961.5 c 128,-1,17
 987 902 987 902 938 799.5 c 128,-1,18
 889 697 889 697 889 566 c 2,19,-1
 889 534 l 2,20,21
 889 398 889 398 937 291.5 c 128,-1,22
 985 185 985 185 1074 123.5 c 128,-1,23
 1163 62 1163 62 1285 62 c 0,24,25
 1373 62 1373 62 1441.5 93 c 128,-1,26
 1510 124 1510 124 1557 174.5 c 128,-1,27
 1604 225 1604 225 1625 284 c 1,28,-1
 1710 269 l 1,29,30
 1686 190 1686 190 1627 124.5 c 128,-1,31
 1568 59 1568 59 1481.5 19 c 128,-1,32
 1395 -21 1395 -21 1285 -21 c 0,33,34
 1157 -21 1157 -21 1057.5 35.5 c 128,-1,35
 958 92 958 92 896.5 192 c 128,-1,36
 835 292 835 292 818 422 c 1,37,-1
 823 669 l 1,38,39
 842 797 842 797 904 895 c 128,-1,40
 966 993 966 993 1060.5 1048.5 c 128,-1,41
 1155 1104 1155 1104 1273 1104 c 0,42,43
 1373 1104 1373 1104 1457.5 1066 c 128,-1,44
 1542 1028 1542 1028 1605 956 c 128,-1,45
 1668 884 1668 884 1702.5 784.5 c 128,-1,46
 1737 685 1737 685 1737 563 c 2,47,-1
 1737 526 l 1,48,-1
 561 526 l 2,49,50
 439 526 439 526 353.5 500 c 128,-1,51
 268 474 268 474 223.5 423 c 128,-1,52
 179 372 179 372 179 296 c 0,53,54
 179 186 179 186 255.5 124.5 c 128,-1,55
 332 63 332 63 450 63 c 0,56,57
 559 63 559 63 638.5 109.5 c 128,-1,58
 718 156 718 156 761 241 c 128,-1,59
 804 326 804 326 804 439 c 2,60,-1
 804 762 l 2,61,62
 804 839 804 839 768.5 897.5 c 128,-1,63
 733 956 733 956 668 988.5 c 128,-1,64
 603 1021 603 1021 514 1021 c 0,65,66
 431 1021 431 1021 365 993 c 128,-1,67
 299 965 299 965 258 915 c 128,-1,68
 217 865 217 865 205 802 c 1,69,-1
 117 818 l 1,70,71
 135 905 135 905 190 969 c 128,-1,72
 245 1033 245 1033 329 1068 c 128,-1,73
 413 1103 413 1103 514 1103 c 0,74,75
 618 1103 618 1103 699 1064 c 128,-1,76
 780 1025 780 1025 828.5 953.5 c 128,-1,77
 877 882 877 882 882 783 c 1,78,-1
 873 374 l 1,79,-1
 865 372 l 1,80,81
 858 274 858 274 822 200.5 c 128,-1,82
 786 127 786 127 729 78 c 128,-1,83
 672 29 672 29 599 4.5 c 128,-1,84
 526 -20 526 -20 445 -20 c 0,0,1
EndSplineSet
EndChar

StartChar: a.1
Encoding: 57388 57388 548
Width: 1172
GlyphClass: 2
Flags: W
AnchorPoint: "Anchor-4" 1014 0 basechar 0
AnchorPoint: "Anchor-1" 567 1087 basechar 0
AnchorPoint: "Anchor-0" 572 0 basechar 0
LayerCount: 2
Fore
SplineSet
548 -21 m 0,0,1
 415 -21 415 -21 313 50.5 c 128,-1,2
 211 122 211 122 153 248.5 c 128,-1,3
 95 375 95 375 95 542 c 0,4,5
 95 708 95 708 153 835 c 128,-1,6
 211 962 211 962 313.5 1032.5 c 128,-1,7
 416 1103 416 1103 549 1103 c 0,8,9
 643 1103 643 1103 717 1068.5 c 128,-1,10
 791 1034 791 1034 843.5 974.5 c 128,-1,11
 896 915 896 915 920 841 c 1,12,-1
 926 841 l 1,13,-1
 926 1087 l 1,14,-1
 1014 1087 l 1,15,-1
 1014 0 l 1,16,-1
 925 0 l 1,17,-1
 925 243 l 1,18,-1
 920 243 l 1,19,20
 894 169 894 169 841.5 109 c 128,-1,21
 789 49 789 49 715 14 c 128,-1,22
 641 -21 641 -21 548 -21 c 0,0,1
558 62 m 0,23,24
 672 62 672 62 755 123.5 c 128,-1,25
 838 185 838 185 882.5 293 c 128,-1,26
 927 401 927 401 927 542 c 0,27,28
 927 684 927 684 882.5 792 c 128,-1,29
 838 900 838 900 755 960.5 c 128,-1,30
 672 1021 672 1021 558 1021 c 0,31,32
 447 1021 447 1021 362.5 961 c 128,-1,33
 278 901 278 901 231.5 793.5 c 128,-1,34
 185 686 185 686 185 542 c 0,35,36
 185 400 185 400 232 292 c 128,-1,37
 279 184 279 184 362.5 123 c 128,-1,38
 446 62 446 62 558 62 c 0,23,24
EndSplineSet
EndChar

StartChar: b
Encoding: 98 98 579
Width: 1171
GlyphClass: 2
Flags: W
AnchorPoint: "Anchor-1" 625 1283 basechar 0
AnchorPoint: "Anchor-0" 615 0 basechar 0
LayerCount: 2
Fore
SplineSet
624 -21 m 0,0,1
 532 -21 532 -21 457.5 14 c 128,-1,2
 383 49 383 49 331 109 c 128,-1,3
 279 169 279 169 252 243 c 1,4,-1
 245 243 l 1,5,-1
 245 0 l 1,6,-1
 158 0 l 1,7,-1
 158 1490 l 1,8,-1
 247 1490 l 1,9,-1
 247 841 l 1,10,-1
 252 841 l 1,11,12
 278 915 278 915 330 974.5 c 128,-1,13
 382 1034 382 1034 456.5 1068.5 c 128,-1,14
 531 1103 531 1103 623 1103 c 0,15,16
 757 1103 757 1103 859.5 1032.5 c 128,-1,17
 962 962 962 962 1019.5 835 c 128,-1,18
 1077 708 1077 708 1077 542 c 0,19,20
 1077 375 1077 375 1019.5 248.5 c 128,-1,21
 962 122 962 122 860.5 50.5 c 128,-1,22
 759 -21 759 -21 624 -21 c 0,0,1
615 62 m 0,23,24
 727 62 727 62 810.5 123 c 128,-1,25
 894 184 894 184 941 292 c 128,-1,26
 988 400 988 400 988 542 c 0,27,28
 988 685 988 685 941.5 793 c 128,-1,29
 895 901 895 901 811 961 c 128,-1,30
 727 1021 727 1021 615 1021 c 0,31,32
 502 1021 502 1021 418.5 960.5 c 128,-1,33
 335 900 335 900 289.5 792 c 128,-1,34
 244 684 244 684 244 542 c 0,35,36
 244 401 244 401 289.5 293 c 128,-1,37
 335 185 335 185 418.5 123.5 c 128,-1,38
 502 62 502 62 615 62 c 0,23,24
EndSplineSet
Substitution2: "'sups' Superscript in Latin lookup 39 subtable" b.sups
Substitution2: "'subs' Subscript in Latin lookup 38 subtable" b.subs
Substitution2: "'sinf' Scientific Inferiors in Latin lookup 18 subtable" b.subs
AlternateSubs2: "'aalt' Access All Alternates in Latin lookup 1 subtable" b.sups b.subs
EndChar

StartChar: uni0183
Encoding: 387 387 581
Width: 1171
GlyphClass: 2
Flags: W
AnchorPoint: "Anchor-1" 625 1283 basechar 0
AnchorPoint: "Anchor-0" 615 0 basechar 0
LayerCount: 2
Fore
SplineSet
205 1409 m 1,0,-1
 158 1490 l 1,1,-1
 892 1490 l 1,2,-1
 892 1409 l 1,3,-1
 205 1409 l 1,0,-1
624 -21 m 0,4,5
 532 -21 532 -21 457.5 14 c 128,-1,6
 383 49 383 49 331 109 c 128,-1,7
 279 169 279 169 252 243 c 1,8,-1
 245 243 l 1,9,-1
 245 0 l 1,10,-1
 158 0 l 1,11,-1
 158 1490 l 1,12,-1
 247 1490 l 1,13,-1
 247 841 l 1,14,-1
 252 841 l 1,15,16
 278 915 278 915 330 974.5 c 128,-1,17
 382 1034 382 1034 456.5 1068.5 c 128,-1,18
 531 1103 531 1103 623 1103 c 0,19,20
 757 1103 757 1103 859.5 1032.5 c 128,-1,21
 962 962 962 962 1019.5 835 c 128,-1,22
 1077 708 1077 708 1077 542 c 0,23,24
 1077 375 1077 375 1019.5 248.5 c 128,-1,25
 962 122 962 122 860.5 50.5 c 128,-1,26
 759 -21 759 -21 624 -21 c 0,4,5
615 62 m 0,27,28
 727 62 727 62 810.5 123 c 128,-1,29
 894 184 894 184 941 292 c 128,-1,30
 988 400 988 400 988 542 c 0,31,32
 988 685 988 685 941.5 793 c 128,-1,33
 895 901 895 901 811 961 c 128,-1,34
 727 1021 727 1021 615 1021 c 0,35,36
 502 1021 502 1021 418.5 960.5 c 128,-1,37
 335 900 335 900 289.5 792 c 128,-1,38
 244 684 244 684 244 542 c 0,39,40
 244 401 244 401 289.5 293 c 128,-1,41
 335 185 335 185 418.5 123.5 c 128,-1,42
 502 62 502 62 615 62 c 0,27,28
EndSplineSet
EndChar

StartChar: uni0253
Encoding: 595 595 582
Width: 1170
GlyphClass: 2
Flags: W
AnchorPoint: "Anchor-1" 334 1490 basechar 0
AnchorPoint: "Anchor-0" 514 76 basechar 0
LayerCount: 2
Fore
SplineSet
622 -21 m 0,0,1
 530 -21 530 -21 455.5 14 c 128,-1,2
 381 49 381 49 329 109 c 128,-1,3
 277 169 277 169 250 242 c 1,4,-1
 244 242 l 1,5,-1
 244 0 l 1,6,-1
 158 0 l 1,7,-1
 158 1087 l 1,8,-1
 245 1087 l 1,9,-1
 245 841 l 1,10,-1
 251 841 l 1,11,12
 276 915 276 915 328 974.5 c 128,-1,13
 380 1034 380 1034 455 1068.5 c 128,-1,14
 530 1103 530 1103 622 1103 c 0,15,16
 756 1103 756 1103 858 1032.5 c 128,-1,17
 960 962 960 962 1017.5 835.5 c 128,-1,18
 1075 709 1075 709 1075 542 c 0,19,20
 1075 376 1075 376 1018 249 c 128,-1,21
 961 122 961 122 859 50.5 c 128,-1,22
 757 -21 757 -21 622 -21 c 0,0,1
614 62 m 256,23,24
 727 62 727 62 811 122.5 c 128,-1,25
 895 183 895 183 941 291.5 c 128,-1,26
 987 400 987 400 987 542 c 0,27,28
 987 685 987 685 940.5 793 c 128,-1,29
 894 901 894 901 810.5 961.5 c 128,-1,30
 727 1022 727 1022 614 1022 c 256,31,32
 501 1022 501 1022 417.5 961.5 c 128,-1,33
 334 901 334 901 288.5 793 c 128,-1,34
 243 685 243 685 243 542 c 0,35,36
 243 401 243 401 288 292.5 c 128,-1,37
 333 184 333 184 417 123 c 128,-1,38
 501 62 501 62 614 62 c 256,23,24
158 882 m 1,39,-1
 158 1277 l 2,40,41
 158 1386 158 1386 214.5 1439 c 128,-1,42
 271 1492 271 1492 378 1492 c 0,43,44
 399 1492 399 1492 421 1492 c 128,-1,45
 443 1492 443 1492 460 1492 c 1,46,-1
 460 1411 l 1,47,48
 443 1411 443 1411 421.5 1411 c 128,-1,49
 400 1411 400 1411 386 1411 c 0,50,51
 313 1411 313 1411 280 1380 c 128,-1,52
 247 1349 247 1349 247 1277 c 2,53,-1
 247 882 l 1,54,-1
 158 882 l 1,39,-1
EndSplineSet
EndChar

StartChar: thorn
Encoding: 254 254 586
Width: 1171
Flags: W
LayerCount: 2
Fore
SplineSet
624 -21 m 0,0,1
 532 -21 532 -21 457.5 14 c 128,-1,2
 383 49 383 49 331 109 c 128,-1,3
 279 169 279 169 252 243 c 1,4,-1
 247 243 l 1,5,-1
 247 -418 l 1,6,-1
 158 -418 l 1,7,-1
 158 1490 l 1,8,-1
 247 1490 l 1,9,-1
 247 841 l 1,10,-1
 252 841 l 1,11,12
 278 915 278 915 330 974.5 c 128,-1,13
 382 1034 382 1034 456.5 1068.5 c 128,-1,14
 531 1103 531 1103 623 1103 c 0,15,16
 757 1103 757 1103 859.5 1032.5 c 128,-1,17
 962 962 962 962 1019.5 835 c 128,-1,18
 1077 708 1077 708 1077 542 c 0,19,20
 1077 375 1077 375 1019.5 248.5 c 128,-1,21
 962 122 962 122 860.5 50.5 c 128,-1,22
 759 -21 759 -21 624 -21 c 0,0,1
615 62 m 0,23,24
 727 62 727 62 810.5 123 c 128,-1,25
 894 184 894 184 941 292 c 128,-1,26
 988 400 988 400 988 542 c 0,27,28
 988 685 988 685 941.5 793 c 128,-1,29
 895 901 895 901 811 961 c 128,-1,30
 727 1021 727 1021 615 1021 c 0,31,32
 502 1021 502 1021 418.5 960.5 c 128,-1,33
 335 900 335 900 289.5 792 c 128,-1,34
 244 684 244 684 244 542 c 0,35,36
 244 401 244 401 289.5 293 c 128,-1,37
 335 185 335 185 418.5 123.5 c 128,-1,38
 502 62 502 62 615 62 c 0,23,24
EndSplineSet
EndChar

StartChar: c
Encoding: 99 99 587
Width: 1078
GlyphClass: 2
Flags: W
AnchorPoint: "Anchor-3" 571 0 basechar 0
AnchorPoint: "Anchor-1" 571 1087 basechar 0
AnchorPoint: "Anchor-0" 571 0 basechar 0
LayerCount: 2
Fore
SplineSet
571 -19 m 0,0,1
 432 -19 432 -19 324.5 53.5 c 128,-1,2
 217 126 217 126 156 253 c 128,-1,3
 95 380 95 380 95 542 c 0,4,5
 95 707 95 707 156 833.5 c 128,-1,6
 217 960 217 960 324.5 1032 c 128,-1,7
 432 1104 432 1104 571 1104 c 0,8,9
 657 1104 657 1104 728 1076.5 c 128,-1,10
 799 1049 799 1049 853 1003.5 c 128,-1,11
 907 958 907 958 941 903 c 128,-1,12
 975 848 975 848 987 793 c 1,13,-1
 900 777 l 1,14,15
 891 819 891 819 864.5 861.5 c 128,-1,16
 838 904 838 904 796 940.5 c 128,-1,17
 754 977 754 977 698 999.5 c 128,-1,18
 642 1022 642 1022 571 1022 c 0,19,20
 455 1022 455 1022 368.5 960 c 128,-1,21
 282 898 282 898 233.5 789.5 c 128,-1,22
 185 681 185 681 185 542 c 0,23,24
 185 404 185 404 233.5 296 c 128,-1,25
 282 188 282 188 369 126.5 c 128,-1,26
 456 65 456 65 571 65 c 0,27,28
 641 65 641 65 697.5 87 c 128,-1,29
 754 109 754 109 796 146 c 128,-1,30
 838 183 838 183 865 225.5 c 128,-1,31
 892 268 892 268 902 311 c 1,32,-1
 989 294 l 1,33,34
 977 240 977 240 943 185 c 128,-1,35
 909 130 909 130 854.5 84 c 128,-1,36
 800 38 800 38 728.5 9.5 c 128,-1,37
 657 -19 657 -19 571 -19 c 0,0,1
EndSplineSet
Substitution2: "'sups' Superscript in Latin lookup 39 subtable" c.sups
Substitution2: "'subs' Subscript in Latin lookup 38 subtable" c.subs
Substitution2: "'sinf' Scientific Inferiors in Latin lookup 18 subtable" c.subs
AlternateSubs2: "'aalt' Access All Alternates in Latin lookup 1 subtable" c.sups c.subs
EndChar

StartChar: uni023C
Encoding: 572 572 588
Width: 1078
GlyphClass: 2
Flags: W
AnchorPoint: "Anchor-3" 571 0 basechar 0
AnchorPoint: "Anchor-1" 571 1087 basechar 0
AnchorPoint: "Anchor-0" 571 0 basechar 0
LayerCount: 2
Fore
SplineSet
164 -418 m 1,0,-1
 869 1505 l 1,1,-1
 947 1505 l 1,2,-1
 242 -418 l 1,3,-1
 164 -418 l 1,0,-1
571 -19 m 0,4,5
 432 -19 432 -19 324.5 53.5 c 128,-1,6
 217 126 217 126 156 253 c 128,-1,7
 95 380 95 380 95 542 c 0,8,9
 95 707 95 707 156 833.5 c 128,-1,10
 217 960 217 960 324.5 1032 c 128,-1,11
 432 1104 432 1104 571 1104 c 0,12,13
 657 1104 657 1104 728 1076.5 c 128,-1,14
 799 1049 799 1049 853 1003.5 c 128,-1,15
 907 958 907 958 941 903 c 128,-1,16
 975 848 975 848 987 793 c 1,17,-1
 900 777 l 1,18,19
 891 819 891 819 864.5 861.5 c 128,-1,20
 838 904 838 904 796 940.5 c 128,-1,21
 754 977 754 977 698 999.5 c 128,-1,22
 642 1022 642 1022 571 1022 c 0,23,24
 455 1022 455 1022 368.5 960 c 128,-1,25
 282 898 282 898 233.5 789.5 c 128,-1,26
 185 681 185 681 185 542 c 0,27,28
 185 404 185 404 233.5 296 c 128,-1,29
 282 188 282 188 369 126.5 c 128,-1,30
 456 65 456 65 571 65 c 0,31,32
 641 65 641 65 697.5 87 c 128,-1,33
 754 109 754 109 796 146 c 128,-1,34
 838 183 838 183 865 225.5 c 128,-1,35
 892 268 892 268 902 311 c 1,36,-1
 989 294 l 1,37,38
 977 240 977 240 943 185 c 128,-1,39
 909 130 909 130 854.5 84 c 128,-1,40
 800 38 800 38 728.5 9.5 c 128,-1,41
 657 -19 657 -19 571 -19 c 0,4,5
EndSplineSet
Ligature2: "'ccmp' Glyph Composition/Decomposition in Latin lookup 6 subtable" c uni0338
EndChar

StartChar: uni0188
Encoding: 392 392 589
Width: 1150
GlyphClass: 2
Flags: W
AnchorPoint: "Anchor-3" 571 0 basechar 0
AnchorPoint: "Anchor-1" 571 1087 basechar 0
AnchorPoint: "Anchor-0" 571 0 basechar 0
LayerCount: 2
Fore
SplineSet
909 784 m 1,0,-1
 852 1022 l 1,1,2
 820 1137 820 1137 870 1197.5 c 128,-1,3
 920 1258 920 1258 1032 1258 c 0,4,5
 1052 1258 1052 1258 1073.5 1258 c 128,-1,6
 1095 1258 1095 1258 1112 1256 c 1,7,-1
 1112 1176 l 1,8,9
 1093 1178 1093 1178 1070 1177.5 c 128,-1,10
 1047 1177 1047 1177 1033 1177 c 0,11,12
 966 1177 966 1177 940 1143 c 128,-1,13
 914 1109 914 1109 932 1037 c 2,14,-1
 987 793 l 1,15,-1
 909 784 l 1,0,-1
571 -19 m 0,16,17
 432 -19 432 -19 324.5 53.5 c 128,-1,18
 217 126 217 126 156 253 c 128,-1,19
 95 380 95 380 95 542 c 0,20,21
 95 707 95 707 156 833.5 c 128,-1,22
 217 960 217 960 324.5 1032 c 128,-1,23
 432 1104 432 1104 571 1104 c 0,24,25
 657 1104 657 1104 728 1076.5 c 128,-1,26
 799 1049 799 1049 853 1003.5 c 128,-1,27
 907 958 907 958 941 903 c 128,-1,28
 975 848 975 848 987 793 c 1,29,-1
 900 777 l 1,30,31
 891 819 891 819 864.5 861.5 c 128,-1,32
 838 904 838 904 796 940.5 c 128,-1,33
 754 977 754 977 698 999.5 c 128,-1,34
 642 1022 642 1022 571 1022 c 0,35,36
 455 1022 455 1022 368.5 960 c 128,-1,37
 282 898 282 898 233.5 789.5 c 128,-1,38
 185 681 185 681 185 542 c 0,39,40
 185 404 185 404 233.5 296 c 128,-1,41
 282 188 282 188 369 126.5 c 128,-1,42
 456 65 456 65 571 65 c 0,43,44
 641 65 641 65 697.5 87 c 128,-1,45
 754 109 754 109 796 146 c 128,-1,46
 838 183 838 183 865 225.5 c 128,-1,47
 892 268 892 268 902 311 c 1,48,-1
 989 294 l 1,49,50
 977 240 977 240 943 185 c 128,-1,51
 909 130 909 130 854.5 84 c 128,-1,52
 800 38 800 38 728.5 9.5 c 128,-1,53
 657 -19 657 -19 571 -19 c 0,16,17
EndSplineSet
EndChar

StartChar: d
Encoding: 100 100 598
Width: 1171
GlyphClass: 2
Flags: W
AnchorPoint: "Anchor-1" 546 1283 basechar 0
LayerCount: 2
Fore
SplineSet
549 -21 m 0,0,1
 415 -21 415 -21 312.5 50.5 c 128,-1,2
 210 122 210 122 152.5 248.5 c 128,-1,3
 95 375 95 375 95 542 c 0,4,5
 95 708 95 708 153 835 c 128,-1,6
 211 962 211 962 313 1032.5 c 128,-1,7
 415 1103 415 1103 548 1103 c 0,8,9
 641 1103 641 1103 716 1068.5 c 128,-1,10
 791 1034 791 1034 843 974.5 c 128,-1,11
 895 915 895 915 920 841 c 1,12,-1
 924 841 l 1,13,-1
 924 1490 l 1,14,-1
 1013 1490 l 1,15,-1
 1013 0 l 1,16,-1
 926 0 l 1,17,-1
 926 243 l 1,18,-1
 920 243 l 1,19,20
 894 169 894 169 841.5 109 c 128,-1,21
 789 49 789 49 715 14 c 128,-1,22
 641 -21 641 -21 549 -21 c 0,0,1
557 62 m 0,23,24
 671 62 671 62 754 123.5 c 128,-1,25
 837 185 837 185 882 293 c 128,-1,26
 927 401 927 401 927 542 c 0,27,28
 927 684 927 684 882 792 c 128,-1,29
 837 900 837 900 754 960.5 c 128,-1,30
 671 1021 671 1021 557 1021 c 0,31,32
 446 1021 446 1021 362 961 c 128,-1,33
 278 901 278 901 231.5 793 c 128,-1,34
 185 685 185 685 185 542 c 0,35,36
 185 400 185 400 231.5 292 c 128,-1,37
 278 184 278 184 362 123 c 128,-1,38
 446 62 446 62 557 62 c 0,23,24
EndSplineSet
Substitution2: "'sups' Superscript in Latin lookup 39 subtable" d.sups
Substitution2: "'subs' Subscript in Latin lookup 38 subtable" d.subs
Substitution2: "'sinf' Scientific Inferiors in Latin lookup 18 subtable" d.subs
AlternateSubs2: "'aalt' Access All Alternates in Latin lookup 1 subtable" d.sups d.subs
EndChar

StartChar: drthook
Encoding: 598 598 600
Width: 1171
GlyphClass: 2
Flags: W
AnchorPoint: "Anchor-1" 546 1283 basechar 0
LayerCount: 2
Fore
SplineSet
1141 -419 m 0,0,1
 1034 -419 1034 -419 979 -365.5 c 128,-1,2
 924 -312 924 -312 924 -203 c 2,3,-1
 924 255 l 1,4,-1
 1012 255 l 1,5,-1
 1012 -203 l 2,6,7
 1012 -276 1012 -276 1044 -307 c 128,-1,8
 1076 -338 1076 -338 1149 -338 c 0,9,10
 1163 -338 1163 -338 1184.5 -338 c 128,-1,11
 1206 -338 1206 -338 1223 -338 c 1,12,-1
 1223 -418 l 1,13,14
 1206 -419 1206 -419 1184.5 -419 c 128,-1,15
 1163 -419 1163 -419 1141 -419 c 0,0,1
549 -21 m 0,16,17
 415 -21 415 -21 312.5 50.5 c 128,-1,18
 210 122 210 122 152.5 248.5 c 128,-1,19
 95 375 95 375 95 542 c 0,20,21
 95 708 95 708 153 835 c 128,-1,22
 211 962 211 962 313 1032.5 c 128,-1,23
 415 1103 415 1103 548 1103 c 0,24,25
 641 1103 641 1103 716 1068.5 c 128,-1,26
 791 1034 791 1034 843 974.5 c 128,-1,27
 895 915 895 915 920 841 c 1,28,-1
 924 841 l 1,29,-1
 924 1490 l 1,30,-1
 1013 1490 l 1,31,-1
 1013 0 l 1,32,-1
 926 0 l 1,33,-1
 926 243 l 1,34,-1
 920 243 l 1,35,36
 894 169 894 169 841.5 109 c 128,-1,37
 789 49 789 49 715 14 c 128,-1,38
 641 -21 641 -21 549 -21 c 0,16,17
557 62 m 0,39,40
 671 62 671 62 754 123.5 c 128,-1,41
 837 185 837 185 882 293 c 128,-1,42
 927 401 927 401 927 542 c 0,43,44
 927 684 927 684 882 792 c 128,-1,45
 837 900 837 900 754 960.5 c 128,-1,46
 671 1021 671 1021 557 1021 c 0,47,48
 446 1021 446 1021 362 961 c 128,-1,49
 278 901 278 901 231.5 793 c 128,-1,50
 185 685 185 685 185 542 c 0,51,52
 185 400 185 400 231.5 292 c 128,-1,53
 278 184 278 184 362 123 c 128,-1,54
 446 62 446 62 557 62 c 0,39,40
EndSplineSet
EndChar

StartChar: uni0257
Encoding: 599 599 601
Width: 1172
GlyphClass: 2
Flags: W
AnchorPoint: "Anchor-4" 1014 0 basechar 0
AnchorPoint: "Anchor-1" 567 1087 basechar 0
AnchorPoint: "Anchor-0" 572 0 basechar 0
LayerCount: 2
Fore
SplineSet
925 862 m 1,0,-1
 925 1257 l 2,1,2
 925 1366 925 1366 981 1419 c 128,-1,3
 1037 1472 1037 1472 1145 1472 c 0,4,5
 1166 1472 1166 1472 1187.5 1472 c 128,-1,6
 1209 1472 1209 1472 1227 1471 c 1,7,-1
 1227 1390 l 1,8,9
 1210 1390 1210 1390 1188 1390.5 c 128,-1,10
 1166 1391 1166 1391 1152 1391 c 0,11,12
 1080 1391 1080 1391 1047 1359.5 c 128,-1,13
 1014 1328 1014 1328 1014 1257 c 2,14,-1
 1014 862 l 1,15,-1
 925 862 l 1,0,-1
548 -21 m 0,16,17
 415 -21 415 -21 313 50.5 c 128,-1,18
 211 122 211 122 153 248.5 c 128,-1,19
 95 375 95 375 95 542 c 0,20,21
 95 708 95 708 153 835 c 128,-1,22
 211 962 211 962 313.5 1032.5 c 128,-1,23
 416 1103 416 1103 549 1103 c 0,24,25
 643 1103 643 1103 717 1068.5 c 128,-1,26
 791 1034 791 1034 843.5 974.5 c 128,-1,27
 896 915 896 915 920 841 c 1,28,-1
 926 841 l 1,29,-1
 926 1087 l 1,30,-1
 1014 1087 l 1,31,-1
 1014 0 l 1,32,-1
 925 0 l 1,33,-1
 925 243 l 1,34,-1
 920 243 l 1,35,36
 894 169 894 169 841.5 109 c 128,-1,37
 789 49 789 49 715 14 c 128,-1,38
 641 -21 641 -21 548 -21 c 0,16,17
558 62 m 0,39,40
 672 62 672 62 755 123.5 c 128,-1,41
 838 185 838 185 882.5 293 c 128,-1,42
 927 401 927 401 927 542 c 0,43,44
 927 684 927 684 882.5 792 c 128,-1,45
 838 900 838 900 755 960.5 c 128,-1,46
 672 1021 672 1021 558 1021 c 0,47,48
 447 1021 447 1021 362.5 961 c 128,-1,49
 278 901 278 901 231.5 793.5 c 128,-1,50
 185 686 185 686 185 542 c 0,51,52
 185 400 185 400 232 292 c 128,-1,53
 279 184 279 184 362.5 123 c 128,-1,54
 446 62 446 62 558 62 c 0,39,40
EndSplineSet
EndChar

StartChar: uni018C
Encoding: 396 396 602
Width: 1171
GlyphClass: 2
Flags: W
AnchorPoint: "Anchor-1" 546 1283 basechar 0
LayerCount: 2
Fore
SplineSet
968 1409 m 1,0,-1
 280 1409 l 1,1,-1
 280 1490 l 1,2,-1
 1013 1490 l 1,3,-1
 968 1409 l 1,0,-1
549 -21 m 0,4,5
 415 -21 415 -21 312.5 50.5 c 128,-1,6
 210 122 210 122 152.5 248.5 c 128,-1,7
 95 375 95 375 95 542 c 0,8,9
 95 708 95 708 153 835 c 128,-1,10
 211 962 211 962 313 1032.5 c 128,-1,11
 415 1103 415 1103 548 1103 c 0,12,13
 641 1103 641 1103 716 1068.5 c 128,-1,14
 791 1034 791 1034 843 974.5 c 128,-1,15
 895 915 895 915 920 841 c 1,16,-1
 924 841 l 1,17,-1
 924 1490 l 1,18,-1
 1013 1490 l 1,19,-1
 1013 0 l 1,20,-1
 926 0 l 1,21,-1
 926 243 l 1,22,-1
 920 243 l 1,23,24
 894 169 894 169 841.5 109 c 128,-1,25
 789 49 789 49 715 14 c 128,-1,26
 641 -21 641 -21 549 -21 c 0,4,5
557 62 m 0,27,28
 671 62 671 62 754 123.5 c 128,-1,29
 837 185 837 185 882 293 c 128,-1,30
 927 401 927 401 927 542 c 0,31,32
 927 684 927 684 882 792 c 128,-1,33
 837 900 837 900 754 960.5 c 128,-1,34
 671 1021 671 1021 557 1021 c 0,35,36
 446 1021 446 1021 362 961 c 128,-1,37
 278 901 278 901 231.5 793 c 128,-1,38
 185 685 185 685 185 542 c 0,39,40
 185 400 185 400 231.5 292 c 128,-1,41
 278 184 278 184 362 123 c 128,-1,42
 446 62 446 62 557 62 c 0,27,28
EndSplineSet
EndChar

StartChar: uni0221
Encoding: 545 545 603
Width: 1491
GlyphClass: 2
Flags: W
AnchorPoint: "Anchor-1" 546 1283 basechar 0
LayerCount: 2
Fore
SplineSet
1199 -413 m 0,0,1
 1112 -413 1112 -413 1050 -376 c 128,-1,2
 988 -339 988 -339 955.5 -277.5 c 128,-1,3
 923 -216 923 -216 923 -141 c 2,4,-1
 923 121 l 1,5,-1
 1012 121 l 1,6,-1
 1012 -147 l 2,7,8
 1012 -233 1012 -233 1066 -282 c 128,-1,9
 1120 -331 1120 -331 1199 -331 c 0,10,11
 1276 -331 1276 -331 1325.5 -287.5 c 128,-1,12
 1375 -244 1375 -244 1375 -174 c 0,13,14
 1375 -105 1375 -105 1326 -61 c 128,-1,15
 1277 -17 1277 -17 1203 -15 c 0,16,17
 1153 -13 1153 -13 1108 -34 c 128,-1,18
 1063 -55 1063 -55 1017.5 -103 c 128,-1,19
 972 -151 972 -151 919 -231 c 1,20,-1
 786 -392 l 1,21,-1
 722 -336 l 1,22,-1
 842 -189 l 1,23,24
 939 -52 939 -52 1024 7 c 128,-1,25
 1109 66 1109 66 1201 66 c 0,26,27
 1313 66 1313 66 1390 0 c 128,-1,28
 1467 -66 1467 -66 1467 -174 c 0,29,30
 1467 -281 1467 -281 1391.5 -347 c 128,-1,31
 1316 -413 1316 -413 1199 -413 c 0,0,1
549 -21 m 0,32,33
 415 -21 415 -21 312.5 50.5 c 128,-1,34
 210 122 210 122 152.5 248.5 c 128,-1,35
 95 375 95 375 95 542 c 0,36,37
 95 708 95 708 153 835 c 128,-1,38
 211 962 211 962 313 1032.5 c 128,-1,39
 415 1103 415 1103 548 1103 c 0,40,41
 641 1103 641 1103 716 1068.5 c 128,-1,42
 791 1034 791 1034 843 974.5 c 128,-1,43
 895 915 895 915 920 841 c 1,44,-1
 924 841 l 1,45,-1
 924 1490 l 1,46,-1
 1013 1490 l 1,47,-1
 1013 0 l 1,48,-1
 926 0 l 1,49,-1
 926 243 l 1,50,-1
 920 243 l 1,51,52
 894 169 894 169 841.5 109 c 128,-1,53
 789 49 789 49 715 14 c 128,-1,54
 641 -21 641 -21 549 -21 c 0,32,33
557 62 m 0,55,56
 671 62 671 62 754 123.5 c 128,-1,57
 837 185 837 185 882 293 c 128,-1,58
 927 401 927 401 927 542 c 0,59,60
 927 684 927 684 882 792 c 128,-1,61
 837 900 837 900 754 960.5 c 128,-1,62
 671 1021 671 1021 557 1021 c 0,63,64
 446 1021 446 1021 362 961 c 128,-1,65
 278 901 278 901 231.5 793 c 128,-1,66
 185 685 185 685 185 542 c 0,67,68
 185 400 185 400 231.5 292 c 128,-1,69
 278 184 278 184 362 123 c 128,-1,70
 446 62 446 62 557 62 c 0,55,56
EndSplineSet
EndChar

StartChar: uni02A3
Encoding: 675 675 611
Width: 2070
GlyphClass: 2
Flags: W
AnchorPoint: "Anchor-1" 546 1283 basechar 0
LayerCount: 2
Fore
SplineSet
1173 0 m 1,0,-1
 1173 74 l 1,1,-1
 1829 1000 l 1,2,-1
 1829 1004 l 1,3,-1
 972 1004 l 1,4,-1
 972 1087 l 1,5,-1
 1938 1087 l 1,6,-1
 1938 1009 l 1,7,-1
 1287 88 l 1,8,-1
 1287 83 l 1,9,-1
 1954 83 l 1,10,-1
 1954 0 l 1,11,-1
 1173 0 l 1,0,-1
549 -21 m 0,12,13
 415 -21 415 -21 312.5 50.5 c 128,-1,14
 210 122 210 122 152.5 248.5 c 128,-1,15
 95 375 95 375 95 542 c 0,16,17
 95 708 95 708 153 835 c 128,-1,18
 211 962 211 962 313 1032.5 c 128,-1,19
 415 1103 415 1103 548 1103 c 0,20,21
 641 1103 641 1103 716 1068.5 c 128,-1,22
 791 1034 791 1034 843 974.5 c 128,-1,23
 895 915 895 915 920 841 c 1,24,-1
 924 841 l 1,25,-1
 924 1490 l 1,26,-1
 1013 1490 l 1,27,-1
 1013 0 l 1,28,-1
 926 0 l 1,29,-1
 926 243 l 1,30,-1
 920 243 l 1,31,32
 894 169 894 169 841.5 109 c 128,-1,33
 789 49 789 49 715 14 c 128,-1,34
 641 -21 641 -21 549 -21 c 0,12,13
557 62 m 0,35,36
 671 62 671 62 754 123.5 c 128,-1,37
 837 185 837 185 882 293 c 128,-1,38
 927 401 927 401 927 542 c 0,39,40
 927 684 927 684 882 792 c 128,-1,41
 837 900 837 900 754 960.5 c 128,-1,42
 671 1021 671 1021 557 1021 c 0,43,44
 446 1021 446 1021 362 961 c 128,-1,45
 278 901 278 901 231.5 793 c 128,-1,46
 185 685 185 685 185 542 c 0,47,48
 185 400 185 400 231.5 292 c 128,-1,49
 278 184 278 184 362 123 c 128,-1,50
 446 62 446 62 557 62 c 0,35,36
EndSplineSet
EndChar

StartChar: dyogh
Encoding: 676 676 613
Width: 1961
GlyphClass: 2
Flags: W
AnchorPoint: "Anchor-1" 546 1283 basechar 0
LayerCount: 2
Fore
SplineSet
1019 -88 m 1,0,1
 1033 -167 1033 -167 1084.5 -225.5 c 128,-1,2
 1136 -284 1136 -284 1215.5 -317 c 128,-1,3
 1295 -350 1295 -350 1390 -350 c 0,4,5
 1507 -350 1507 -350 1591.5 -302.5 c 128,-1,6
 1676 -255 1676 -255 1721 -175 c 128,-1,7
 1766 -95 1766 -95 1766 4 c 0,8,9
 1766 115 1766 115 1711 196.5 c 128,-1,10
 1656 278 1656 278 1557 321.5 c 128,-1,11
 1458 365 1458 365 1323 365 c 2,12,-1
 1247 365 l 1,13,-1
 1247 443 l 1,14,-1
 1689 1001 l 1,15,-1
 1689 1004 l 1,16,-1
 966 1004 l 1,17,-1
 966 1088 l 1,18,-1
 1811 1088 l 1,19,-1
 1811 1019 l 1,20,-1
 1353 442 l 1,21,-1
 1353 439 l 1,22,23
 1499 437 1499 437 1613 382.5 c 128,-1,24
 1727 328 1727 328 1791 231 c 128,-1,25
 1855 134 1855 134 1855 4 c 0,26,27
 1855 -118 1855 -118 1798 -217.5 c 128,-1,28
 1741 -317 1741 -317 1636 -375.5 c 128,-1,29
 1531 -434 1531 -434 1390 -434 c 0,30,31
 1270 -434 1270 -434 1170.5 -390.5 c 128,-1,32
 1071 -347 1071 -347 1007 -268.5 c 128,-1,33
 943 -190 943 -190 928 -88 c 1,34,-1
 1019 -88 l 1,0,1
549 -21 m 0,35,36
 415 -21 415 -21 312.5 50.5 c 128,-1,37
 210 122 210 122 152.5 248.5 c 128,-1,38
 95 375 95 375 95 542 c 0,39,40
 95 708 95 708 153 835 c 128,-1,41
 211 962 211 962 313 1032.5 c 128,-1,42
 415 1103 415 1103 548 1103 c 0,43,44
 641 1103 641 1103 716 1068.5 c 128,-1,45
 791 1034 791 1034 843 974.5 c 128,-1,46
 895 915 895 915 920 841 c 1,47,-1
 924 841 l 1,48,-1
 924 1490 l 1,49,-1
 1013 1490 l 1,50,-1
 1013 0 l 1,51,-1
 926 0 l 1,52,-1
 926 243 l 1,53,-1
 920 243 l 1,54,55
 894 169 894 169 841.5 109 c 128,-1,56
 789 49 789 49 715 14 c 128,-1,57
 641 -21 641 -21 549 -21 c 0,35,36
557 62 m 0,58,59
 671 62 671 62 754 123.5 c 128,-1,60
 837 185 837 185 882 293 c 128,-1,61
 927 401 927 401 927 542 c 0,62,63
 927 684 927 684 882 792 c 128,-1,64
 837 900 837 900 754 960.5 c 128,-1,65
 671 1021 671 1021 557 1021 c 0,66,67
 446 1021 446 1021 362 961 c 128,-1,68
 278 901 278 901 231.5 793 c 128,-1,69
 185 685 185 685 185 542 c 0,70,71
 185 400 185 400 231.5 292 c 128,-1,72
 278 184 278 184 362 123 c 128,-1,73
 446 62 446 62 557 62 c 0,58,59
EndSplineSet
EndChar

StartChar: e
Encoding: 101 101 615
Width: 1122
GlyphClass: 2
Flags: W
AnchorPoint: "Anchor-4" 1005 267 basechar 0
AnchorPoint: "Anchor-3" 569 0 basechar 0
AnchorPoint: "Anchor-1" 565 1087 basechar 0
AnchorPoint: "Anchor-0" 565 0 basechar 0
LayerCount: 2
Fore
SplineSet
580 -21 m 0,0,1
 434 -21 434 -21 324.5 51.5 c 128,-1,2
 215 124 215 124 155 251.5 c 128,-1,3
 95 379 95 379 95 541 c 0,4,5
 95 704 95 704 155.5 831 c 128,-1,6
 216 958 216 958 323 1031 c 128,-1,7
 430 1104 430 1104 568 1104 c 0,8,9
 667 1104 667 1104 752 1066 c 128,-1,10
 837 1028 837 1028 900.5 956 c 128,-1,11
 964 884 964 884 998.5 784.5 c 128,-1,12
 1033 685 1033 685 1033 563 c 2,13,-1
 1033 526 l 1,14,-1
 146 526 l 1,15,-1
 146 606 l 1,16,-1
 983 606 l 1,17,-1
 945 578 l 1,18,19
 945 706 945 706 897 806.5 c 128,-1,20
 849 907 849 907 764.5 964 c 128,-1,21
 680 1021 680 1021 568 1021 c 256,22,23
 456 1021 456 1021 369.5 961.5 c 128,-1,24
 283 902 283 902 233.5 799.5 c 128,-1,25
 184 697 184 697 184 566 c 2,26,-1
 184 534 l 2,27,28
 184 398 184 398 232.5 291 c 128,-1,29
 281 184 281 184 370 123 c 128,-1,30
 459 62 459 62 581 62 c 0,31,32
 669 62 669 62 737.5 93 c 128,-1,33
 806 124 806 124 852.5 174.5 c 128,-1,34
 899 225 899 225 919 284 c 1,35,-1
 1005 267 l 1,36,37
 982 190 982 190 922.5 124 c 128,-1,38
 863 58 863 58 776 18.5 c 128,-1,39
 689 -21 689 -21 580 -21 c 0,0,1
EndSplineSet
Substitution2: "'sups' Superscript in Latin lookup 39 subtable" e.sups
Substitution2: "'subs' Subscript in Latin lookup 38 subtable" e.subs
Substitution2: "'sinf' Scientific Inferiors in Latin lookup 18 subtable" e.subs
AlternateSubs2: "'aalt' Access All Alternates in Latin lookup 1 subtable" e.sups e.subs
EndChar

StartChar: uni0247
Encoding: 583 583 617
Width: 1143
GlyphClass: 2
Flags: W
AnchorPoint: "Anchor-4" 1027 267 basechar 0
AnchorPoint: "Anchor-3" 590 0 basechar 0
AnchorPoint: "Anchor-1" 586 1087 basechar 0
AnchorPoint: "Anchor-0" 586 0 basechar 0
LayerCount: 2
Fore
SplineSet
105 -418 m 1,0,-1
 943 1490 l 1,1,-1
 1021 1490 l 1,2,-1
 187 -418 l 1,3,-1
 105 -418 l 1,0,-1
602 -21 m 0,4,5
 456 -21 456 -21 346.5 51.5 c 128,-1,6
 237 124 237 124 176.5 251.5 c 128,-1,7
 116 379 116 379 116 541 c 0,8,9
 116 704 116 704 176.5 831 c 128,-1,10
 237 958 237 958 344.5 1031 c 128,-1,11
 452 1104 452 1104 590 1104 c 0,12,13
 689 1104 689 1104 773.5 1066 c 128,-1,14
 858 1028 858 1028 921.5 956 c 128,-1,15
 985 884 985 884 1019.5 784.5 c 128,-1,16
 1054 685 1054 685 1054 563 c 2,17,-1
 1054 526 l 1,18,-1
 167 526 l 1,19,-1
 167 606 l 1,20,-1
 1004 606 l 1,21,-1
 966 578 l 1,22,23
 966 706 966 706 918 806.5 c 128,-1,24
 870 907 870 907 785.5 964 c 128,-1,25
 701 1021 701 1021 590 1021 c 0,26,27
 478 1021 478 1021 391.5 961.5 c 128,-1,28
 305 902 305 902 255 799.5 c 128,-1,29
 205 697 205 697 205 566 c 2,30,-1
 205 534 l 2,31,32
 205 398 205 398 254 291 c 128,-1,33
 303 184 303 184 391.5 123 c 128,-1,34
 480 62 480 62 603 62 c 0,35,36
 690 62 690 62 758.5 93 c 128,-1,37
 827 124 827 124 874 174.5 c 128,-1,38
 921 225 921 225 941 284 c 1,39,-1
 1027 267 l 1,40,41
 1003 190 1003 190 944 124 c 128,-1,42
 885 58 885 58 798 18.5 c 128,-1,43
 711 -21 711 -21 602 -21 c 0,4,5
EndSplineSet
EndChar

StartChar: eturn
Encoding: 477 477 646
Width: 1122
GlyphClass: 2
Flags: W
AnchorPoint: "Anchor-4" 691 -20 basechar 0
AnchorPoint: "Anchor-3" 590 0 basechar 0
AnchorPoint: "Anchor-1" 593 1087 basechar 0
AnchorPoint: "Anchor-0" 588 0 basechar 0
LayerCount: 2
Fore
SplineSet
542 1108 m 0,0,1
 689 1108 689 1108 798.5 1035.5 c 128,-1,2
 908 963 908 963 967.5 836.5 c 128,-1,3
 1027 710 1027 710 1027 546 c 0,4,5
 1027 385 1027 385 966.5 257.5 c 128,-1,6
 906 130 906 130 799.5 56.5 c 128,-1,7
 693 -17 693 -17 555 -17 c 0,8,9
 455 -17 455 -17 370.5 22 c 128,-1,10
 286 61 286 61 223 132 c 128,-1,11
 160 203 160 203 124.5 303 c 128,-1,12
 89 403 89 403 89 526 c 2,13,-1
 89 563 l 1,14,-1
 976 563 l 1,15,-1
 976 483 l 1,16,-1
 140 483 l 1,17,-1
 179 509 l 1,18,19
 179 382 179 382 227 281.5 c 128,-1,20
 275 181 275 181 359.5 123.5 c 128,-1,21
 444 66 444 66 555 66 c 256,22,23
 666 66 666 66 753 125.5 c 128,-1,24
 840 185 840 185 889 288 c 128,-1,25
 938 391 938 391 938 522 c 2,26,-1
 938 553 l 2,27,28
 938 690 938 690 890 796.5 c 128,-1,29
 842 903 842 903 753 964 c 128,-1,30
 664 1025 664 1025 542 1025 c 0,31,32
 454 1025 454 1025 385 994.5 c 128,-1,33
 316 964 316 964 270 913 c 128,-1,34
 224 862 224 862 203 803 c 1,35,-1
 117 820 l 1,36,37
 141 899 141 899 200 964 c 128,-1,38
 259 1029 259 1029 346.5 1068.5 c 128,-1,39
 434 1108 434 1108 542 1108 c 0,0,1
EndSplineSet
EndChar

StartChar: _part.f_base
Encoding: 1114123 -1 647
Width: 647
GlyphClass: 2
Flags: W
AnchorPoint: "Anchor-1" 376 1521 basechar 0
AnchorPoint: "Anchor-0" 292 0 basechar 0
LayerCount: 2
Fore
SplineSet
247 0 m 1,0,-1
 247 1283 l 2,1,2
 247 1359 247 1359 278.5 1413 c 128,-1,3
 310 1467 310 1467 365 1495.5 c 128,-1,4
 420 1524 420 1524 493 1524 c 0,5,6
 527 1524 527 1524 554.5 1521 c 128,-1,7
 582 1518 582 1518 599 1513 c 1,8,-1
 586 1433 l 1,9,10
 570 1437 570 1437 547 1439.5 c 128,-1,11
 524 1442 524 1442 500 1442 c 0,12,13
 421 1442 421 1442 378.5 1398.5 c 128,-1,14
 336 1355 336 1355 336 1272 c 2,15,-1
 336 0 l 1,16,-1
 247 0 l 1,0,-1
EndSplineSet
EndChar

StartChar: f
Encoding: 102 102 648
Width: 594
GlyphClass: 2
Flags: W
AnchorPoint: "Anchor-1" 343 1521 basechar 0
AnchorPoint: "Anchor-0" 257 0 basechar 0
LayerCount: 2
Fore
SplineSet
550 1087 m 1,0,-1
 550 1006 l 1,1,-1
 10 1006 l 1,2,-1
 10 1087 l 1,3,-1
 550 1087 l 1,0,-1
213 0 m 1,4,-1
 213 1283 l 2,5,6
 213 1359 213 1359 244.5 1413 c 128,-1,7
 276 1467 276 1467 331.5 1495.5 c 128,-1,8
 387 1524 387 1524 459 1524 c 0,9,10
 492 1524 492 1524 519.5 1521 c 128,-1,11
 547 1518 547 1518 566 1513 c 1,12,-1
 553 1433 l 1,13,14
 536 1437 536 1437 513 1439.5 c 128,-1,15
 490 1442 490 1442 465 1442 c 0,16,17
 386 1442 386 1442 344 1398.5 c 128,-1,18
 302 1355 302 1355 302 1272 c 2,19,-1
 302 0 l 1,20,-1
 213 0 l 1,4,-1
EndSplineSet
Substitution2: "'cv12' Character Variants 12 in Latin lookup 66 subtable" f.1
Substitution2: "'salt' Stylistic Alternatives in Latin lookup 46 subtable" f.1
Substitution2: "'sups' Superscript in Latin lookup 39 subtable" f.sups
Substitution2: "'subs' Subscript in Latin lookup 38 subtable" f.subs
Substitution2: "Single Substitution lookup 36 subtable" f.1
Substitution2: "Single Substitution lookup 35 subtable" f.i.1
Substitution2: "Single Substitution lookup 34 subtable" f.i
Substitution2: "'sinf' Scientific Inferiors in Latin lookup 18 subtable" f.subs
AlternateSubs2: "'aalt' Access All Alternates in Latin lookup 1 subtable" f.sups f.subs
EndChar

StartChar: f.1
Encoding: 60941 60941 649
Width: 539
GlyphClass: 2
Flags: W
AnchorPoint: "Anchor-1" 287 1521 basechar 0
AnchorPoint: "Anchor-0" 203 0 basechar 0
LayerCount: 2
Fore
SplineSet
494 1087 m 1,0,-1
 494 1006 l 1,1,-1
 198 1006 l 1,2,-1
 198 1087 l 1,3,-1
 494 1087 l 1,0,-1
158 0 m 1,4,-1
 158 1283 l 2,5,6
 158 1359 158 1359 189.5 1413 c 128,-1,7
 221 1467 221 1467 276.5 1495.5 c 128,-1,8
 332 1524 332 1524 404 1524 c 0,9,10
 439 1524 439 1524 466 1521 c 128,-1,11
 493 1518 493 1518 510 1513 c 1,12,-1
 497 1433 l 1,13,14
 482 1437 482 1437 459 1439.5 c 128,-1,15
 436 1442 436 1442 411 1442 c 0,16,17
 332 1442 332 1442 289.5 1398.5 c 128,-1,18
 247 1355 247 1355 247 1272 c 2,19,-1
 247 0 l 1,20,-1
 158 0 l 1,4,-1
EndSplineSet
EndChar

StartChar: f.i
Encoding: 60942 60942 650
Width: 549
GlyphClass: 2
Flags: W
AnchorPoint: "Anchor-1" 342 1521 basechar 0
AnchorPoint: "Anchor-0" 257 0 basechar 0
LayerCount: 2
Fore
SplineSet
213 0 m 1,0,-1
 213 1283 l 2,1,2
 213 1357 213 1357 244.5 1411 c 128,-1,3
 276 1465 276 1465 329.5 1494.5 c 128,-1,4
 383 1524 383 1524 449 1524 c 0,5,6
 471 1524 471 1524 491 1521 c 128,-1,7
 511 1518 511 1518 530 1512 c 1,8,-1
 515 1432 l 1,9,10
 500 1437 500 1437 485.5 1439.5 c 128,-1,11
 471 1442 471 1442 455 1442 c 0,12,13
 385 1442 385 1442 343.5 1398 c 128,-1,14
 302 1354 302 1354 302 1272 c 2,15,-1
 302 0 l 1,16,-1
 213 0 l 1,0,-1
10 1006 m 1,17,-1
 10 1087 l 1,18,-1
 620 1087 l 1,19,-1
 620 1006 l 1,20,-1
 10 1006 l 1,17,-1
EndSplineSet
Substitution2: "Single Substitution lookup 35 subtable" f.i.1
EndChar

StartChar: f.i.1
Encoding: 60943 60943 651
Width: 494
GlyphClass: 2
Flags: W
AnchorPoint: "Anchor-1" 287 1521 basechar 0
AnchorPoint: "Anchor-0" 203 0 basechar 0
LayerCount: 2
Fore
SplineSet
158 0 m 1,0,-1
 158 1283 l 2,1,2
 158 1357 158 1357 190 1411 c 128,-1,3
 222 1465 222 1465 275.5 1494.5 c 128,-1,4
 329 1524 329 1524 395 1524 c 0,5,6
 417 1524 417 1524 437 1521 c 128,-1,7
 457 1518 457 1518 476 1512 c 1,8,-1
 462 1432 l 1,9,10
 445 1437 445 1437 431 1439.5 c 128,-1,11
 417 1442 417 1442 401 1442 c 0,12,13
 331 1442 331 1442 289 1398 c 128,-1,14
 247 1354 247 1354 247 1272 c 2,15,-1
 247 0 l 1,16,-1
 158 0 l 1,0,-1
202 1006 m 1,17,-1
 202 1087 l 1,18,-1
 565 1087 l 1,19,-1
 565 1006 l 1,20,-1
 202 1006 l 1,17,-1
EndSplineSet
EndChar

StartChar: g
Encoding: 103 103 659
Width: 1172
GlyphClass: 2
Flags: W
AnchorPoint: "Anchor-1" 569 1087 basechar 0
AnchorPoint: "Anchor-0" 570 -435 basechar 0
LayerCount: 2
Fore
SplineSet
569 -435 m 0,0,1
 455 -435 455 -435 368.5 -402.5 c 128,-1,2
 282 -370 282 -370 226 -308.5 c 128,-1,3
 170 -247 170 -247 146 -164 c 1,4,-1
 230 -143 l 1,5,6
 250 -206 250 -206 295 -253.5 c 128,-1,7
 340 -301 340 -301 408 -327 c 128,-1,8
 476 -353 476 -353 569 -353 c 0,9,10
 737 -353 737 -353 831 -265 c 128,-1,11
 925 -177 925 -177 925 -10 c 2,12,-1
 925 248 l 1,13,-1
 920 248 l 1,14,15
 893 173 893 173 840.5 116 c 128,-1,16
 788 59 788 59 713.5 26.5 c 128,-1,17
 639 -6 639 -6 548 -6 c 0,18,19
 416 -6 416 -6 313.5 62.5 c 128,-1,20
 211 131 211 131 153 254.5 c 128,-1,21
 95 378 95 378 95 543 c 0,22,23
 95 709 95 709 153 835.5 c 128,-1,24
 211 962 211 962 313.5 1032.5 c 128,-1,25
 416 1103 416 1103 549 1103 c 0,26,27
 643 1103 643 1103 717.5 1069 c 128,-1,28
 792 1035 792 1035 843.5 975 c 128,-1,29
 895 915 895 915 921 839 c 1,30,-1
 927 839 l 1,31,-1
 927 1087 l 1,32,-1
 1014 1087 l 1,33,-1
 1014 -12 l 2,34,35
 1014 -151 1014 -151 958.5 -245.5 c 128,-1,36
 903 -340 903 -340 802.5 -387.5 c 128,-1,37
 702 -435 702 -435 569 -435 c 0,0,1
558 78 m 256,38,39
 670 78 670 78 753.5 134.5 c 128,-1,40
 837 191 837 191 882 296 c 128,-1,41
 927 401 927 401 927 544 c 0,42,43
 927 686 927 686 882.5 793 c 128,-1,44
 838 900 838 900 755 960.5 c 128,-1,45
 672 1021 672 1021 558 1021 c 0,46,47
 446 1021 446 1021 362 961 c 128,-1,48
 278 901 278 901 231.5 793.5 c 128,-1,49
 185 686 185 686 185 544 c 256,50,51
 185 402 185 402 232 297.5 c 128,-1,52
 279 193 279 193 362.5 135.5 c 128,-1,53
 446 78 446 78 558 78 c 256,38,39
EndSplineSet
Substitution2: "'smcp' Lowercase to Small Capitals in Latin lookup 69 subtable" g.sc
Substitution2: "'sups' Superscript in Latin lookup 39 subtable" g.sups
Substitution2: "'subs' Subscript in Latin lookup 38 subtable" g.subs
Substitution2: "'sinf' Scientific Inferiors in Latin lookup 18 subtable" g.subs
AlternateSubs2: "'aalt' Access All Alternates in Latin lookup 1 subtable" g.sc g.sups g.subs
EndChar

StartChar: uni0260
Encoding: 608 608 660
Width: 1172
GlyphClass: 2
Flags: W
AnchorPoint: "Anchor-1" 569 1087 basechar 0
AnchorPoint: "Anchor-0" 570 -435 basechar 0
LayerCount: 2
Fore
SplineSet
925 862 m 1,0,-1
 925 1257 l 2,1,2
 925 1366 925 1366 981 1419 c 128,-1,3
 1037 1472 1037 1472 1145 1472 c 0,4,5
 1166 1472 1166 1472 1187.5 1472 c 128,-1,6
 1209 1472 1209 1472 1227 1471 c 1,7,-1
 1227 1390 l 1,8,9
 1210 1390 1210 1390 1188 1390.5 c 128,-1,10
 1166 1391 1166 1391 1152 1391 c 0,11,12
 1080 1391 1080 1391 1047 1359.5 c 128,-1,13
 1014 1328 1014 1328 1014 1257 c 2,14,-1
 1014 862 l 1,15,-1
 925 862 l 1,0,-1
569 -435 m 0,16,17
 455 -435 455 -435 368.5 -402.5 c 128,-1,18
 282 -370 282 -370 226 -308.5 c 128,-1,19
 170 -247 170 -247 146 -164 c 1,20,-1
 230 -143 l 1,21,22
 250 -206 250 -206 295 -253.5 c 128,-1,23
 340 -301 340 -301 408 -327 c 128,-1,24
 476 -353 476 -353 569 -353 c 0,25,26
 737 -353 737 -353 831 -265 c 128,-1,27
 925 -177 925 -177 925 -10 c 2,28,-1
 925 248 l 1,29,-1
 920 248 l 1,30,31
 893 173 893 173 840.5 116 c 128,-1,32
 788 59 788 59 713.5 26.5 c 128,-1,33
 639 -6 639 -6 548 -6 c 0,34,35
 416 -6 416 -6 313.5 62.5 c 128,-1,36
 211 131 211 131 153 254.5 c 128,-1,37
 95 378 95 378 95 543 c 0,38,39
 95 709 95 709 153 835.5 c 128,-1,40
 211 962 211 962 313.5 1032.5 c 128,-1,41
 416 1103 416 1103 549 1103 c 0,42,43
 643 1103 643 1103 717.5 1069 c 128,-1,44
 792 1035 792 1035 843.5 975 c 128,-1,45
 895 915 895 915 921 839 c 1,46,-1
 927 839 l 1,47,-1
 927 1087 l 1,48,-1
 1014 1087 l 1,49,-1
 1014 -12 l 2,50,51
 1014 -151 1014 -151 958.5 -245.5 c 128,-1,52
 903 -340 903 -340 802.5 -387.5 c 128,-1,53
 702 -435 702 -435 569 -435 c 0,16,17
558 78 m 256,54,55
 670 78 670 78 753.5 134.5 c 128,-1,56
 837 191 837 191 882 296 c 128,-1,57
 927 401 927 401 927 544 c 0,58,59
 927 686 927 686 882.5 793 c 128,-1,60
 838 900 838 900 755 960.5 c 128,-1,61
 672 1021 672 1021 558 1021 c 0,62,63
 446 1021 446 1021 362 961 c 128,-1,64
 278 901 278 901 231.5 793.5 c 128,-1,65
 185 686 185 686 185 544 c 256,66,67
 185 402 185 402 232 297.5 c 128,-1,68
 279 193 279 193 362.5 135.5 c 128,-1,69
 446 78 446 78 558 78 c 256,54,55
EndSplineSet
Substitution2: "'smcp' Lowercase to Small Capitals in Latin lookup 69 subtable" uni0260.sc
Substitution2: "'c2sc' Capitals to Small Capitals in Latin lookup 68 subtable" uni0260.sc
Substitution2: "'aalt' Access All Alternates in Latin lookup 0 subtable" uni0260.sc
EndChar

StartChar: g.sc
Encoding: 610 610 669
Width: 1099
GlyphClass: 2
Flags: W
AnchorPoint: "Anchor-1" 553 1087 basechar 0
AnchorPoint: "Anchor-0" 552 0 basechar 0
LayerCount: 2
Fore
SplineSet
563 -14 m 0,0,1
 419 -14 419 -14 310 56 c 128,-1,2
 201 126 201 126 141 251.5 c 128,-1,3
 81 377 81 377 81 543 c 0,4,5
 81 712 81 712 142 837.5 c 128,-1,6
 203 963 203 963 311 1032.5 c 128,-1,7
 419 1102 419 1102 560 1102 c 0,8,9
 686 1102 686 1102 779 1049.5 c 128,-1,10
 872 997 872 997 929 915 c 128,-1,11
 986 833 986 833 1001 743 c 1,12,-1
 910 743 l 1,13,14
 895 813 895 813 850 876 c 128,-1,15
 805 939 805 939 732 979 c 128,-1,16
 659 1019 659 1019 560 1019 c 0,17,18
 445 1019 445 1019 356.5 960.5 c 128,-1,19
 268 902 268 902 219.5 795 c 128,-1,20
 171 688 171 688 171 543 c 0,21,22
 171 401 171 401 219.5 294 c 128,-1,23
 268 187 268 187 356.5 128 c 128,-1,24
 445 69 445 69 564 69 c 0,25,26
 725 69 725 69 823 172 c 128,-1,27
 921 275 921 275 921 449 c 1,28,-1
 948 441 l 1,29,-1
 582 441 l 1,30,-1
 582 518 l 1,31,-1
 1009 518 l 1,32,-1
 1009 448 l 2,33,34
 1009 308 1009 308 952 204 c 128,-1,35
 895 100 895 100 795 43 c 128,-1,36
 695 -14 695 -14 563 -14 c 0,0,1
EndSplineSet
EndChar

StartChar: uni0260.sc
Encoding: 60947 60947 670
Width: 1163
GlyphClass: 2
Flags: W
AnchorPoint: "Anchor-1" 553 1087 basechar 0
AnchorPoint: "Anchor-0" 552 0 basechar 0
LayerCount: 2
Fore
SplineSet
929 743 m 1,0,-1
 900 987 l 2,1,2
 890 1059 890 1059 907.5 1109.5 c 128,-1,3
 925 1160 925 1160 970.5 1187 c 128,-1,4
 1016 1214 1016 1214 1085 1214 c 0,5,6
 1106 1214 1106 1214 1124 1213 c 128,-1,7
 1142 1212 1142 1212 1159 1211 c 1,8,-1
 1159 1132 l 1,9,10
 1141 1132 1141 1132 1123.5 1132.5 c 128,-1,11
 1106 1133 1106 1133 1093 1133 c 0,12,13
 1018 1133 1018 1133 994 1094 c 128,-1,14
 970 1055 970 1055 981 973 c 2,15,-1
 1001 743 l 1,16,-1
 929 743 l 1,0,-1
563 -14 m 0,17,18
 419 -14 419 -14 310 56 c 128,-1,19
 201 126 201 126 141 251.5 c 128,-1,20
 81 377 81 377 81 543 c 0,21,22
 81 712 81 712 142 837.5 c 128,-1,23
 203 963 203 963 311 1032.5 c 128,-1,24
 419 1102 419 1102 560 1102 c 0,25,26
 686 1102 686 1102 779 1049.5 c 128,-1,27
 872 997 872 997 929 915 c 128,-1,28
 986 833 986 833 1001 743 c 1,29,-1
 910 743 l 1,30,31
 895 813 895 813 850 876 c 128,-1,32
 805 939 805 939 732 979 c 128,-1,33
 659 1019 659 1019 560 1019 c 0,34,35
 445 1019 445 1019 356.5 960.5 c 128,-1,36
 268 902 268 902 219.5 795 c 128,-1,37
 171 688 171 688 171 543 c 0,38,39
 171 401 171 401 219.5 294 c 128,-1,40
 268 187 268 187 356.5 128 c 128,-1,41
 445 69 445 69 564 69 c 0,42,43
 725 69 725 69 823 172 c 128,-1,44
 921 275 921 275 921 449 c 1,45,-1
 948 441 l 1,46,-1
 582 441 l 1,47,-1
 582 518 l 1,48,-1
 1009 518 l 1,49,-1
 1009 448 l 2,50,51
 1009 308 1009 308 952 204 c 128,-1,52
 895 100 895 100 795 43 c 128,-1,53
 695 -14 695 -14 563 -14 c 0,17,18
EndSplineSet
EndChar

StartChar: h
Encoding: 104 104 671
Width: 1144
GlyphClass: 2
Flags: W
AnchorPoint: "Anchor-3" 202 0 basechar 0
AnchorPoint: "Anchor-1" 203 1490 basechar 0
AnchorPoint: "Anchor-0" 572 0 basechar 0
LayerCount: 2
Fore
SplineSet
247 694 m 2,0,-1
 247 0 l 1,1,-1
 158 0 l 1,2,-1
 158 1490 l 1,3,-1
 247 1490 l 1,4,-1
 247 840 l 1,5,-1
 226 840 l 1,6,7
 266 975 266 975 368.5 1039 c 128,-1,8
 471 1103 471 1103 597 1103 c 0,9,10
 711 1103 711 1103 798.5 1055.5 c 128,-1,11
 886 1008 886 1008 936 920 c 128,-1,12
 986 832 986 832 986 707 c 2,13,-1
 986 0 l 1,14,-1
 896 0 l 1,15,-1
 896 703 l 2,16,17
 896 849 896 849 810 934.5 c 128,-1,18
 724 1020 724 1020 583 1020 c 0,19,20
 488 1020 488 1020 412 980 c 128,-1,21
 336 940 336 940 291.5 867 c 128,-1,22
 247 794 247 794 247 694 c 2,0,-1
EndSplineSet
Substitution2: "'smcp' Lowercase to Small Capitals in Latin lookup 69 subtable" h.sc
Substitution2: "'sups' Superscript in Latin lookup 39 subtable" h.sups
Substitution2: "'subs' Subscript in Latin lookup 38 subtable" h.subs
Substitution2: "'sinf' Scientific Inferiors in Latin lookup 18 subtable" h.subs
AlternateSubs2: "'aalt' Access All Alternates in Latin lookup 1 subtable" h.sups h.subs h.sc
EndChar

StartChar: uni0452
Encoding: 1106 1106 674
Width: 1144
GlyphClass: 2
Flags: W
AnchorPoint: "Anchor-3" 202 0 basechar 0
AnchorPoint: "Anchor-1" 203 1490 basechar 0
AnchorPoint: "Anchor-0" 572 0 basechar 0
LayerCount: 2
Fore
SplineSet
768 -419 m 0,0,1
 747 -419 747 -419 724.5 -419 c 128,-1,2
 702 -419 702 -419 685 -418 c 1,3,-1
 685 -338 l 1,4,5
 703 -338 703 -338 724.5 -338 c 128,-1,6
 746 -338 746 -338 760 -338 c 0,7,8
 832 -338 832 -338 864 -307 c 128,-1,9
 896 -276 896 -276 896 -203 c 2,10,-1
 896 0 l 1,11,-1
 986 0 l 1,12,-1
 986 -203 l 2,13,14
 986 -312 986 -312 930.5 -365.5 c 128,-1,15
 875 -419 875 -419 768 -419 c 0,0,1
247 694 m 2,16,-1
 247 0 l 1,17,-1
 158 0 l 1,18,-1
 158 1490 l 1,19,-1
 247 1490 l 1,20,-1
 247 840 l 1,21,-1
 226 840 l 1,22,23
 266 975 266 975 368.5 1039 c 128,-1,24
 471 1103 471 1103 597 1103 c 0,25,26
 711 1103 711 1103 798.5 1055.5 c 128,-1,27
 886 1008 886 1008 936 920 c 128,-1,28
 986 832 986 832 986 707 c 2,29,-1
 986 0 l 1,30,-1
 896 0 l 1,31,-1
 896 703 l 2,32,33
 896 849 896 849 810 934.5 c 128,-1,34
 724 1020 724 1020 583 1020 c 0,35,36
 488 1020 488 1020 412 980 c 128,-1,37
 336 940 336 940 291.5 867 c 128,-1,38
 247 794 247 794 247 694 c 2,16,-1
-44 1244 m 1,39,-1
 -44 1322 l 1,40,-1
 539 1322 l 1,41,-1
 539 1244 l 1,42,-1
 -44 1244 l 1,39,-1
EndSplineSet
EndChar

StartChar: uni0266
Encoding: 614 614 675
Width: 1143
GlyphClass: 2
Flags: W
AnchorPoint: "Anchor-1" 574 1087 basechar 0
AnchorPoint: "Anchor-0" 572 0 basechar 0
LayerCount: 2
Fore
SplineSet
158 862 m 1,0,-1
 158 1257 l 2,1,2
 158 1366 158 1366 214.5 1419 c 128,-1,3
 271 1472 271 1472 378 1472 c 0,4,5
 399 1472 399 1472 421 1472 c 128,-1,6
 443 1472 443 1472 460 1471 c 1,7,-1
 460 1390 l 1,8,9
 443 1390 443 1390 421.5 1390.5 c 128,-1,10
 400 1391 400 1391 386 1391 c 0,11,12
 313 1391 313 1391 280 1359.5 c 128,-1,13
 247 1328 247 1328 247 1257 c 2,14,-1
 247 862 l 1,15,-1
 158 862 l 1,0,-1
247 694 m 2,16,-1
 247 0 l 1,17,-1
 158 0 l 1,18,-1
 158 1087 l 1,19,-1
 246 1087 l 1,20,-1
 245 840 l 1,21,-1
 226 840 l 1,22,23
 266 975 266 975 368.5 1039 c 128,-1,24
 471 1103 471 1103 597 1103 c 0,25,26
 711 1103 711 1103 798 1055.5 c 128,-1,27
 885 1008 885 1008 935 920 c 128,-1,28
 985 832 985 832 985 707 c 2,29,-1
 985 0 l 1,30,-1
 896 0 l 1,31,-1
 896 703 l 2,32,33
 896 849 896 849 810 934.5 c 128,-1,34
 724 1020 724 1020 583 1020 c 0,35,36
 488 1020 488 1020 412 980 c 128,-1,37
 336 940 336 940 291.5 867 c 128,-1,38
 247 794 247 794 247 694 c 2,16,-1
EndSplineSet
EndChar

StartChar: uni0267
Encoding: 615 615 676
Width: 1143
GlyphClass: 2
Flags: W
AnchorPoint: "Anchor-1" 574 1087 basechar 0
AnchorPoint: "Anchor-0" 572 0 basechar 0
LayerCount: 2
Fore
SplineSet
768 -419 m 0,0,1
 747 -419 747 -419 724.5 -419 c 128,-1,2
 702 -419 702 -419 685 -418 c 1,3,-1
 685 -338 l 1,4,5
 703 -338 703 -338 724.5 -338 c 128,-1,6
 746 -338 746 -338 760 -338 c 0,7,8
 832 -338 832 -338 864 -307 c 128,-1,9
 896 -276 896 -276 896 -203 c 2,10,-1
 896 0 l 1,11,-1
 986 0 l 1,12,-1
 986 -203 l 2,13,14
 986 -312 986 -312 930.5 -365.5 c 128,-1,15
 875 -419 875 -419 768 -419 c 0,0,1
247 694 m 2,16,-1
 247 0 l 1,17,-1
 158 0 l 1,18,-1
 158 1087 l 1,19,-1
 246 1087 l 1,20,-1
 245 840 l 1,21,-1
 226 840 l 1,22,23
 266 975 266 975 368.5 1039 c 128,-1,24
 471 1103 471 1103 597 1103 c 0,25,26
 711 1103 711 1103 798 1055.5 c 128,-1,27
 885 1008 885 1008 935 920 c 128,-1,28
 985 832 985 832 985 707 c 2,29,-1
 985 0 l 1,30,-1
 896 0 l 1,31,-1
 896 703 l 2,32,33
 896 849 896 849 810 934.5 c 128,-1,34
 724 1020 724 1020 583 1020 c 0,35,36
 488 1020 488 1020 412 980 c 128,-1,37
 336 940 336 940 291.5 867 c 128,-1,38
 247 794 247 794 247 694 c 2,16,-1
158 862 m 1,39,-1
 158 1257 l 2,40,41
 158 1366 158 1366 214.5 1419 c 128,-1,42
 271 1472 271 1472 378 1472 c 0,43,44
 399 1472 399 1472 421 1472 c 128,-1,45
 443 1472 443 1472 460 1471 c 1,46,-1
 460 1390 l 1,47,48
 443 1390 443 1390 421.5 1390.5 c 128,-1,49
 400 1391 400 1391 386 1391 c 0,50,51
 313 1391 313 1391 280 1359.5 c 128,-1,52
 247 1328 247 1328 247 1257 c 2,53,-1
 247 862 l 1,54,-1
 158 862 l 1,39,-1
EndSplineSet
EndChar

StartChar: uni0195
Encoding: 405 405 677
Width: 1870
Flags: W
LayerCount: 2
Fore
SplineSet
1228 -19 m 0,0,1
 1125 -19 1125 -19 1048.5 31 c 128,-1,2
 972 81 972 81 931 182.5 c 128,-1,3
 890 284 890 284 890 441 c 2,4,-1
 890 703 l 2,5,6
 890 848 890 848 804 933.5 c 128,-1,7
 718 1019 718 1019 577 1019 c 0,8,9
 483 1019 483 1019 408.5 979 c 128,-1,10
 334 939 334 939 290.5 866.5 c 128,-1,11
 247 794 247 794 247 694 c 2,12,-1
 247 0 l 1,13,-1
 158 0 l 1,14,-1
 158 1490 l 1,15,-1
 247 1490 l 1,16,-1
 247 905 l 1,17,-1
 254 905 l 1,18,19
 291 993 291 993 380.5 1048 c 128,-1,20
 470 1103 470 1103 593 1103 c 0,21,22
 705 1103 705 1103 792.5 1055.5 c 128,-1,23
 880 1008 880 1008 929.5 919 c 128,-1,24
 979 830 979 830 979 707 c 2,25,-1
 979 441 l 2,26,27
 979 302 979 302 1011.5 219.5 c 128,-1,28
 1044 137 1044 137 1101 100.5 c 128,-1,29
 1158 64 1158 64 1232 64 c 0,30,31
 1357 64 1357 64 1443.5 164.5 c 128,-1,32
 1530 265 1530 265 1575.5 474 c 128,-1,33
 1621 683 1621 683 1621 1010 c 2,34,-1
 1621 1087 l 1,35,-1
 1712 1087 l 1,36,-1
 1712 1005 l 2,37,38
 1712 656 1712 656 1655 428.5 c 128,-1,39
 1598 201 1598 201 1490.5 91 c 128,-1,40
 1383 -19 1383 -19 1228 -19 c 0,0,1
EndSplineSet
EndChar

StartChar: hturn
Encoding: 613 613 678
Width: 1144
GlyphClass: 2
Flags: W
AnchorPoint: "Anchor-3" 942 1087 basechar 0
AnchorPoint: "Anchor-1" 571 1087 basechar 0
AnchorPoint: "Anchor-0" 572 1087 basechar 0
LayerCount: 2
Fore
SplineSet
897 393 m 2,0,-1
 897 1087 l 1,1,-1
 986 1087 l 1,2,-1
 986 -403 l 1,3,-1
 897 -403 l 1,4,-1
 897 249 l 1,5,-1
 918 249 l 1,6,7
 878 114 878 114 776 49 c 128,-1,8
 674 -16 674 -16 547 -16 c 0,9,10
 433 -16 433 -16 345.5 31.5 c 128,-1,11
 258 79 258 79 208 168.5 c 128,-1,12
 158 258 158 258 158 380 c 2,13,-1
 158 1087 l 1,14,-1
 248 1087 l 1,15,-1
 248 385 l 2,16,17
 248 240 248 240 334 153.5 c 128,-1,18
 420 67 420 67 561 67 c 0,19,20
 657 67 657 67 732.5 107 c 128,-1,21
 808 147 808 147 852.5 221 c 128,-1,22
 897 295 897 295 897 393 c 2,0,-1
EndSplineSet
EndChar

StartChar: hturnlthook
Encoding: 686 686 679
Width: 1209
Flags: W
LayerCount: 2
Fore
SplineSet
962 -418 m 1,0,-1
 962 249 l 1,1,-1
 983 249 l 1,2,3
 942 113 942 113 840 48.5 c 128,-1,4
 738 -16 738 -16 611 -16 c 0,5,6
 497 -16 497 -16 410 31.5 c 128,-1,7
 323 79 323 79 273 168.5 c 128,-1,8
 223 258 223 258 223 380 c 2,9,-1
 223 854 l 2,10,11
 223 943 223 943 188.5 977.5 c 128,-1,12
 154 1012 154 1012 76 1012 c 0,13,14
 65 1012 65 1012 54 1011.5 c 128,-1,15
 43 1011 43 1011 32 1010.5 c 128,-1,16
 21 1010 21 1010 10 1010 c 1,17,-1
 10 1089 l 1,18,19
 28 1092 28 1092 48 1092 c 128,-1,20
 68 1092 68 1092 89 1092 c 0,21,22
 143 1092 143 1092 184.5 1078 c 128,-1,23
 226 1064 226 1064 254.5 1035.5 c 128,-1,24
 283 1007 283 1007 297.5 962 c 128,-1,25
 312 917 312 917 312 855 c 2,26,-1
 312 385 l 2,27,28
 312 240 312 240 398 153.5 c 128,-1,29
 484 67 484 67 626 67 c 0,30,31
 720 67 720 67 796.5 107 c 128,-1,32
 873 147 873 147 917 221 c 128,-1,33
 961 295 961 295 961 393 c 2,34,-1
 961 1087 l 1,35,-1
 1051 1087 l 1,36,-1
 1051 -418 l 1,37,-1
 962 -418 l 1,0,-1
EndSplineSet
EndChar

StartChar: hturnhook2
Encoding: 687 687 680
Width: 1208
Flags: W
LayerCount: 2
Fore
SplineSet
1180 -419 m 0,0,1
 1071 -419 1071 -419 1016.5 -365.5 c 128,-1,2
 962 -312 962 -312 962 -203 c 2,3,-1
 962 249 l 1,4,-1
 983 249 l 1,5,6
 942 113 942 113 840 48.5 c 128,-1,7
 738 -16 738 -16 611 -16 c 0,8,9
 497 -16 497 -16 410 31.5 c 128,-1,10
 323 79 323 79 273 168.5 c 128,-1,11
 223 258 223 258 223 380 c 2,12,-1
 223 854 l 2,13,14
 223 943 223 943 188.5 977.5 c 128,-1,15
 154 1012 154 1012 76 1012 c 0,16,17
 65 1012 65 1012 54 1011.5 c 128,-1,18
 43 1011 43 1011 32 1010.5 c 128,-1,19
 21 1010 21 1010 10 1010 c 1,20,-1
 10 1089 l 1,21,22
 28 1092 28 1092 48 1092 c 128,-1,23
 68 1092 68 1092 89 1092 c 0,24,25
 143 1092 143 1092 184.5 1078 c 128,-1,26
 226 1064 226 1064 254.5 1035.5 c 128,-1,27
 283 1007 283 1007 297.5 962 c 128,-1,28
 312 917 312 917 312 855 c 2,29,-1
 312 385 l 2,30,31
 312 240 312 240 398 153.5 c 128,-1,32
 484 67 484 67 626 67 c 0,33,34
 720 67 720 67 796.5 107 c 128,-1,35
 873 147 873 147 917 221 c 128,-1,36
 961 295 961 295 961 393 c 2,37,-1
 961 1087 l 1,38,-1
 1051 1087 l 1,39,-1
 1051 -203 l 2,40,41
 1051 -276 1051 -276 1082.5 -307 c 128,-1,42
 1114 -338 1114 -338 1188 -338 c 0,43,44
 1201 -338 1201 -338 1222 -338 c 128,-1,45
 1243 -338 1243 -338 1262 -338 c 1,46,-1
 1262 -418 l 1,47,48
 1251 -418 1251 -418 1236.5 -418 c 128,-1,49
 1222 -418 1222 -418 1207.5 -418.5 c 128,-1,50
 1193 -419 1193 -419 1180 -419 c 0,0,1
EndSplineSet
EndChar

StartChar: dotlessi
Encoding: 305 305 691
Width: 405
GlyphClass: 2
Flags: W
AnchorPoint: "Anchor-4" 247 0 basechar 0
AnchorPoint: "Anchor-1" 203 1087 basechar 0
AnchorPoint: "Anchor-0" 203 0 basechar 0
LayerCount: 2
Fore
SplineSet
158 0 m 1,0,-1
 158 1087 l 1,1,-1
 247 1087 l 1,2,-1
 247 0 l 1,3,-1
 158 0 l 1,0,-1
EndSplineSet
EndChar

StartChar: uni0237
Encoding: 567 567 713
Width: 409
GlyphClass: 2
Flags: W
AnchorPoint: "Anchor-1" 207 1087 basechar 0
AnchorPoint: "Anchor-0" 169 -447 basechar 0
LayerCount: 2
Fore
SplineSet
163 1087 m 1,0,-1
 251 1087 l 1,1,-1
 251 -146 l 2,2,3
 252 -229 252 -229 216.5 -290 c 128,-1,4
 181 -351 181 -351 119.5 -384.5 c 128,-1,5
 58 -418 58 -418 -21 -418 c 2,6,-1
 -51 -418 l 1,7,-1
 -51 -335 l 1,8,-1
 -23 -335 l 2,9,10
 55 -335 55 -335 109 -284 c 128,-1,11
 163 -233 163 -233 163 -142 c 2,12,-1
 163 1087 l 1,0,-1
EndSplineSet
EndChar

StartChar: i.sc
Encoding: 60950 60950 720
Width: 534
GlyphClass: 2
Flags: W
AnchorPoint: "Anchor-4" 467 0 basechar 0
AnchorPoint: "Anchor-1" 267 1087 basechar 0
AnchorPoint: "Anchor-0" 267 0 basechar 0
LayerCount: 2
Fore
SplineSet
67 0 m 1,0,-1
 67 80 l 1,1,-1
 222 80 l 1,2,-1
 222 1008 l 1,3,-1
 67 1008 l 1,4,-1
 67 1087 l 1,5,-1
 467 1087 l 1,6,-1
 467 1008 l 1,7,-1
 311 1008 l 1,8,-1
 311 80 l 1,9,-1
 467 80 l 1,10,-1
 467 0 l 1,11,-1
 67 0 l 1,0,-1
EndSplineSet
EndChar

StartChar: jcrosstail.ccmp
Encoding: 57423 57423 722
Width: 486
GlyphClass: 2
Flags: W
AnchorPoint: "Anchor-4" 380 0 basechar 0
AnchorPoint: "Anchor-1" 336 1087 basechar 0
AnchorPoint: "Anchor-0" 183 -460 basechar 0
LayerCount: 2
Fore
SplineSet
130 -418 m 0,0,1
 62 -418 62 -418 6 -386.5 c 128,-1,2
 -50 -355 -50 -355 -83 -300.5 c 128,-1,3
 -116 -246 -116 -246 -116 -179 c 0,4,5
 -116 -110 -116 -110 -80 -55.5 c 128,-1,6
 -44 -1 -44 -1 17.5 30 c 128,-1,7
 79 61 79 61 154 61 c 2,8,-1
 540 61 l 1,9,-1
 540 -23 l 1,10,-1
 154 -23 l 2,11,12
 78 -24 78 -24 27 -69.5 c 128,-1,13
 -24 -115 -24 -115 -24 -181 c 0,14,15
 -24 -245 -24 -245 23 -290 c 128,-1,16
 70 -335 70 -335 129 -335 c 0,17,18
 210 -335 210 -335 251 -280 c 128,-1,19
 292 -225 292 -225 292 -151 c 2,20,-1
 292 115 l 1,21,-1
 379 115 l 1,22,-1
 379 -145 l 2,23,24
 379 -202 379 -202 362.5 -251.5 c 128,-1,25
 346 -301 346 -301 313.5 -338.5 c 128,-1,26
 281 -376 281 -376 235 -397 c 128,-1,27
 189 -418 189 -418 130 -418 c 0,0,1
291 0 m 1,28,-1
 291 1087 l 1,29,-1
 380 1087 l 1,30,-1
 380 0 l 1,31,-1
 291 0 l 1,28,-1
EndSplineSet
EndChar

StartChar: k
Encoding: 107 107 729
Width: 977
GlyphClass: 2
Flags: W
AnchorPoint: "Anchor-1" 203 1490 basechar 0
AnchorPoint: "Anchor-0" 526 0 basechar 0
LayerCount: 2
Fore
SplineSet
235 430 m 1,0,-1
 235 555 l 1,1,-1
 255 555 l 1,2,-1
 792 1087 l 1,3,-1
 910 1087 l 1,4,-1
 421 602 l 1,5,-1
 411 598 l 1,6,-1
 235 430 l 1,0,-1
158 0 m 1,7,-1
 158 1490 l 1,8,-1
 247 1490 l 1,9,-1
 247 0 l 1,10,-1
 158 0 l 1,7,-1
832 0 m 1,11,-1
 362 589 l 1,12,-1
 426 648 l 1,13,-1
 947 0 l 1,14,-1
 832 0 l 1,11,-1
EndSplineSet
Substitution2: "'sups' Superscript in Latin lookup 39 subtable" k.sups
Substitution2: "'subs' Subscript in Latin lookup 38 subtable" k.subs
Substitution2: "'sinf' Scientific Inferiors in Latin lookup 18 subtable" k.subs
AlternateSubs2: "'aalt' Access All Alternates in Latin lookup 1 subtable" k.sups k.subs
EndChar

StartChar: uni0199
Encoding: 409 409 730
Width: 977
GlyphClass: 2
Flags: W
AnchorPoint: "Anchor-1" 203 1087 basechar 0
AnchorPoint: "Anchor-0" 526 0 basechar 0
LayerCount: 2
Fore
SplineSet
158 862 m 1,0,-1
 158 1257 l 2,1,2
 158 1366 158 1366 214.5 1419 c 128,-1,3
 271 1472 271 1472 378 1472 c 0,4,5
 399 1472 399 1472 421 1472 c 128,-1,6
 443 1472 443 1472 460 1471 c 1,7,-1
 460 1390 l 1,8,9
 443 1390 443 1390 421.5 1390.5 c 128,-1,10
 400 1391 400 1391 386 1391 c 0,11,12
 313 1391 313 1391 280 1359.5 c 128,-1,13
 247 1328 247 1328 247 1257 c 2,14,-1
 247 862 l 1,15,-1
 158 862 l 1,0,-1
235 430 m 1,16,-1
 235 555 l 1,17,-1
 255 555 l 1,18,-1
 792 1087 l 1,19,-1
 910 1087 l 1,20,-1
 421 602 l 1,21,-1
 411 598 l 1,22,-1
 235 430 l 1,16,-1
158 0 m 1,23,-1
 158 1087 l 1,24,-1
 247 1087 l 1,25,-1
 247 0 l 1,26,-1
 158 0 l 1,23,-1
832 0 m 1,27,-1
 362 589 l 1,28,-1
 426 648 l 1,29,-1
 947 0 l 1,30,-1
 832 0 l 1,27,-1
EndSplineSet
EndChar

StartChar: kturn
Encoding: 670 670 736
Width: 977
GlyphClass: 2
Flags: W
AnchorPoint: "Anchor-1" 517 1087 basechar 0
AnchorPoint: "Anchor-0" 808 -372 basechar 0
LayerCount: 2
Fore
SplineSet
741 657 m 1,0,-1
 741 532 l 1,1,-1
 722 532 l 1,2,-1
 185 0 l 1,3,-1
 67 0 l 1,4,-1
 556 487 l 1,5,-1
 566 491 l 1,6,-1
 741 657 l 1,0,-1
819 1087 m 1,7,-1
 819 -403 l 1,8,-1
 730 -403 l 1,9,-1
 730 1087 l 1,10,-1
 819 1087 l 1,7,-1
145 1087 m 1,11,-1
 615 500 l 1,12,-1
 550 439 l 1,13,-1
 30 1087 l 1,14,-1
 145 1087 l 1,11,-1
EndSplineSet
EndChar

StartChar: k.base
Encoding: 60951 60951 737
Width: 977
GlyphClass: 2
Flags: W
AnchorPoint: "Anchor-1" 203 1087 basechar 0
AnchorPoint: "Anchor-0" 526 0 basechar 0
LayerCount: 2
Fore
SplineSet
235 430 m 1,0,-1
 235 555 l 1,1,-1
 255 555 l 1,2,-1
 792 1087 l 1,3,-1
 910 1087 l 1,4,-1
 421 602 l 1,5,-1
 411 598 l 1,6,-1
 235 430 l 1,0,-1
158 0 m 1,7,-1
 158 1087 l 1,8,-1
 247 1087 l 1,9,-1
 247 0 l 1,10,-1
 158 0 l 1,7,-1
832 0 m 1,11,-1
 362 589 l 1,12,-1
 426 648 l 1,13,-1
 947 0 l 1,14,-1
 832 0 l 1,11,-1
EndSplineSet
EndChar

StartChar: l
Encoding: 1114124 -1 738
Width: 405
GlyphClass: 2
Flags: W
AnchorPoint: "Anchor-1" 203 1490 basechar 0
AnchorPoint: "Anchor-0" 204 0 basechar 0
LayerCount: 2
Fore
SplineSet
247 1490 m 1,0,-1
 247 0 l 1,1,-1
 158 0 l 1,2,-1
 158 1490 l 1,3,-1
 247 1490 l 1,0,-1
EndSplineSet
Substitution2: "'smcp' Lowercase to Small Capitals in Latin lookup 69 subtable" l.sc
Substitution2: "'c2sc' Capitals to Small Capitals in Latin lookup 68 subtable" l.sc
Substitution2: "'cv05' Character Variants 05 in Latin lookup 59 subtable" l.ss02
Substitution2: "'ss04' Style Set 4 in Latin lookup 50 subtable" l.ss02
Substitution2: "'ss02' Style Set 2 in Latin lookup 48 subtable" l.ss02
Substitution2: "'salt' Stylistic Alternatives in Latin lookup 46 subtable" l.ss02
Substitution2: "'sups' Superscript in Latin lookup 39 subtable" l.sups
Substitution2: "'subs' Subscript in Latin lookup 38 subtable" l.subs
Substitution2: "'sinf' Scientific Inferiors in Latin lookup 18 subtable" l.subs
AlternateSubs2: "'aalt' Access All Alternates in Latin lookup 1 subtable" l.sc l.sups l.subs
EndChar

StartChar: lrthook
Encoding: 621 621 742
Width: 405
GlyphClass: 2
Flags: W
AnchorPoint: "Anchor-1" 203 1490 basechar 0
AnchorPoint: "Anchor-0" 204 0 basechar 0
LayerCount: 2
Fore
SplineSet
376 -419 m 0,0,1
 269 -419 269 -419 213.5 -365.5 c 128,-1,2
 158 -312 158 -312 158 -203 c 2,3,-1
 158 0 l 1,4,-1
 247 0 l 1,5,-1
 247 -203 l 2,6,7
 247 -276 247 -276 279.5 -307 c 128,-1,8
 312 -338 312 -338 384 -338 c 0,9,10
 397 -338 397 -338 419 -338 c 128,-1,11
 441 -338 441 -338 459 -338 c 1,12,-1
 459 -418 l 1,13,14
 442 -419 442 -419 420 -419 c 128,-1,15
 398 -419 398 -419 376 -419 c 0,0,1
247 1490 m 1,16,-1
 247 0 l 1,17,-1
 158 0 l 1,18,-1
 158 1490 l 1,19,-1
 247 1490 l 1,16,-1
EndSplineSet
EndChar

StartChar: uni026C
Encoding: 1114128 -1 743
Width: 699
Flags: W
LayerCount: 2
Fore
SplineSet
691 631 m 1,0,-1
 301 631 l 2,1,2
 225 631 225 631 164 662.5 c 128,-1,3
 103 694 103 694 66.5 748.5 c 128,-1,4
 30 803 30 803 30 872 c 0,5,6
 30 939 30 939 63.5 993 c 128,-1,7
 97 1047 97 1047 154 1079 c 128,-1,8
 211 1111 211 1111 278 1111 c 0,9,10
 339 1111 339 1111 385 1091.5 c 128,-1,11
 431 1072 431 1072 463.5 1036 c 128,-1,12
 496 1000 496 1000 512.5 952 c 128,-1,13
 529 904 529 904 529 848 c 2,14,-1
 529 577 l 1,15,-1
 439 577 l 1,16,-1
 439 854 l 2,17,18
 439 927 439 927 398.5 978.5 c 128,-1,19
 358 1030 358 1030 276 1030 c 0,20,21
 238 1030 238 1030 203 1008 c 128,-1,22
 168 986 168 986 145.5 950.5 c 128,-1,23
 123 915 123 915 123 872 c 0,24,25
 123 808 123 808 174 761.5 c 128,-1,26
 225 715 225 715 302 715 c 2,27,-1
 691 715 l 1,28,-1
 691 631 l 1,0,-1
529 1490 m 1,29,-1
 529 0 l 1,30,-1
 439 0 l 1,31,-1
 439 1490 l 1,32,-1
 529 1490 l 1,29,-1
EndSplineSet
Substitution2: "'cv05' Character Variants 05 in Latin lookup 59 subtable" uni026C.ss02
Substitution2: "'ss04' Style Set 4 in Latin lookup 50 subtable" uni026C.ss02
Substitution2: "'ss02' Style Set 2 in Latin lookup 48 subtable" uni026C.ss02
Substitution2: "'salt' Stylistic Alternatives in Latin lookup 46 subtable" uni026C.ss02
EndChar

StartChar: uni0234
Encoding: 564 564 744
Width: 725
GlyphClass: 2
Flags: W
AnchorPoint: "Anchor-1" 203 1490 basechar 0
AnchorPoint: "Anchor-0" 204 0 basechar 0
LayerCount: 2
Fore
SplineSet
434 -413 m 0,0,1
 347 -413 347 -413 285 -376 c 128,-1,2
 223 -339 223 -339 190.5 -277.5 c 128,-1,3
 158 -216 158 -216 158 -141 c 2,4,-1
 158 121 l 1,5,-1
 247 121 l 1,6,-1
 247 -147 l 2,7,8
 247 -233 247 -233 301 -282 c 128,-1,9
 355 -331 355 -331 434 -331 c 0,10,11
 511 -331 511 -331 560.5 -287.5 c 128,-1,12
 610 -244 610 -244 610 -174 c 0,13,14
 610 -105 610 -105 561 -61 c 128,-1,15
 512 -17 512 -17 438 -15 c 0,16,17
 388 -13 388 -13 343 -34 c 128,-1,18
 298 -55 298 -55 252.5 -103 c 128,-1,19
 207 -151 207 -151 154 -231 c 1,20,-1
 21 -392 l 1,21,-1
 -43 -336 l 1,22,-1
 77 -189 l 1,23,24
 174 -52 174 -52 259 7 c 128,-1,25
 344 66 344 66 436 66 c 0,26,27
 548 66 548 66 625 0 c 128,-1,28
 702 -66 702 -66 702 -174 c 0,29,30
 702 -281 702 -281 626.5 -347 c 128,-1,31
 551 -413 551 -413 434 -413 c 0,0,1
247 1490 m 1,32,-1
 247 0 l 1,33,-1
 158 0 l 1,34,-1
 158 1490 l 1,35,-1
 247 1490 l 1,32,-1
EndSplineSet
EndChar

StartChar: l.ss02
Encoding: 57424 57424 753
AltUni2: 00006c.ffffffff.0
Width: 450
GlyphClass: 2
Flags: W
AnchorPoint: "Anchor-1" 203 1490 basechar 0
AnchorPoint: "Anchor-0" 273 0 basechar 0
LayerCount: 2
Fore
SplineSet
380 -2 m 0,0,1
 272 -9 272 -9 215 40 c 128,-1,2
 158 89 158 89 158 198 c 2,3,-1
 158 1490 l 1,4,-1
 247 1490 l 1,5,-1
 247 209 l 2,6,7
 247 129 247 129 280.5 102 c 128,-1,8
 314 75 314 75 384 81 c 0,9,10
 393 81 393 81 399 81.5 c 128,-1,11
 405 82 405 82 411 83 c 1,12,-1
 421 3 l 1,13,14
 413 1 413 1 402 0 c 128,-1,15
 391 -1 391 -1 380 -2 c 0,0,1
EndSplineSet
EndChar

StartChar: uni026C.ss02
Encoding: 57428 57428 757
AltUni2: 00026c.ffffffff.0
Width: 719
GlyphClass: 2
Flags: W
AnchorPoint: "Anchor-1" 462 1490 basechar 0
AnchorPoint: "Anchor-0" 532 0 basechar 0
LayerCount: 2
Fore
SplineSet
289 651 m 2,0,1
 201 651 201 651 138.5 682 c 128,-1,2
 76 713 76 713 43 767.5 c 128,-1,3
 10 822 10 822 10 893 c 0,4,5
 10 962 10 962 40.5 1015.5 c 128,-1,6
 71 1069 71 1069 123 1100 c 128,-1,7
 175 1131 175 1131 243 1131 c 0,8,9
 314 1131 314 1131 361.5 1097.5 c 128,-1,10
 409 1064 409 1064 433.5 1007 c 128,-1,11
 458 950 458 950 458 877 c 2,12,-1
 458 803 l 1,13,-1
 418 803 l 1,14,-1
 418 882 l 2,15,16
 418 953 418 953 374.5 1001 c 128,-1,17
 331 1049 331 1049 257 1049 c 0,18,19
 189 1049 189 1049 145.5 1004 c 128,-1,20
 102 959 102 959 102 891 c 0,21,22
 102 824 102 824 148 777 c 128,-1,23
 194 730 194 730 271 730 c 2,24,-1
 669 730 l 1,25,-1
 669 651 l 1,26,-1
 289 651 l 2,0,1
638 -2 m 0,27,28
 530 -9 530 -9 474 40 c 128,-1,29
 418 89 418 89 418 198 c 2,30,-1
 418 1490 l 1,31,-1
 507 1490 l 1,32,-1
 507 209 l 2,33,34
 507 129 507 129 540 102 c 128,-1,35
 573 75 573 75 642 81 c 0,36,37
 653 81 653 81 658.5 81.5 c 128,-1,38
 664 82 664 82 671 83 c 1,39,-1
 681 3 l 1,40,41
 672 1 672 1 660.5 0 c 128,-1,42
 649 -1 649 -1 638 -2 c 0,27,28
EndSplineSet
EndChar

StartChar: l.sc
Encoding: 60952 60952 767
Width: 922
Flags: W
LayerCount: 2
Fore
SplineSet
158 0 m 1,0,-1
 158 1087 l 1,1,-1
 247 1087 l 1,2,-1
 247 85 l 1,3,-1
 834 85 l 1,4,-1
 834 0 l 1,5,-1
 158 0 l 1,0,-1
EndSplineSet
EndChar

StartChar: m
Encoding: 109 109 768
Width: 1725
GlyphClass: 2
Flags: W
AnchorPoint: "Anchor-1" 863 1087 basechar 0
AnchorPoint: "Anchor-0" 863 0 basechar 0
LayerCount: 2
Fore
SplineSet
158 0 m 1,0,-1
 158 1087 l 1,1,-1
 246 1087 l 1,2,-1
 246 841 l 1,3,-1
 230 841 l 1,4,5
 254 931 254 931 306.5 989 c 128,-1,6
 359 1047 359 1047 428.5 1075.5 c 128,-1,7
 498 1104 498 1104 571 1104 c 0,8,9
 695 1104 695 1104 780.5 1029.5 c 128,-1,10
 866 955 866 955 888 830 c 1,11,-1
 866 830 l 1,12,13
 886 915 886 915 937 976 c 128,-1,14
 988 1037 988 1037 1062 1070.5 c 128,-1,15
 1136 1104 1136 1104 1223 1104 c 0,16,17
 1326 1104 1326 1104 1403 1059 c 128,-1,18
 1480 1014 1480 1014 1523.5 928.5 c 128,-1,19
 1567 843 1567 843 1567 720 c 2,20,-1
 1567 0 l 1,21,-1
 1479 0 l 1,22,-1
 1479 720 l 2,23,24
 1479 868 1479 868 1403 944 c 128,-1,25
 1327 1020 1327 1020 1206 1020 c 0,26,27
 1122 1020 1122 1020 1054 983 c 128,-1,28
 986 946 986 946 947 877.5 c 128,-1,29
 908 809 908 809 908 713 c 2,30,-1
 908 0 l 1,31,-1
 819 0 l 1,32,-1
 819 726 l 2,33,34
 819 866 819 866 745.5 943 c 128,-1,35
 672 1020 672 1020 552 1020 c 0,36,37
 468 1020 468 1020 398.5 981.5 c 128,-1,38
 329 943 329 943 288 871.5 c 128,-1,39
 247 800 247 800 247 704 c 2,40,-1
 247 0 l 1,41,-1
 158 0 l 1,0,-1
EndSplineSet
Substitution2: "'smcp' Lowercase to Small Capitals in Latin lookup 69 subtable" m.sc
Substitution2: "'c2sc' Capitals to Small Capitals in Latin lookup 68 subtable" m.sc
Substitution2: "'sups' Superscript in Latin lookup 39 subtable" m.sups
Substitution2: "'subs' Subscript in Latin lookup 38 subtable" m.subs
Substitution2: "'sinf' Scientific Inferiors in Latin lookup 18 subtable" m.subs
AlternateSubs2: "'aalt' Access All Alternates in Latin lookup 1 subtable" m.sups m.subs m.sc
EndChar

StartChar: uni0271
Encoding: 625 625 769
Width: 1725
GlyphClass: 2
Flags: W
AnchorPoint: "Anchor-1" 863 1087 basechar 0
AnchorPoint: "Anchor-0" 863 0 basechar 0
LayerCount: 2
Fore
SplineSet
1349 -419 m 0,0,1
 1330 -419 1330 -419 1307.5 -419 c 128,-1,2
 1285 -419 1285 -419 1268 -418 c 1,3,-1
 1268 -338 l 1,4,5
 1285 -338 1285 -338 1307 -338 c 128,-1,6
 1329 -338 1329 -338 1341 -338 c 0,7,8
 1415 -338 1415 -338 1447 -307 c 128,-1,9
 1479 -276 1479 -276 1479 -203 c 2,10,-1
 1479 0 l 1,11,-1
 1567 0 l 1,12,-1
 1567 -203 l 2,13,14
 1567 -312 1567 -312 1512.5 -365.5 c 128,-1,15
 1458 -419 1458 -419 1349 -419 c 0,0,1
158 0 m 1,16,-1
 158 1087 l 1,17,-1
 246 1087 l 1,18,-1
 246 841 l 1,19,-1
 230 841 l 1,20,21
 254 931 254 931 306.5 989 c 128,-1,22
 359 1047 359 1047 428.5 1075.5 c 128,-1,23
 498 1104 498 1104 571 1104 c 0,24,25
 695 1104 695 1104 780.5 1029.5 c 128,-1,26
 866 955 866 955 888 830 c 1,27,-1
 866 830 l 1,28,29
 886 915 886 915 937 976 c 128,-1,30
 988 1037 988 1037 1062 1070.5 c 128,-1,31
 1136 1104 1136 1104 1224 1104 c 0,32,33
 1327 1104 1327 1104 1403.5 1059 c 128,-1,34
 1480 1014 1480 1014 1523.5 928.5 c 128,-1,35
 1567 843 1567 843 1567 720 c 2,36,-1
 1567 0 l 1,37,-1
 1479 0 l 1,38,-1
 1479 720 l 2,39,40
 1479 869 1479 869 1403 944.5 c 128,-1,41
 1327 1020 1327 1020 1207 1020 c 0,42,43
 1122 1020 1122 1020 1054 983.5 c 128,-1,44
 986 947 986 947 947 878.5 c 128,-1,45
 908 810 908 810 908 713 c 2,46,-1
 908 0 l 1,47,-1
 819 0 l 1,48,-1
 819 726 l 2,49,50
 819 866 819 866 745.5 943 c 128,-1,51
 672 1020 672 1020 553 1020 c 0,52,53
 468 1020 468 1020 398.5 981.5 c 128,-1,54
 329 943 329 943 288 871.5 c 128,-1,55
 247 800 247 800 247 704 c 2,56,-1
 247 0 l 1,57,-1
 158 0 l 1,16,-1
EndSplineSet
EndChar

StartChar: mturn
Encoding: 623 623 770
Width: 1725
GlyphClass: 2
Flags: W
AnchorPoint: "Anchor-1" 862 1087 basechar 0
AnchorPoint: "Anchor-0" 862 0 basechar 0
LayerCount: 2
Fore
SplineSet
1567 1087 m 1,0,-1
 1567 0 l 1,1,-1
 1481 0 l 1,2,-1
 1480 246 l 1,3,-1
 1497 246 l 1,4,5
 1474 157 1474 157 1420.5 98.5 c 128,-1,6
 1367 40 1367 40 1297 11.5 c 128,-1,7
 1227 -17 1227 -17 1154 -17 c 0,8,9
 1031 -17 1031 -17 946 58 c 128,-1,10
 861 133 861 133 839 257 c 1,11,-1
 860 257 l 1,12,13
 841 173 841 173 789.5 111.5 c 128,-1,14
 738 50 738 50 664 16.5 c 128,-1,15
 590 -17 590 -17 503 -17 c 0,16,17
 400 -17 400 -17 322.5 28 c 128,-1,18
 245 73 245 73 201.5 159.5 c 128,-1,19
 158 246 158 246 158 367 c 2,20,-1
 158 1087 l 1,21,-1
 248 1087 l 1,22,-1
 248 368 l 2,23,24
 248 220 248 220 323.5 143.5 c 128,-1,25
 399 67 399 67 520 67 c 0,26,27
 606 67 606 67 673 104 c 128,-1,28
 740 141 740 141 779.5 209.5 c 128,-1,29
 819 278 819 278 819 374 c 2,30,-1
 819 1087 l 1,31,-1
 908 1087 l 1,32,-1
 908 362 l 2,33,34
 908 222 908 222 981.5 144.5 c 128,-1,35
 1055 67 1055 67 1173 67 c 0,36,37
 1258 67 1258 67 1327 106.5 c 128,-1,38
 1396 146 1396 146 1437 217 c 128,-1,39
 1478 288 1478 288 1478 383 c 2,40,-1
 1478 1087 l 1,41,-1
 1567 1087 l 1,0,-1
EndSplineSet
EndChar

StartChar: mturndescend
Encoding: 624 624 771
Width: 1725
GlyphClass: 2
Flags: W
AnchorPoint: "Anchor-1" 862 1087 basechar 0
AnchorPoint: "Anchor-0" 862 0 basechar 0
LayerCount: 2
Fore
SplineSet
1478 -418 m 1,0,-1
 1478 0 l 1,1,-1
 1565 0 l 1,2,-1
 1565 -418 l 1,3,-1
 1478 -418 l 1,0,-1
1567 1087 m 1,4,-1
 1567 0 l 1,5,-1
 1481 0 l 1,6,-1
 1480 246 l 1,7,-1
 1497 246 l 1,8,9
 1474 157 1474 157 1420.5 98.5 c 128,-1,10
 1367 40 1367 40 1297 11.5 c 128,-1,11
 1227 -17 1227 -17 1154 -17 c 0,12,13
 1031 -17 1031 -17 946 58 c 128,-1,14
 861 133 861 133 839 257 c 1,15,-1
 860 257 l 1,16,17
 841 173 841 173 789.5 111.5 c 128,-1,18
 738 50 738 50 664 16.5 c 128,-1,19
 590 -17 590 -17 503 -17 c 0,20,21
 400 -17 400 -17 322.5 28 c 128,-1,22
 245 73 245 73 201.5 159.5 c 128,-1,23
 158 246 158 246 158 367 c 2,24,-1
 158 1087 l 1,25,-1
 248 1087 l 1,26,-1
 248 368 l 2,27,28
 248 220 248 220 323.5 143.5 c 128,-1,29
 399 67 399 67 520 67 c 0,30,31
 606 67 606 67 673 104 c 128,-1,32
 740 141 740 141 779.5 209.5 c 128,-1,33
 819 278 819 278 819 374 c 2,34,-1
 819 1087 l 1,35,-1
 908 1087 l 1,36,-1
 908 362 l 2,37,38
 908 222 908 222 981.5 144.5 c 128,-1,39
 1055 67 1055 67 1173 67 c 0,40,41
 1258 67 1258 67 1327 106.5 c 128,-1,42
 1396 146 1396 146 1437 217 c 128,-1,43
 1478 288 1478 288 1478 383 c 2,44,-1
 1478 1087 l 1,45,-1
 1567 1087 l 1,4,-1
EndSplineSet
EndChar

StartChar: n
Encoding: 110 110 775
Width: 1143
GlyphClass: 2
Flags: W
AnchorPoint: "Anchor-1" 574 1087 basechar 0
AnchorPoint: "Anchor-0" 572 0 basechar 0
LayerCount: 2
Fore
SplineSet
247 694 m 2,0,-1
 247 0 l 1,1,-1
 158 0 l 1,2,-1
 158 1087 l 1,3,-1
 246 1087 l 1,4,-1
 245 840 l 1,5,-1
 226 840 l 1,6,7
 266 975 266 975 368.5 1039 c 128,-1,8
 471 1103 471 1103 597 1103 c 0,9,10
 711 1103 711 1103 798 1055.5 c 128,-1,11
 885 1008 885 1008 935 920 c 128,-1,12
 985 832 985 832 985 707 c 2,13,-1
 985 0 l 1,14,-1
 896 0 l 1,15,-1
 896 703 l 2,16,17
 896 849 896 849 810 934.5 c 128,-1,18
 724 1020 724 1020 583 1020 c 0,19,20
 488 1020 488 1020 412 980 c 128,-1,21
 336 940 336 940 291.5 867 c 128,-1,22
 247 794 247 794 247 694 c 2,0,-1
EndSplineSet
Substitution2: "'smcp' Lowercase to Small Capitals in Latin lookup 69 subtable" n.sc
Substitution2: "'c2sc' Capitals to Small Capitals in Latin lookup 68 subtable" n.sc
Substitution2: "'sups' Superscript in Latin lookup 39 subtable" n.sups
Substitution2: "'subs' Subscript in Latin lookup 38 subtable" n.subs
Substitution2: "'numr' Numerators in Latin lookup 19 subtable" n.numr
Substitution2: "'sinf' Scientific Inferiors in Latin lookup 18 subtable" n.subs
AlternateSubs2: "'aalt' Access All Alternates in Latin lookup 1 subtable" n.sc n.numr n.sups n.subs
EndChar

StartChar: nrthook
Encoding: 627 627 777
Width: 1143
GlyphClass: 2
Flags: W
AnchorPoint: "Anchor-1" 574 1087 basechar 0
AnchorPoint: "Anchor-0" 572 0 basechar 0
LayerCount: 2
Fore
SplineSet
1115 -419 m 0,0,1
 1006 -419 1006 -419 951.5 -365.5 c 128,-1,2
 897 -312 897 -312 897 -203 c 2,3,-1
 897 0 l 1,4,-1
 986 0 l 1,5,-1
 986 -203 l 2,6,7
 986 -276 986 -276 1018 -307 c 128,-1,8
 1050 -338 1050 -338 1123 -338 c 0,9,10
 1136 -338 1136 -338 1157.5 -338 c 128,-1,11
 1179 -338 1179 -338 1197 -338 c 1,12,-1
 1197 -418 l 1,13,14
 1179 -419 1179 -419 1157 -419 c 128,-1,15
 1135 -419 1135 -419 1115 -419 c 0,0,1
247 694 m 2,16,-1
 247 0 l 1,17,-1
 158 0 l 1,18,-1
 158 1087 l 1,19,-1
 246 1087 l 1,20,-1
 245 840 l 1,21,-1
 226 840 l 1,22,23
 266 975 266 975 368.5 1039 c 128,-1,24
 471 1103 471 1103 597 1103 c 0,25,26
 711 1103 711 1103 798 1055.5 c 128,-1,27
 885 1008 885 1008 935 920 c 128,-1,28
 985 832 985 832 985 707 c 2,29,-1
 985 0 l 1,30,-1
 896 0 l 1,31,-1
 896 703 l 2,32,33
 896 849 896 849 810 934.5 c 128,-1,34
 724 1020 724 1020 583 1020 c 0,35,36
 488 1020 488 1020 412 980 c 128,-1,37
 336 940 336 940 291.5 867 c 128,-1,38
 247 794 247 794 247 694 c 2,16,-1
EndSplineSet
EndChar

StartChar: eng
Encoding: 331 331 778
Width: 1143
GlyphClass: 2
Flags: W
AnchorPoint: "Anchor-1" 574 1087 basechar 0
AnchorPoint: "Anchor-0" 572 0 basechar 0
LayerCount: 2
Fore
SplineSet
683 -418 m 1,0,-1
 683 -334 l 1,1,2
 702 -335 702 -335 725.5 -335.5 c 128,-1,3
 749 -336 749 -336 761 -336 c 0,4,5
 833 -336 833 -336 864.5 -304.5 c 128,-1,6
 896 -273 896 -273 896 -200 c 2,7,-1
 896 0 l 1,8,-1
 986 0 l 1,9,-1
 986 -203 l 2,10,11
 986 -312 986 -312 930.5 -365.5 c 128,-1,12
 875 -419 875 -419 767 -419 c 0,13,14
 747 -419 747 -419 723.5 -419 c 128,-1,15
 700 -419 700 -419 683 -418 c 1,0,-1
247 694 m 2,16,-1
 247 0 l 1,17,-1
 158 0 l 1,18,-1
 158 1087 l 1,19,-1
 246 1087 l 1,20,-1
 245 840 l 1,21,-1
 226 840 l 1,22,23
 266 975 266 975 368.5 1039 c 128,-1,24
 471 1103 471 1103 597 1103 c 0,25,26
 711 1103 711 1103 798 1055.5 c 128,-1,27
 885 1008 885 1008 935 920 c 128,-1,28
 985 832 985 832 985 707 c 2,29,-1
 985 0 l 1,30,-1
 896 0 l 1,31,-1
 896 703 l 2,32,33
 896 849 896 849 810 934.5 c 128,-1,34
 724 1020 724 1020 583 1020 c 0,35,36
 488 1020 488 1020 412 980 c 128,-1,37
 336 940 336 940 291.5 867 c 128,-1,38
 247 794 247 794 247 694 c 2,16,-1
EndSplineSet
EndChar

StartChar: uni0235
Encoding: 565 565 779
Width: 1463
GlyphClass: 2
Flags: W
AnchorPoint: "Anchor-1" 574 1087 basechar 0
AnchorPoint: "Anchor-0" 572 0 basechar 0
LayerCount: 2
Fore
SplineSet
1173 -413 m 0,0,1
 1086 -413 1086 -413 1024 -376 c 128,-1,2
 962 -339 962 -339 929.5 -277.5 c 128,-1,3
 897 -216 897 -216 897 -141 c 2,4,-1
 897 121 l 1,5,-1
 986 121 l 1,6,-1
 986 -147 l 2,7,8
 986 -233 986 -233 1039.5 -282 c 128,-1,9
 1093 -331 1093 -331 1173 -331 c 0,10,11
 1248 -331 1248 -331 1298.5 -287.5 c 128,-1,12
 1349 -244 1349 -244 1349 -174 c 0,13,14
 1349 -105 1349 -105 1299 -61 c 128,-1,15
 1249 -17 1249 -17 1176 -15 c 0,16,17
 1127 -13 1127 -13 1082 -34 c 128,-1,18
 1037 -55 1037 -55 991.5 -103 c 128,-1,19
 946 -151 946 -151 893 -231 c 1,20,-1
 758 -392 l 1,21,-1
 694 -336 l 1,22,-1
 816 -189 l 1,23,24
 911 -52 911 -52 997 7 c 128,-1,25
 1083 66 1083 66 1175 66 c 0,26,27
 1287 66 1287 66 1363 0 c 128,-1,28
 1439 -66 1439 -66 1439 -174 c 0,29,30
 1439 -281 1439 -281 1364.5 -347 c 128,-1,31
 1290 -413 1290 -413 1173 -413 c 0,0,1
247 694 m 2,32,-1
 247 0 l 1,33,-1
 158 0 l 1,34,-1
 158 1087 l 1,35,-1
 246 1087 l 1,36,-1
 245 840 l 1,37,-1
 226 840 l 1,38,39
 266 975 266 975 368.5 1039 c 128,-1,40
 471 1103 471 1103 597 1103 c 0,41,42
 711 1103 711 1103 798 1055.5 c 128,-1,43
 885 1008 885 1008 935 920 c 128,-1,44
 985 832 985 832 985 707 c 2,45,-1
 985 0 l 1,46,-1
 896 0 l 1,47,-1
 896 703 l 2,48,49
 896 849 896 849 810 934.5 c 128,-1,50
 724 1020 724 1020 583 1020 c 0,51,52
 488 1020 488 1020 412 980 c 128,-1,53
 336 940 336 940 291.5 867 c 128,-1,54
 247 794 247 794 247 694 c 2,32,-1
EndSplineSet
EndChar

StartChar: nlfthook
Encoding: 626 626 780
Width: 1143
GlyphClass: 2
Flags: W
AnchorPoint: "Anchor-1" 574 1087 basechar 0
AnchorPoint: "Anchor-0" 572 0 basechar 0
LayerCount: 2
Fore
SplineSet
30 -419 m 0,0,1
 9 -419 9 -419 -13.5 -419 c 128,-1,2
 -36 -419 -36 -419 -53 -418 c 1,3,-1
 -53 -338 l 1,4,5
 -35 -338 -35 -338 -13.5 -338 c 128,-1,6
 8 -338 8 -338 22 -338 c 0,7,8
 94 -338 94 -338 126 -307 c 128,-1,9
 158 -276 158 -276 158 -203 c 2,10,-1
 158 0 l 1,11,-1
 248 0 l 1,12,-1
 248 -203 l 2,13,14
 248 -312 248 -312 192.5 -365.5 c 128,-1,15
 137 -419 137 -419 30 -419 c 0,0,1
247 694 m 2,16,-1
 247 0 l 1,17,-1
 158 0 l 1,18,-1
 158 1087 l 1,19,-1
 246 1087 l 1,20,-1
 245 840 l 1,21,-1
 226 840 l 1,22,23
 266 975 266 975 368.5 1039 c 128,-1,24
 471 1103 471 1103 597 1103 c 0,25,26
 711 1103 711 1103 798 1055.5 c 128,-1,27
 885 1008 885 1008 935 920 c 128,-1,28
 985 832 985 832 985 707 c 2,29,-1
 985 0 l 1,30,-1
 896 0 l 1,31,-1
 896 703 l 2,32,33
 896 849 896 849 810 934.5 c 128,-1,34
 724 1020 724 1020 583 1020 c 0,35,36
 488 1020 488 1020 412 980 c 128,-1,37
 336 940 336 940 291.5 867 c 128,-1,38
 247 794 247 794 247 694 c 2,16,-1
EndSplineSet
EndChar

StartChar: n.sc
Encoding: 60953 60953 791
Width: 1236
GlyphClass: 2
Flags: W
AnchorPoint: "Anchor-1" 619 1087 basechar 0
AnchorPoint: "Anchor-0" 619 0 basechar 0
LayerCount: 2
Fore
SplineSet
158 0 m 1,0,-1
 158 1087 l 1,1,-1
 273 1087 l 1,2,-1
 805 366 l 2,3,4
 862 286 862 286 914.5 209.5 c 128,-1,5
 967 133 967 133 1018 57 c 1,6,-1
 991 57 l 1,7,8
 991 108 991 108 990.5 159 c 128,-1,9
 990 210 990 210 990 261.5 c 128,-1,10
 990 313 990 313 990 366 c 2,11,-1
 990 1087 l 1,12,-1
 1078 1087 l 1,13,-1
 1078 0 l 1,14,-1
 965 0 l 1,15,-1
 432 724 l 2,16,17
 373 804 373 804 320.5 880 c 128,-1,18
 268 956 268 956 218 1031 c 1,19,-1
 246 1031 l 1,20,21
 247 956 247 956 247 879.5 c 128,-1,22
 247 803 247 803 247 724 c 2,23,-1
 247 0 l 1,24,-1
 158 0 l 1,0,-1
EndSplineSet
EndChar

StartChar: o
Encoding: 111 111 792
Width: 1140
GlyphClass: 2
Flags: W
AnchorPoint: "Anchor-4" 1045 541 basechar 0
AnchorPoint: "Anchor-1" 571 1087 basechar 0
AnchorPoint: "Anchor-0" 571 0 basechar 0
LayerCount: 2
Fore
SplineSet
571 -21 m 0,0,1
 432 -21 432 -21 324.5 52 c 128,-1,2
 217 125 217 125 156 252 c 128,-1,3
 95 379 95 379 95 541 c 0,4,5
 95 705 95 705 156 832 c 128,-1,6
 217 959 217 959 324.5 1031.5 c 128,-1,7
 432 1104 432 1104 571 1104 c 256,8,9
 710 1104 710 1104 817 1031.5 c 128,-1,10
 924 959 924 959 984.5 832 c 128,-1,11
 1045 705 1045 705 1045 541 c 0,12,13
 1045 379 1045 379 984.5 252 c 128,-1,14
 924 125 924 125 817.5 52 c 128,-1,15
 711 -21 711 -21 571 -21 c 0,0,1
571 63 m 256,16,17
 687 63 687 63 773.5 125 c 128,-1,18
 860 187 860 187 908 295.5 c 128,-1,19
 956 404 956 404 956 541 c 0,20,21
 956 679 956 679 907.5 787.5 c 128,-1,22
 859 896 859 896 772.5 959 c 128,-1,23
 686 1022 686 1022 571 1022 c 0,24,25
 455 1022 455 1022 368.5 959 c 128,-1,26
 282 896 282 896 233.5 787.5 c 128,-1,27
 185 679 185 679 185 541 c 256,28,29
 185 403 185 403 233.5 295 c 128,-1,30
 282 187 282 187 368.5 125 c 128,-1,31
 455 63 455 63 571 63 c 256,16,17
EndSplineSet
Substitution2: "Single Substitution lookup 44 subtable" ordmasculine
Substitution2: "'sups' Superscript in Latin lookup 39 subtable" o.sups
Substitution2: "'subs' Subscript in Latin lookup 38 subtable" o.subs
Substitution2: "'sinf' Scientific Inferiors in Latin lookup 18 subtable" o.subs
AlternateSubs2: "'aalt' Access All Alternates in Latin lookup 1 subtable" ordmasculine o.sups o.subs
EndChar

StartChar: ohorn
Encoding: 417 417 796
Width: 1139
GlyphClass: 2
Flags: W
AnchorPoint: "Anchor-4" 1045 541 basechar 0
AnchorPoint: "Anchor-1" 571 1087 basechar 0
AnchorPoint: "Anchor-0" 571 0 basechar 0
LayerCount: 2
Fore
SplineSet
570 1038 m 1,0,-1
 570 1104 l 1,1,2
 614 1103 614 1103 653.5 1101 c 128,-1,3
 693 1099 693 1099 733 1096 c 128,-1,4
 773 1093 773 1093 815.5 1090.5 c 128,-1,5
 858 1088 858 1088 908 1088 c 0,6,7
 971 1088 971 1088 971 1150 c 2,8,-1
 971 1318 l 1,9,-1
 1056 1318 l 1,10,-1
 1056 1155 l 2,11,12
 1056 1091 1056 1091 1020.5 1057.5 c 128,-1,13
 985 1024 985 1024 918 1024 c 0,14,15
 831 1024 831 1024 743.5 1029 c 128,-1,16
 656 1034 656 1034 570 1038 c 1,0,-1
571 -21 m 0,17,18
 432 -21 432 -21 324.5 52 c 128,-1,19
 217 125 217 125 156 252 c 128,-1,20
 95 379 95 379 95 541 c 0,21,22
 95 705 95 705 156 832 c 128,-1,23
 217 959 217 959 324.5 1031.5 c 128,-1,24
 432 1104 432 1104 571 1104 c 256,25,26
 710 1104 710 1104 817 1031.5 c 128,-1,27
 924 959 924 959 984.5 832 c 128,-1,28
 1045 705 1045 705 1045 541 c 0,29,30
 1045 379 1045 379 984.5 252 c 128,-1,31
 924 125 924 125 817.5 52 c 128,-1,32
 711 -21 711 -21 571 -21 c 0,17,18
571 63 m 256,33,34
 687 63 687 63 773.5 125 c 128,-1,35
 860 187 860 187 908 295.5 c 128,-1,36
 956 404 956 404 956 541 c 0,37,38
 956 679 956 679 907.5 787.5 c 128,-1,39
 859 896 859 896 772.5 959 c 128,-1,40
 686 1022 686 1022 571 1022 c 0,41,42
 455 1022 455 1022 368.5 959 c 128,-1,43
 282 896 282 896 233.5 787.5 c 128,-1,44
 185 679 185 679 185 541 c 256,45,46
 185 403 185 403 233.5 295 c 128,-1,47
 282 187 282 187 368.5 125 c 128,-1,48
 455 63 455 63 571 63 c 256,33,34
EndSplineSet
EndChar

StartChar: uni1EE1
Encoding: 7905 7905 826
Width: 1139
GlyphClass: 2
Flags: W
AnchorPoint: "Anchor-4" 1045 541 basechar 0
AnchorPoint: "Anchor-1" 571 1495 basechar 0
AnchorPoint: "Anchor-0" 571 0 basechar 0
LayerCount: 2
Fore
SplineSet
571 -21 m 0,0,1
 432 -21 432 -21 324.5 52 c 128,-1,2
 217 125 217 125 156 252 c 128,-1,3
 95 379 95 379 95 541 c 0,4,5
 95 705 95 705 156 832 c 128,-1,6
 217 959 217 959 324.5 1031.5 c 128,-1,7
 432 1104 432 1104 571 1104 c 256,8,9
 710 1104 710 1104 817 1031.5 c 128,-1,10
 924 959 924 959 984.5 832 c 128,-1,11
 1045 705 1045 705 1045 541 c 0,12,13
 1045 379 1045 379 984.5 252 c 128,-1,14
 924 125 924 125 817.5 52 c 128,-1,15
 711 -21 711 -21 571 -21 c 0,0,1
571 63 m 256,16,17
 687 63 687 63 773.5 125 c 128,-1,18
 860 187 860 187 908 295.5 c 128,-1,19
 956 404 956 404 956 541 c 0,20,21
 956 679 956 679 907.5 787.5 c 128,-1,22
 859 896 859 896 772.5 959 c 128,-1,23
 686 1022 686 1022 571 1022 c 0,24,25
 455 1022 455 1022 368.5 959 c 128,-1,26
 282 896 282 896 233.5 787.5 c 128,-1,27
 185 679 185 679 185 541 c 256,28,29
 185 403 185 403 233.5 295 c 128,-1,30
 282 187 282 187 368.5 125 c 128,-1,31
 455 63 455 63 571 63 c 256,16,17
570 1038 m 1,32,-1
 570 1104 l 1,33,34
 614 1103 614 1103 653.5 1101 c 128,-1,35
 693 1099 693 1099 733 1096 c 128,-1,36
 773 1093 773 1093 815.5 1090.5 c 128,-1,37
 858 1088 858 1088 908 1088 c 0,38,39
 971 1088 971 1088 971 1150 c 2,40,-1
 971 1318 l 1,41,-1
 1056 1318 l 1,42,-1
 1056 1155 l 2,43,44
 1056 1091 1056 1091 1020.5 1057.5 c 128,-1,45
 985 1024 985 1024 918 1024 c 0,46,47
 831 1024 831 1024 743.5 1029 c 128,-1,48
 656 1034 656 1034 570 1038 c 1,32,-1
701 1307 m 0,49,50
 660 1307 660 1307 628 1323.5 c 128,-1,51
 596 1340 596 1340 567.5 1360.5 c 128,-1,52
 539 1381 539 1381 512.5 1397 c 128,-1,53
 486 1413 486 1413 457 1413 c 0,54,55
 416 1413 416 1413 390.5 1385 c 128,-1,56
 365 1357 365 1357 361 1313 c 1,57,-1
 290 1313 l 1,58,59
 295 1388 295 1388 335.5 1437.5 c 128,-1,60
 376 1487 376 1487 446 1487 c 0,61,62
 489 1487 489 1487 522 1470 c 128,-1,63
 555 1453 555 1453 582 1432.5 c 128,-1,64
 609 1412 609 1412 634.5 1395.5 c 128,-1,65
 660 1379 660 1379 689 1379 c 0,66,67
 726 1379 726 1379 749 1402 c 128,-1,68
 772 1425 772 1425 781 1478 c 1,69,-1
 853 1478 l 1,70,71
 844 1400 844 1400 803.5 1353.5 c 128,-1,72
 763 1307 763 1307 701 1307 c 0,49,50
EndSplineSet
Ligature2: "'ccmp' Glyph Composition/Decomposition in Latin lookup 6 subtable" ohorn tildecomb
EndChar

StartChar: obar
Encoding: 629 629 839
Width: 1140
GlyphClass: 2
Flags: W
AnchorPoint: "Anchor-4" 1045 541 basechar 0
AnchorPoint: "Anchor-1" 571 1087 basechar 0
AnchorPoint: "Anchor-0" 571 0 basechar 0
LayerCount: 2
Fore
SplineSet
991 584 m 1,0,-1
 991 504 l 1,1,-1
 151 504 l 1,2,-1
 151 584 l 1,3,-1
 991 584 l 1,0,-1
571 -21 m 0,4,5
 432 -21 432 -21 324.5 52 c 128,-1,6
 217 125 217 125 156 252 c 128,-1,7
 95 379 95 379 95 541 c 0,8,9
 95 705 95 705 156 832 c 128,-1,10
 217 959 217 959 324.5 1031.5 c 128,-1,11
 432 1104 432 1104 571 1104 c 256,12,13
 710 1104 710 1104 817 1031.5 c 128,-1,14
 924 959 924 959 984.5 832 c 128,-1,15
 1045 705 1045 705 1045 541 c 0,16,17
 1045 379 1045 379 984.5 252 c 128,-1,18
 924 125 924 125 817.5 52 c 128,-1,19
 711 -21 711 -21 571 -21 c 0,4,5
571 63 m 256,20,21
 687 63 687 63 773.5 125 c 128,-1,22
 860 187 860 187 908 295.5 c 128,-1,23
 956 404 956 404 956 541 c 0,24,25
 956 679 956 679 907.5 787.5 c 128,-1,26
 859 896 859 896 772.5 959 c 128,-1,27
 686 1022 686 1022 571 1022 c 0,28,29
 455 1022 455 1022 368.5 959 c 128,-1,30
 282 896 282 896 233.5 787.5 c 128,-1,31
 185 679 185 679 185 541 c 256,32,33
 185 403 185 403 233.5 295 c 128,-1,34
 282 187 282 187 368.5 125 c 128,-1,35
 455 63 455 63 571 63 c 256,20,21
EndSplineSet
EndChar

StartChar: oe.sc
Encoding: 60954 60954 843
Width: 1613
Flags: W
LayerCount: 2
Fore
SplineSet
593 0 m 2,0,1
 440 0 440 0 328 66 c 128,-1,2
 216 132 216 132 155.5 253.5 c 128,-1,3
 95 375 95 375 95 540 c 2,4,-1
 95 548 l 2,5,6
 95 706 95 706 155 827.5 c 128,-1,7
 215 949 215 949 326.5 1018 c 128,-1,8
 438 1087 438 1087 591 1087 c 2,9,-1
 878 1087 l 1,10,-1
 878 1004 l 1,11,-1
 592 1004 l 2,12,13
 463 1004 463 1004 372 946 c 128,-1,14
 281 888 281 888 232.5 785 c 128,-1,15
 184 682 184 682 184 548 c 2,16,-1
 184 540 l 2,17,18
 184 399 184 399 233.5 296 c 128,-1,19
 283 193 283 193 374 138 c 128,-1,20
 465 83 465 83 593 83 c 2,21,-1
 874 83 l 1,22,-1
 874 0 l 1,23,-1
 593 0 l 2,0,1
898 0 m 1,24,-1
 898 83 l 1,25,-1
 1548 83 l 1,26,-1
 1548 0 l 1,27,-1
 898 0 l 1,24,-1
832 0 m 1,28,-1
 832 1087 l 1,29,-1
 920 1087 l 1,30,-1
 920 0 l 1,31,-1
 832 0 l 1,28,-1
898 511 m 1,32,-1
 898 593 l 1,33,-1
 1462 593 l 1,34,-1
 1462 511 l 1,35,-1
 898 511 l 1,32,-1
898 1004 m 1,36,-1
 898 1087 l 1,37,-1
 1548 1087 l 1,38,-1
 1548 1004 l 1,39,-1
 898 1004 l 1,36,-1
EndSplineSet
EndChar

StartChar: p
Encoding: 112 112 845
Width: 1171
GlyphClass: 2
Flags: W
AnchorPoint: "Anchor-1" 624 1087 basechar 0
AnchorPoint: "Anchor-0" 203 -417 basechar 0
LayerCount: 2
Fore
SplineSet
158 -418 m 1,0,-1
 158 1087 l 1,1,-1
 245 1087 l 1,2,-1
 245 841 l 1,3,-1
 252 841 l 1,4,5
 277 915 277 915 329 974.5 c 128,-1,6
 381 1034 381 1034 456 1068.5 c 128,-1,7
 531 1103 531 1103 623 1103 c 0,8,9
 757 1103 757 1103 859.5 1032.5 c 128,-1,10
 962 962 962 962 1019.5 835 c 128,-1,11
 1077 708 1077 708 1077 542 c 0,12,13
 1077 375 1077 375 1019.5 248.5 c 128,-1,14
 962 122 962 122 860.5 50.5 c 128,-1,15
 759 -21 759 -21 624 -21 c 0,16,17
 532 -21 532 -21 457.5 14 c 128,-1,18
 383 49 383 49 331 109 c 128,-1,19
 279 169 279 169 252 243 c 1,20,-1
 247 243 l 1,21,-1
 247 -418 l 1,22,-1
 158 -418 l 1,0,-1
615 62 m 0,23,24
 727 62 727 62 810.5 123 c 128,-1,25
 894 184 894 184 941 292 c 128,-1,26
 988 400 988 400 988 542 c 0,27,28
 988 685 988 685 941.5 793 c 128,-1,29
 895 901 895 901 811 961 c 128,-1,30
 727 1021 727 1021 615 1021 c 0,31,32
 502 1021 502 1021 418.5 960.5 c 128,-1,33
 335 900 335 900 289.5 792 c 128,-1,34
 244 684 244 684 244 542 c 0,35,36
 244 401 244 401 289.5 293 c 128,-1,37
 335 185 335 185 418.5 123.5 c 128,-1,38
 502 62 502 62 615 62 c 0,23,24
EndSplineSet
Substitution2: "'sups' Superscript in Latin lookup 39 subtable" p.sups
Substitution2: "'subs' Subscript in Latin lookup 38 subtable" p.subs
Substitution2: "'sinf' Scientific Inferiors in Latin lookup 18 subtable" p.subs
AlternateSubs2: "'aalt' Access All Alternates in Latin lookup 1 subtable" p.sups p.subs
EndChar

StartChar: uni048F
Encoding: 1167 1167 846
Width: 1192
GlyphClass: 2
Flags: W
AnchorPoint: "Anchor-1" 618 1087 basechar 0
AnchorPoint: "Anchor-0" 198 -417 basechar 0
LayerCount: 2
Fore
SplineSet
757 306 m 1,0,-1
 1055 -3 l 1,1,-1
 995 -64 l 1,2,-1
 697 247 l 1,3,-1
 757 306 l 1,0,-1
153 -418 m 1,4,-1
 153 1087 l 1,5,-1
 240 1087 l 1,6,-1
 240 841 l 1,7,-1
 246 841 l 1,8,9
 272 915 272 915 324 974.5 c 128,-1,10
 376 1034 376 1034 451 1068.5 c 128,-1,11
 526 1103 526 1103 618 1103 c 0,12,13
 752 1103 752 1103 854 1032.5 c 128,-1,14
 956 962 956 962 1013.5 835 c 128,-1,15
 1071 708 1071 708 1071 542 c 0,16,17
 1071 375 1071 375 1014 248.5 c 128,-1,18
 957 122 957 122 855 50.5 c 128,-1,19
 753 -21 753 -21 619 -21 c 0,20,21
 527 -21 527 -21 452.5 14 c 128,-1,22
 378 49 378 49 326 109 c 128,-1,23
 274 169 274 169 247 243 c 1,24,-1
 242 243 l 1,25,-1
 242 -418 l 1,26,-1
 153 -418 l 1,4,-1
609 62 m 256,27,28
 722 62 722 62 805 123 c 128,-1,29
 888 184 888 184 935 292 c 128,-1,30
 982 400 982 400 982 542 c 0,31,32
 982 685 982 685 935.5 793 c 128,-1,33
 889 901 889 901 805.5 961 c 128,-1,34
 722 1021 722 1021 609 1021 c 0,35,36
 497 1021 497 1021 413.5 960.5 c 128,-1,37
 330 900 330 900 284.5 792 c 128,-1,38
 239 684 239 684 239 542 c 0,39,40
 239 401 239 401 284 293 c 128,-1,41
 329 185 329 185 412.5 123.5 c 128,-1,42
 496 62 496 62 609 62 c 256,27,28
EndSplineSet
EndChar

StartChar: uni01A5
Encoding: 421 421 847
Width: 1171
GlyphClass: 2
Flags: W
AnchorPoint: "Anchor-1" 624 1087 basechar 0
AnchorPoint: "Anchor-0" 203 -417 basechar 0
LayerCount: 2
Fore
SplineSet
158 862 m 1,0,-1
 158 1257 l 2,1,2
 158 1366 158 1366 214.5 1419 c 128,-1,3
 271 1472 271 1472 378 1472 c 0,4,5
 399 1472 399 1472 421 1472 c 128,-1,6
 443 1472 443 1472 460 1471 c 1,7,-1
 460 1390 l 1,8,9
 443 1390 443 1390 421.5 1390.5 c 128,-1,10
 400 1391 400 1391 386 1391 c 0,11,12
 313 1391 313 1391 280 1359.5 c 128,-1,13
 247 1328 247 1328 247 1257 c 2,14,-1
 247 862 l 1,15,-1
 158 862 l 1,0,-1
158 -418 m 1,16,-1
 158 1087 l 1,17,-1
 245 1087 l 1,18,-1
 245 841 l 1,19,-1
 252 841 l 1,20,21
 277 915 277 915 329 974.5 c 128,-1,22
 381 1034 381 1034 456 1068.5 c 128,-1,23
 531 1103 531 1103 623 1103 c 0,24,25
 757 1103 757 1103 859.5 1032.5 c 128,-1,26
 962 962 962 962 1019.5 835 c 128,-1,27
 1077 708 1077 708 1077 542 c 0,28,29
 1077 375 1077 375 1019.5 248.5 c 128,-1,30
 962 122 962 122 860.5 50.5 c 128,-1,31
 759 -21 759 -21 624 -21 c 0,32,33
 532 -21 532 -21 457.5 14 c 128,-1,34
 383 49 383 49 331 109 c 128,-1,35
 279 169 279 169 252 243 c 1,36,-1
 247 243 l 1,37,-1
 247 -418 l 1,38,-1
 158 -418 l 1,16,-1
615 62 m 0,39,40
 727 62 727 62 810.5 123 c 128,-1,41
 894 184 894 184 941 292 c 128,-1,42
 988 400 988 400 988 542 c 0,43,44
 988 685 988 685 941.5 793 c 128,-1,45
 895 901 895 901 811 961 c 128,-1,46
 727 1021 727 1021 615 1021 c 0,47,48
 502 1021 502 1021 418.5 960.5 c 128,-1,49
 335 900 335 900 289.5 792 c 128,-1,50
 244 684 244 684 244 542 c 0,51,52
 244 401 244 401 289.5 293 c 128,-1,53
 335 185 335 185 418.5 123.5 c 128,-1,54
 502 62 502 62 615 62 c 0,39,40
EndSplineSet
EndChar

StartChar: q
Encoding: 113 113 851
Width: 1171
GlyphClass: 2
Flags: W
AnchorPoint: "Anchor-1" 586 1087 basechar 0
AnchorPoint: "Anchor-0" 969 -417 basechar 0
LayerCount: 2
Fore
SplineSet
1013 -418 m 1,0,-1
 924 -418 l 1,1,-1
 924 243 l 1,2,-1
 920 243 l 1,3,4
 893 169 893 169 841 109 c 128,-1,5
 789 49 789 49 715 14 c 128,-1,6
 641 -21 641 -21 549 -21 c 0,7,8
 415 -21 415 -21 312.5 50.5 c 128,-1,9
 210 122 210 122 152.5 248.5 c 128,-1,10
 95 375 95 375 95 542 c 0,11,12
 95 708 95 708 153 835 c 128,-1,13
 211 962 211 962 313 1032.5 c 128,-1,14
 415 1103 415 1103 548 1103 c 0,15,16
 641 1103 641 1103 716 1068.5 c 128,-1,17
 791 1034 791 1034 843.5 974.5 c 128,-1,18
 896 915 896 915 920 841 c 1,19,-1
 926 841 l 1,20,-1
 926 1087 l 1,21,-1
 1013 1087 l 1,22,-1
 1013 -418 l 1,0,-1
557 62 m 0,23,24
 671 62 671 62 754 123.5 c 128,-1,25
 837 185 837 185 882 293 c 128,-1,26
 927 401 927 401 927 542 c 0,27,28
 927 684 927 684 882 792 c 128,-1,29
 837 900 837 900 754 960.5 c 128,-1,30
 671 1021 671 1021 557 1021 c 0,31,32
 446 1021 446 1021 362 961 c 128,-1,33
 278 901 278 901 231.5 793 c 128,-1,34
 185 685 185 685 185 542 c 0,35,36
 185 400 185 400 231.5 292 c 128,-1,37
 278 184 278 184 362 123 c 128,-1,38
 446 62 446 62 557 62 c 0,23,24
EndSplineSet
Substitution2: "'sups' Superscript in Latin lookup 39 subtable" q.sups
Substitution2: "'subs' Subscript in Latin lookup 38 subtable" q.subs
Substitution2: "'sinf' Scientific Inferiors in Latin lookup 18 subtable" q.subs
AlternateSubs2: "'aalt' Access All Alternates in Latin lookup 1 subtable" q.sups q.subs
EndChar

StartChar: uni02A0
Encoding: 672 672 852
Width: 1171
GlyphClass: 2
Flags: W
AnchorPoint: "Anchor-1" 586 1087 basechar 0
AnchorPoint: "Anchor-0" 969 -417 basechar 0
LayerCount: 2
Fore
SplineSet
923 862 m 1,0,-1
 923 1257 l 2,1,2
 923 1366 923 1366 979.5 1419 c 128,-1,3
 1036 1472 1036 1472 1143 1472 c 0,4,5
 1164 1472 1164 1472 1186 1472 c 128,-1,6
 1208 1472 1208 1472 1225 1471 c 1,7,-1
 1225 1390 l 1,8,9
 1208 1390 1208 1390 1186.5 1390.5 c 128,-1,10
 1165 1391 1165 1391 1151 1391 c 0,11,12
 1078 1391 1078 1391 1045 1359.5 c 128,-1,13
 1012 1328 1012 1328 1012 1257 c 2,14,-1
 1012 862 l 1,15,-1
 923 862 l 1,0,-1
1013 -418 m 1,16,-1
 924 -418 l 1,17,-1
 924 243 l 1,18,-1
 920 243 l 1,19,20
 893 169 893 169 841 109 c 128,-1,21
 789 49 789 49 715 14 c 128,-1,22
 641 -21 641 -21 549 -21 c 0,23,24
 415 -21 415 -21 312.5 50.5 c 128,-1,25
 210 122 210 122 152.5 248.5 c 128,-1,26
 95 375 95 375 95 542 c 0,27,28
 95 708 95 708 153 835 c 128,-1,29
 211 962 211 962 313 1032.5 c 128,-1,30
 415 1103 415 1103 548 1103 c 0,31,32
 641 1103 641 1103 716 1068.5 c 128,-1,33
 791 1034 791 1034 843.5 974.5 c 128,-1,34
 896 915 896 915 920 841 c 1,35,-1
 926 841 l 1,36,-1
 926 1087 l 1,37,-1
 1013 1087 l 1,38,-1
 1013 -418 l 1,16,-1
557 62 m 0,39,40
 671 62 671 62 754 123.5 c 128,-1,41
 837 185 837 185 882 293 c 128,-1,42
 927 401 927 401 927 542 c 0,43,44
 927 684 927 684 882 792 c 128,-1,45
 837 900 837 900 754 960.5 c 128,-1,46
 671 1021 671 1021 557 1021 c 0,47,48
 446 1021 446 1021 362 961 c 128,-1,49
 278 901 278 901 231.5 793 c 128,-1,50
 185 685 185 685 185 542 c 0,51,52
 185 400 185 400 231.5 292 c 128,-1,53
 278 184 278 184 362 123 c 128,-1,54
 446 62 446 62 557 62 c 0,39,40
EndSplineSet
EndChar

StartChar: qrthook
Encoding: 587 587 853
Width: 1172
GlyphClass: 2
Flags: W
AnchorPoint: "Anchor-4" 1014 0 basechar 0
AnchorPoint: "Anchor-1" 567 1087 basechar 0
AnchorPoint: "Anchor-0" 572 0 basechar 0
LayerCount: 2
Fore
SplineSet
1143 -419 m 0,0,1
 1036 -419 1036 -419 980.5 -365.5 c 128,-1,2
 925 -312 925 -312 925 -203 c 2,3,-1
 925 255 l 1,4,-1
 1014 255 l 1,5,-1
 1014 -203 l 2,6,7
 1014 -276 1014 -276 1046 -307 c 128,-1,8
 1078 -338 1078 -338 1151 -338 c 0,9,10
 1165 -338 1165 -338 1186.5 -338 c 128,-1,11
 1208 -338 1208 -338 1225 -338 c 1,12,-1
 1225 -418 l 1,13,14
 1208 -419 1208 -419 1186 -419 c 128,-1,15
 1164 -419 1164 -419 1143 -419 c 0,0,1
548 -21 m 0,16,17
 415 -21 415 -21 313 50.5 c 128,-1,18
 211 122 211 122 153 248.5 c 128,-1,19
 95 375 95 375 95 542 c 0,20,21
 95 708 95 708 153 835 c 128,-1,22
 211 962 211 962 313.5 1032.5 c 128,-1,23
 416 1103 416 1103 549 1103 c 0,24,25
 643 1103 643 1103 717 1068.5 c 128,-1,26
 791 1034 791 1034 843.5 974.5 c 128,-1,27
 896 915 896 915 920 841 c 1,28,-1
 926 841 l 1,29,-1
 926 1087 l 1,30,-1
 1014 1087 l 1,31,-1
 1014 0 l 1,32,-1
 925 0 l 1,33,-1
 925 243 l 1,34,-1
 920 243 l 1,35,36
 894 169 894 169 841.5 109 c 128,-1,37
 789 49 789 49 715 14 c 128,-1,38
 641 -21 641 -21 548 -21 c 0,16,17
558 62 m 0,39,40
 672 62 672 62 755 123.5 c 128,-1,41
 838 185 838 185 882.5 293 c 128,-1,42
 927 401 927 401 927 542 c 0,43,44
 927 684 927 684 882.5 792 c 128,-1,45
 838 900 838 900 755 960.5 c 128,-1,46
 672 1021 672 1021 558 1021 c 0,47,48
 447 1021 447 1021 362.5 961 c 128,-1,49
 278 901 278 901 231.5 793.5 c 128,-1,50
 185 686 185 686 185 542 c 0,51,52
 185 400 185 400 232 292 c 128,-1,53
 279 184 279 184 362.5 123 c 128,-1,54
 446 62 446 62 558 62 c 0,39,40
EndSplineSet
EndChar

StartChar: r
Encoding: 114 114 854
Width: 641
GlyphClass: 2
Flags: W
AnchorPoint: "Anchor-1" 396 1087 basechar 0
AnchorPoint: "Anchor-0" 204 0 basechar 0
LayerCount: 2
Fore
SplineSet
158 0 m 1,0,-1
 158 1087 l 1,1,-1
 245 1087 l 1,2,-1
 245 906 l 1,3,-1
 250 906 l 1,4,5
 286 995 286 995 371 1047 c 128,-1,6
 456 1099 456 1099 565 1099 c 0,7,8
 579 1099 579 1099 588.5 1098.5 c 128,-1,9
 598 1098 598 1098 609 1098 c 1,10,-1
 609 1008 l 1,11,12
 602 1010 602 1010 588.5 1011 c 128,-1,13
 575 1012 575 1012 557 1012 c 0,14,15
 469 1012 469 1012 398.5 973.5 c 128,-1,16
 328 935 328 935 287.5 865 c 128,-1,17
 247 795 247 795 247 702 c 2,18,-1
 247 0 l 1,19,-1
 158 0 l 1,0,-1
EndSplineSet
Substitution2: "'smcp' Lowercase to Small Capitals in Latin lookup 69 subtable" r.sc
Substitution2: "'c2sc' Capitals to Small Capitals in Latin lookup 68 subtable" r.sc
Substitution2: "'sups' Superscript in Latin lookup 39 subtable" r.sups
Substitution2: "'subs' Subscript in Latin lookup 38 subtable" r.subs
Substitution2: "'sinf' Scientific Inferiors in Latin lookup 18 subtable" r.subs
AlternateSubs2: "'aalt' Access All Alternates in Latin lookup 1 subtable" r.sc r.sups r.subs
EndChar

StartChar: rrthook
Encoding: 57437 57437 855
Width: 641
GlyphClass: 2
Flags: W
AnchorPoint: "Anchor-1" 396 1087 basechar 0
AnchorPoint: "Anchor-0" 204 0 basechar 0
LayerCount: 2
Fore
SplineSet
376 -419 m 0,0,1
 269 -419 269 -419 213.5 -365.5 c 128,-1,2
 158 -312 158 -312 158 -203 c 2,3,-1
 158 0 l 1,4,-1
 247 0 l 1,5,-1
 247 -203 l 2,6,7
 247 -276 247 -276 279.5 -307 c 128,-1,8
 312 -338 312 -338 384 -338 c 0,9,10
 397 -338 397 -338 419 -338 c 128,-1,11
 441 -338 441 -338 459 -338 c 1,12,-1
 459 -418 l 1,13,14
 442 -419 442 -419 420 -419 c 128,-1,15
 398 -419 398 -419 376 -419 c 0,0,1
158 0 m 1,16,-1
 158 1087 l 1,17,-1
 245 1087 l 1,18,-1
 245 906 l 1,19,-1
 250 906 l 1,20,21
 286 995 286 995 371 1047 c 128,-1,22
 456 1099 456 1099 565 1099 c 0,23,24
 579 1099 579 1099 588.5 1098.5 c 128,-1,25
 598 1098 598 1098 609 1098 c 1,26,-1
 609 1008 l 1,27,28
 602 1010 602 1010 588.5 1011 c 128,-1,29
 575 1012 575 1012 557 1012 c 0,30,31
 469 1012 469 1012 398.5 973.5 c 128,-1,32
 328 935 328 935 287.5 865 c 128,-1,33
 247 795 247 795 247 702 c 2,34,-1
 247 0 l 1,35,-1
 158 0 l 1,16,-1
EndSplineSet
EndChar

StartChar: rturn
Encoding: 633 633 857
Width: 641
GlyphClass: 2
Flags: W
AnchorPoint: "Anchor-1" 436 1087 basechar 0
AnchorPoint: "Anchor-0" 330 0 basechar 0
LayerCount: 2
Fore
SplineSet
483 1087 m 1,0,-1
 483 0 l 1,1,-1
 396 0 l 1,2,-1
 396 182 l 1,3,-1
 391 182 l 1,4,5
 355 94 355 94 270 41 c 128,-1,6
 185 -12 185 -12 76 -12 c 0,7,8
 63 -12 63 -12 53 -11 c 128,-1,9
 43 -10 43 -10 32 -10 c 1,10,-1
 32 79 l 1,11,12
 39 78 39 78 52.5 76.5 c 128,-1,13
 66 75 66 75 83 75 c 0,14,15
 173 75 173 75 243 114.5 c 128,-1,16
 313 154 313 154 353.5 223.5 c 128,-1,17
 394 293 394 293 394 385 c 2,18,-1
 394 1087 l 1,19,-1
 483 1087 l 1,0,-1
EndSplineSet
EndChar

StartChar: rturnrthook
Encoding: 635 635 858
Width: 641
GlyphClass: 2
Flags: W
AnchorPoint: "Anchor-1" 436 1087 basechar 0
AnchorPoint: "Anchor-0" 330 0 basechar 0
LayerCount: 2
Fore
SplineSet
610 -419 m 0,0,1
 502 -419 502 -419 448 -365.5 c 128,-1,2
 394 -312 394 -312 394 -203 c 2,3,-1
 394 0 l 1,4,-1
 480 0 l 1,5,-1
 480 -203 l 2,6,7
 480 -276 480 -276 512.5 -307 c 128,-1,8
 545 -338 545 -338 617 -338 c 0,9,10
 630 -338 630 -338 652.5 -338 c 128,-1,11
 675 -338 675 -338 692 -338 c 1,12,-1
 692 -418 l 1,13,14
 680 -418 680 -418 666.5 -418 c 128,-1,15
 653 -418 653 -418 638.5 -418.5 c 128,-1,16
 624 -419 624 -419 610 -419 c 0,0,1
483 1087 m 1,17,-1
 483 0 l 1,18,-1
 396 0 l 1,19,-1
 396 182 l 1,20,-1
 391 182 l 1,21,22
 355 94 355 94 270 41 c 128,-1,23
 185 -12 185 -12 76 -12 c 0,24,25
 63 -12 63 -12 53 -11 c 128,-1,26
 43 -10 43 -10 32 -10 c 1,27,-1
 32 79 l 1,28,29
 39 78 39 78 52.5 76.5 c 128,-1,30
 66 75 66 75 83 75 c 0,31,32
 173 75 173 75 243 114.5 c 128,-1,33
 313 154 313 154 353.5 223.5 c 128,-1,34
 394 293 394 293 394 385 c 2,35,-1
 394 1087 l 1,36,-1
 483 1087 l 1,17,-1
EndSplineSet
EndChar

StartChar: rfishhookrev
Encoding: 639 639 859
Width: 629
Flags: W
LayerCount: 2
Fore
SplineSet
471 0 m 1,0,-1
 382 0 l 1,1,-1
 382 732 l 2,2,3
 382 836 382 836 344 896.5 c 128,-1,4
 306 957 306 957 238 984.5 c 128,-1,5
 170 1012 170 1012 83 1012 c 0,6,7
 65 1012 65 1012 54 1011.5 c 128,-1,8
 43 1011 43 1011 32 1011 c 1,9,-1
 32 1096 l 1,10,11
 38 1096 38 1096 45.5 1096.5 c 128,-1,12
 53 1097 53 1097 64 1097.5 c 128,-1,13
 75 1098 75 1098 88 1098 c 0,14,15
 195 1098 195 1098 281.5 1061 c 128,-1,16
 368 1024 368 1024 419.5 943 c 128,-1,17
 471 862 471 862 471 732 c 2,18,-1
 471 0 l 1,0,-1
EndSplineSet
EndChar

StartChar: uni027E
Encoding: 638 638 860
Width: 629
Flags: W
LayerCount: 2
Fore
SplineSet
158 0 m 1,0,-1
 158 732 l 2,1,2
 158 862 158 862 209.5 943 c 128,-1,3
 261 1024 261 1024 348 1061 c 128,-1,4
 435 1098 435 1098 541 1098 c 0,5,6
 556 1098 556 1098 566 1097.5 c 128,-1,7
 576 1097 576 1097 583.5 1096.5 c 128,-1,8
 591 1096 591 1096 597 1096 c 1,9,-1
 597 1011 l 1,10,11
 587 1011 587 1011 575.5 1011.5 c 128,-1,12
 564 1012 564 1012 546 1012 c 0,13,14
 459 1012 459 1012 391.5 984.5 c 128,-1,15
 324 957 324 957 285.5 896.5 c 128,-1,16
 247 836 247 836 247 732 c 2,17,-1
 247 0 l 1,18,-1
 158 0 l 1,0,-1
EndSplineSet
EndChar

StartChar: rdescend
Encoding: 57438 57438 861
Width: 641
GlyphClass: 2
Flags: W
AnchorPoint: "Anchor-1" 396 1087 basechar 0
AnchorPoint: "Anchor-0" 204 0 basechar 0
LayerCount: 2
Fore
SplineSet
158 -418 m 1,0,-1
 158 0 l 1,1,-1
 245 0 l 1,2,-1
 245 -418 l 1,3,-1
 158 -418 l 1,0,-1
158 0 m 1,4,-1
 158 1087 l 1,5,-1
 245 1087 l 1,6,-1
 245 906 l 1,7,-1
 250 906 l 1,8,9
 286 995 286 995 371 1047 c 128,-1,10
 456 1099 456 1099 565 1099 c 0,11,12
 579 1099 579 1099 588.5 1098.5 c 128,-1,13
 598 1098 598 1098 609 1098 c 1,14,-1
 609 1008 l 1,15,16
 602 1010 602 1010 588.5 1011 c 128,-1,17
 575 1012 575 1012 557 1012 c 0,18,19
 469 1012 469 1012 398.5 973.5 c 128,-1,20
 328 935 328 935 287.5 865 c 128,-1,21
 247 795 247 795 247 702 c 2,22,-1
 247 0 l 1,23,-1
 158 0 l 1,4,-1
EndSplineSet
EndChar

StartChar: r.sc
Encoding: 60955 60955 871
Width: 1039
Flags: W
LayerCount: 2
Fore
SplineSet
158 0 m 1,0,-1
 158 1087 l 1,1,-1
 555 1087 l 2,2,3
 733 1087 733 1087 836 999.5 c 128,-1,4
 939 912 939 912 939 763 c 0,5,6
 939 617 939 617 836 530 c 128,-1,7
 733 443 733 443 555 443 c 2,8,-1
 207 443 l 1,9,-1
 207 523 l 1,10,-1
 550 523 l 2,11,12
 691 523 691 523 771.5 586 c 128,-1,13
 852 649 852 649 852 763 c 0,14,15
 852 879 852 879 772 942.5 c 128,-1,16
 692 1006 692 1006 550 1006 c 2,17,-1
 248 1006 l 1,18,-1
 248 0 l 1,19,-1
 158 0 l 1,0,-1
892 0 m 1,20,-1
 584 492 l 1,21,-1
 685 492 l 1,22,-1
 996 0 l 1,23,-1
 892 0 l 1,20,-1
EndSplineSet
EndChar

StartChar: rinv.sc
Encoding: 60956 60956 872
Width: 1039
Flags: W
LayerCount: 2
Fore
SplineSet
158 0 m 1,0,-1
 158 1087 l 1,1,-1
 248 1087 l 1,2,-1
 248 82 l 1,3,-1
 550 82 l 2,4,5
 692 82 692 82 772 146 c 128,-1,6
 852 210 852 210 852 325 c 0,7,8
 852 438 852 438 771.5 501.5 c 128,-1,9
 691 565 691 565 550 565 c 2,10,-1
 207 565 l 1,11,-1
 207 644 l 1,12,-1
 555 644 l 2,13,14
 732 644 732 644 835.5 558.5 c 128,-1,15
 939 473 939 473 939 325 c 0,16,17
 939 176 939 176 836 88 c 128,-1,18
 733 0 733 0 555 0 c 2,19,-1
 158 0 l 1,0,-1
584 595 m 1,20,-1
 892 1087 l 1,21,-1
 996 1087 l 1,22,-1
 685 595 l 1,23,-1
 584 595 l 1,20,-1
EndSplineSet
EndChar

StartChar: s
Encoding: 115 115 873
Width: 984
GlyphClass: 2
Flags: W
AnchorPoint: "Anchor-3" 497 0 basechar 0
AnchorPoint: "Anchor-1" 500 1087 basechar 0
AnchorPoint: "Anchor-0" 500 0 basechar 0
LayerCount: 2
Fore
SplineSet
493 -21 m 0,0,1
 384 -21 384 -21 301 16 c 128,-1,2
 218 53 218 53 167 122 c 128,-1,3
 116 191 116 191 103 289 c 1,4,-1
 191 299 l 1,5,6
 206 185 206 185 284 123 c 128,-1,7
 362 61 362 61 492 61 c 0,8,9
 630 61 630 61 711.5 125 c 128,-1,10
 793 189 793 189 793 290 c 0,11,12
 793 368 793 368 741.5 413 c 128,-1,13
 690 458 690 458 591 482 c 2,14,-1
 413 524 l 2,15,16
 275 557 275 557 204.5 625.5 c 128,-1,17
 134 694 134 694 134 802 c 0,18,19
 134 892 134 892 180.5 960 c 128,-1,20
 227 1028 227 1028 310.5 1065.5 c 128,-1,21
 394 1103 394 1103 502 1103 c 0,22,23
 603 1103 603 1103 679.5 1068 c 128,-1,24
 756 1033 756 1033 803.5 967.5 c 128,-1,25
 851 902 851 902 867 809 c 1,26,-1
 783 798 l 1,27,28
 763 904 763 904 692.5 964 c 128,-1,29
 622 1024 622 1024 502 1024 c 0,30,31
 377 1024 377 1024 300 963 c 128,-1,32
 223 902 223 902 223 804 c 0,33,34
 223 726 223 726 276.5 678.5 c 128,-1,35
 330 631 330 631 436 605 c 2,36,-1
 613 562 l 2,37,38
 747 530 747 530 815.5 465 c 128,-1,39
 884 400 884 400 884 293 c 0,40,41
 884 199 884 199 834.5 128.5 c 128,-1,42
 785 58 785 58 697 18.5 c 128,-1,43
 609 -21 609 -21 493 -21 c 0,0,1
EndSplineSet
Substitution2: "'sups' Superscript in Latin lookup 39 subtable" s.sups
Substitution2: "'subs' Subscript in Latin lookup 38 subtable" s.subs
Substitution2: "'sinf' Scientific Inferiors in Latin lookup 18 subtable" s.subs
AlternateSubs2: "'aalt' Access All Alternates in Latin lookup 1 subtable" s.sups s.subs
EndChar

StartChar: srthook
Encoding: 642 642 874
Width: 984
GlyphClass: 2
Flags: W
AnchorPoint: "Anchor-3" 497 0 basechar 0
AnchorPoint: "Anchor-1" 500 1087 basechar 0
AnchorPoint: "Anchor-0" 500 0 basechar 0
LayerCount: 2
Fore
SplineSet
321 -419 m 0,0,1
 213 -419 213 -419 158 -365.5 c 128,-1,2
 103 -312 103 -312 103 -203 c 2,3,-1
 103 289 l 1,4,-1
 189 289 l 1,5,-1
 189 -203 l 2,6,7
 189 -276 189 -276 222.5 -307 c 128,-1,8
 256 -338 256 -338 329 -338 c 0,9,10
 337 -338 337 -338 350.5 -337.5 c 128,-1,11
 364 -337 364 -337 378 -337 c 128,-1,12
 392 -337 392 -337 404 -338 c 1,13,-1
 404 -418 l 1,14,15
 392 -418 392 -418 378 -418 c 128,-1,16
 364 -418 364 -418 349.5 -418.5 c 128,-1,17
 335 -419 335 -419 321 -419 c 0,0,1
493 -21 m 0,18,19
 384 -21 384 -21 301 16 c 128,-1,20
 218 53 218 53 167 122 c 128,-1,21
 116 191 116 191 103 289 c 1,22,-1
 191 299 l 1,23,24
 206 185 206 185 284 123 c 128,-1,25
 362 61 362 61 492 61 c 0,26,27
 630 61 630 61 711.5 125 c 128,-1,28
 793 189 793 189 793 290 c 0,29,30
 793 368 793 368 741.5 413 c 128,-1,31
 690 458 690 458 591 482 c 2,32,-1
 413 524 l 2,33,34
 275 557 275 557 204.5 625.5 c 128,-1,35
 134 694 134 694 134 802 c 0,36,37
 134 892 134 892 180.5 960 c 128,-1,38
 227 1028 227 1028 310.5 1065.5 c 128,-1,39
 394 1103 394 1103 502 1103 c 0,40,41
 603 1103 603 1103 679.5 1068 c 128,-1,42
 756 1033 756 1033 803.5 967.5 c 128,-1,43
 851 902 851 902 867 809 c 1,44,-1
 783 798 l 1,45,46
 763 904 763 904 692.5 964 c 128,-1,47
 622 1024 622 1024 502 1024 c 0,48,49
 377 1024 377 1024 300 963 c 128,-1,50
 223 902 223 902 223 804 c 0,51,52
 223 726 223 726 276.5 678.5 c 128,-1,53
 330 631 330 631 436 605 c 2,54,-1
 613 562 l 2,55,56
 747 530 747 530 815.5 465 c 128,-1,57
 884 400 884 400 884 293 c 0,58,59
 884 199 884 199 834.5 128.5 c 128,-1,60
 785 58 785 58 697 18.5 c 128,-1,61
 609 -21 609 -21 493 -21 c 0,18,19
EndSplineSet
EndChar

StartChar: uni023F
Encoding: 575 575 875
Width: 984
GlyphClass: 2
Flags: W
AnchorPoint: "Anchor-3" 497 0 basechar 0
AnchorPoint: "Anchor-1" 500 1087 basechar 0
AnchorPoint: "Anchor-0" 500 0 basechar 0
LayerCount: 2
Fore
SplineSet
206 200 m 1,0,1
 306 24 306 24 367.5 -83.5 c 128,-1,2
 429 -191 429 -191 466.5 -246 c 128,-1,3
 504 -301 504 -301 531 -320 c 128,-1,4
 558 -339 558 -339 592 -339 c 0,5,6
 624 -339 624 -339 656.5 -322 c 128,-1,7
 689 -305 689 -305 725 -277 c 1,8,-1
 761 -343 l 1,9,10
 718 -378 718 -378 676 -398 c 128,-1,11
 634 -418 634 -418 593 -418 c 0,12,13
 548 -418 548 -418 511.5 -400 c 128,-1,14
 475 -382 475 -382 442.5 -346 c 128,-1,15
 410 -310 410 -310 379 -255 c 2,16,-1
 143 161 l 1,17,-1
 206 200 l 1,0,1
493 -21 m 0,18,19
 384 -21 384 -21 301 16 c 128,-1,20
 218 53 218 53 167 122 c 128,-1,21
 116 191 116 191 103 289 c 1,22,-1
 191 299 l 1,23,24
 206 185 206 185 284 123 c 128,-1,25
 362 61 362 61 492 61 c 0,26,27
 630 61 630 61 711.5 125 c 128,-1,28
 793 189 793 189 793 290 c 0,29,30
 793 368 793 368 741.5 413 c 128,-1,31
 690 458 690 458 591 482 c 2,32,-1
 413 524 l 2,33,34
 275 557 275 557 204.5 625.5 c 128,-1,35
 134 694 134 694 134 802 c 0,36,37
 134 892 134 892 180.5 960 c 128,-1,38
 227 1028 227 1028 310.5 1065.5 c 128,-1,39
 394 1103 394 1103 502 1103 c 0,40,41
 603 1103 603 1103 679.5 1068 c 128,-1,42
 756 1033 756 1033 803.5 967.5 c 128,-1,43
 851 902 851 902 867 809 c 1,44,-1
 783 798 l 1,45,46
 763 904 763 904 692.5 964 c 128,-1,47
 622 1024 622 1024 502 1024 c 0,48,49
 377 1024 377 1024 300 963 c 128,-1,50
 223 902 223 902 223 804 c 0,51,52
 223 726 223 726 276.5 678.5 c 128,-1,53
 330 631 330 631 436 605 c 2,54,-1
 613 562 l 2,55,56
 747 530 747 530 815.5 465 c 128,-1,57
 884 400 884 400 884 293 c 0,58,59
 884 199 884 199 834.5 128.5 c 128,-1,60
 785 58 785 58 697 18.5 c 128,-1,61
 609 -21 609 -21 493 -21 c 0,18,19
EndSplineSet
EndChar

